<?xml version="1.0" encoding="UTF-8" standalone="no"?>
<svg width="110px" height="64px" viewBox="0 0 110 64" version="1.1" xmlns="http://www.w3.org/2000/svg" xmlns:xlink="http://www.w3.org/1999/xlink">
    <!-- Generator: Sketch 41.2 (35397) - http://www.bohemiancoding.com/sketch -->
    <title>amex-dark</title>
    <desc>Created with Sketch.</desc>
    <defs></defs>
    <g id="Creditcards" stroke="none" stroke-width="1" fill="none" fill-rule="evenodd">
        <g id="amex-dark">
            <g id="amex" transform="translate(29.000000, 6.000000)">
                <g id="Layer_1">
                    <path d="M52.5507088,0.111598592 L0.118831579,0.111598592 L0.118831579,52.9186338 L52.5507088,52.9186338 L52.5507088,35.4909648 C52.7589895,35.1888275 52.8618281,34.802338 52.8618281,34.3298169 C52.8618281,33.788993 52.7589895,33.4540106 52.5507088,33.1718415" id="Shape" fill="#333333"></path>
                    <path d="M4.84494386,22.9620634 L3.83627018,20.4955106 L2.8333614,22.9620634 L4.84494386,22.9620634 Z M27.0658912,21.9798838 C26.8633754,22.1032394 26.6238526,22.1073451 26.3369088,22.1073451 L24.5466246,22.1073451 L24.5466246,20.7330775 L26.3612702,20.7330775 C26.6180877,20.7330775 26.8860632,20.7446479 27.0601263,20.8446761 C27.2512982,20.9348134 27.3695719,21.1266585 27.3695719,21.3916585 C27.3695719,21.6620704 27.2570632,21.879669 27.0658912,21.9798838 Z M39.8375895,22.9620634 L38.8177579,20.4955106 L37.8035053,22.9620634 L39.8375895,22.9620634 Z M16.0303614,25.6318451 L14.5195825,25.6318451 L14.5140035,20.7860775 L12.3770807,25.6318451 L11.0831368,25.6318451 L8.94063509,20.7817852 L8.94063509,25.6318451 L5.94325263,25.6318451 L5.37698947,24.2517923 L2.30856842,24.2517923 L1.73654035,25.6318451 L0.135940351,25.6318451 L2.77496842,19.4446549 L4.9645193,19.4446549 L7.47095439,25.3026479 L7.47095439,19.4446549 L9.87622456,19.4446549 L11.8048667,23.641919 L13.5765544,19.4446549 L16.0301754,19.4446549 L16.0301754,25.6318451 L16.0303614,25.6318451 Z M22.0517193,25.6318451 L17.1286702,25.6318451 L17.1286702,19.4446549 L22.0517193,19.4446549 L22.0517193,20.7330775 L18.6024421,20.7330775 L18.6024421,21.8483169 L21.9689649,21.8483169 L21.9689649,23.1165845 L18.6024421,23.1165845 L18.6024421,24.3521937 L22.0517193,24.3521937 L22.0517193,25.6318451 L22.0517193,25.6318451 Z M28.9930456,21.1109824 C28.9930456,22.0974542 28.3369614,22.6071127 27.9546175,22.7601408 C28.2770807,22.8833099 28.5524947,23.1009085 28.6836,23.2811831 C28.8916947,23.588919 28.927586,23.8638099 28.927586,24.4163908 L28.927586,25.6318451 L27.4411684,25.6318451 L27.4355895,24.851588 C27.4355895,24.4792817 27.4711088,23.9438697 27.2029474,23.6462113 C26.9876,23.4286127 26.6593719,23.3813979 26.128814,23.3813979 L24.5468105,23.3813979 L24.5468105,25.6318451 L23.0732246,25.6318451 L23.0732246,19.4446549 L26.462807,19.4446549 C27.2159649,19.4446549 27.7708842,19.4646232 28.2473263,19.741007 C28.7135404,20.0173908 28.9930456,20.4208627 28.9930456,21.1109824 Z M31.3514526,25.6318451 L29.8477404,25.6318451 L29.8477404,19.4446549 L31.3514526,19.4446549 L31.3514526,25.6318451 Z M48.7964491,25.6318451 L46.7080632,25.6318451 L43.9146842,20.988 L43.9146842,25.6318451 L40.9133965,25.6318451 L40.3398807,24.2517923 L37.2785263,24.2517923 L36.7221193,25.6318451 L34.9976667,25.6318451 C34.2813298,25.6318451 33.3743789,25.4728451 32.8607439,24.9475106 C32.3428316,24.4221761 32.0733684,23.7105951 32.0733684,22.5854648 C32.0733684,21.6678556 32.234414,20.829 32.8678105,20.1661268 C33.3442526,19.672331 34.0903439,19.4446549 35.1058982,19.4446549 L36.5326211,19.4446549 L36.5326211,20.7704014 L35.1358386,20.7704014 C34.5980281,20.7704014 34.2943474,20.8506479 34.0018246,21.1369225 C33.750586,21.3974437 33.5781965,21.8899331 33.5781965,22.5384366 C33.5781965,23.2013099 33.7094877,23.679243 33.983414,23.9914577 C34.2102912,24.2363028 34.6225754,24.3105775 35.0104982,24.3105775 L35.6723474,24.3105775 L37.7493895,19.4448415 L39.9575368,19.4448415 L42.4526281,25.2970493 L42.4526281,19.4448415 L44.6964807,19.4448415 L47.2869719,23.7538908 L47.2869719,19.4448415 L48.7964491,19.4448415 L48.7964491,25.6318451 Z M0.118831579,26.8471127 L2.63679649,26.8471127 L3.20454737,25.4728451 L4.47561754,25.4728451 L5.0418807,26.8471127 L9.99617193,26.8471127 L9.99617193,25.7964437 L10.4383965,26.8515915 L13.0102912,26.8515915 L13.4525158,25.7807676 L13.4525158,26.8471127 L25.7648807,26.8471127 L25.7591158,24.5912535 L25.9973368,24.5912535 C26.1641474,24.5970387 26.2128702,24.6125282 26.2128702,24.888912 L26.2128702,26.8471127 L32.5808667,26.8471127 L32.5808667,26.3219648 C33.0945018,26.598162 33.893407,26.8471127 34.9446667,26.8471127 L37.6236772,26.8471127 L38.197007,25.4728451 L39.4680772,25.4728451 L40.0287614,26.8471127 L45.1913333,26.8471127 L45.1913333,25.5417077 L45.9731298,26.8471127 L50.1101053,26.8471127 L50.1101053,18.2178169 L46.0159018,18.2178169 L46.0159018,19.2369472 L45.4425719,18.2178169 L41.2414386,18.2178169 L41.2414386,19.2369472 L40.7149719,18.2178169 L35.0402526,18.2178169 C34.0903439,18.2178169 33.2553614,18.3508768 32.5808667,18.7216901 L32.5808667,18.2178169 L28.6648175,18.2178169 L28.6648175,18.7216901 C28.2356105,18.339493 27.6507509,18.2178169 27.0004316,18.2178169 L12.693593,18.2178169 L11.7336421,20.4466162 L10.7478421,18.2178169 L6.24154035,18.2178169 L6.24154035,19.2369472 L5.74650175,18.2178169 L1.90335088,18.2178169 L0.118645614,22.3206514 L0.118645614,26.8471127 L0.118831579,26.8471127 Z M52.5507088,31.4108979 L49.8648175,31.4108979 C49.5966561,31.4108979 49.4185018,31.4209754 49.2684281,31.5226831 C49.1129614,31.6228979 49.0530807,31.7716338 49.0530807,31.9679577 C49.0530807,32.201419 49.1843719,32.3602324 49.3753579,32.4289085 C49.5308246,32.4832148 49.6978211,32.4990775 49.9432947,32.4990775 L50.742014,32.5205387 C51.547986,32.540507 52.0859825,32.6795387 52.4140246,33.0186268 C52.4737193,33.0658415 52.5096105,33.1188415 52.5507088,33.1718415 L52.5507088,31.4108979 Z M52.5507088,35.4909648 C52.1927263,36.0162993 51.4951719,36.2826056 50.5508421,36.2826056 L47.7048351,36.2826056 L47.7048351,34.9555528 L50.5393123,34.9555528 C50.8204912,34.9555528 51.0172421,34.9184155 51.1357018,34.802338 C51.2383544,34.7066021 51.3099509,34.5675704 51.3099509,34.3986796 C51.3099509,34.2184049 51.2383544,34.0752676 51.1299368,33.9894225 C51.023007,33.894993 50.8673544,33.8520704 50.6107228,33.8520704 C49.2269579,33.8048556 47.5006456,33.894993 47.5006456,31.9366056 C47.5006456,31.0389648 48.0685825,30.0941092 49.6150667,30.0941092 L52.5505228,30.0941092 L52.5505228,28.8627923 L49.8231614,28.8627923 C49.0000807,28.8627923 48.4022035,29.0606092 47.9787614,29.3681585 L47.9787614,28.8627923 L43.9446246,28.8627923 C43.2995123,28.8627923 42.5422632,29.0232852 42.1840947,29.3681585 L42.1840947,28.8627923 L34.980186,28.8627923 L34.980186,29.3681585 C34.4068561,28.9531162 33.4394667,28.8627923 32.9929649,28.8627923 L28.2411895,28.8627923 L28.2411895,29.3681585 C27.7876211,28.9273627 26.7789474,28.8627923 26.1641474,28.8627923 L20.8461088,28.8627923 L19.6291544,30.1844331 L18.4893754,28.8627923 L10.5453263,28.8627923 L10.5453263,37.4980599 L18.3398596,37.4980599 L19.5938211,36.1555176 L20.7750702,37.4980599 L25.5796596,37.5023521 L25.5796596,35.4709965 L26.0520105,35.4709965 C26.6894982,35.4808873 27.4413544,35.4551338 28.1046912,35.1673662 L28.1046912,37.4978732 L32.0676035,37.4978732 L32.0676035,35.2472394 L32.2587754,35.2472394 C32.5027614,35.2472394 32.5267509,35.2573169 32.5267509,35.5019754 L32.5267509,37.4976866 L44.5653754,37.4976866 C45.3296912,37.4976866 46.1285965,37.3013627 46.571007,36.9451056 L46.571007,37.4976866 L50.3896105,37.4976866 C51.1842386,37.4976866 51.9602702,37.3859014 52.5507088,37.0996268 L52.5507088,35.4909648 Z M46.6721719,33.0186268 C46.9591158,33.3166585 47.1129088,33.6928838 47.1129088,34.3298169 C47.1129088,35.661162 46.2840632,36.2826056 44.7978316,36.2826056 L41.9274632,36.2826056 L41.9274632,34.9555528 L44.7863018,34.9555528 C45.065807,34.9555528 45.2640456,34.9184155 45.3882702,34.802338 C45.4896211,34.7066021 45.5623333,34.5675704 45.5623333,34.3986796 C45.5623333,34.2184049 45.4836702,34.0752676 45.3825053,33.9894225 C45.2698105,33.894993 45.1143439,33.8520704 44.8577123,33.8520704 C43.4795263,33.8048556 41.753586,33.894993 41.753586,31.9366056 C41.753586,31.0389648 42.3155719,30.0941092 43.8605684,30.0941092 L46.814993,30.0941092 L46.814993,31.4112711 L44.1116211,31.4112711 C43.8436456,31.4112711 43.6693965,31.4213486 43.5211825,31.5230563 C43.3597649,31.6232711 43.2998842,31.772007 43.2998842,31.968331 C43.2998842,32.2017923 43.4369404,32.3606056 43.6223474,32.4292817 C43.777814,32.483588 43.9448105,32.4994507 44.1958632,32.4994507 L44.9891895,32.520912 C45.7892105,32.540507 46.3383649,32.6793521 46.6721719,33.0186268 Z M33.374193,32.6364296 C33.1770702,32.7538134 32.9332702,32.7638908 32.6465123,32.7638908 L30.8562281,32.7638908 L30.8562281,31.3739472 L32.6708737,31.3739472 C32.9332702,31.3739472 33.1958526,31.3795458 33.374193,31.4857324 C33.5651789,31.5859472 33.6793614,31.7776056 33.6793614,32.042419 C33.6793614,32.3072324 33.5651789,32.5205387 33.374193,32.6364296 Z M34.2642211,33.4066092 C34.5922632,33.5280986 34.8604246,33.7458838 34.9861368,33.9261585 C35.1942316,34.2282958 35.2243579,34.5102782 35.2303088,35.0557676 L35.2303088,36.2826056 L33.7507719,36.2826056 L33.7507719,35.5083204 C33.7507719,35.1360141 33.7864772,34.5847394 33.5125509,34.2969718 C33.2972035,34.0752676 32.9689754,34.0222676 32.4313509,34.0222676 L30.856414,34.0222676 L30.856414,36.2826056 L29.3755754,36.2826056 L29.3755754,30.0939225 L32.7779895,30.0939225 C33.5240807,30.0939225 34.0674702,30.1269542 34.5511649,30.3859824 C35.0162632,30.6679648 35.308786,31.0542676 35.308786,31.76025 C35.3086,32.7480282 34.6521439,33.252088 34.2642211,33.4066092 Z M36.1259158,30.0939225 L41.0445018,30.0939225 L41.0445018,31.3737606 L37.5935509,31.3737606 L37.5935509,32.4988908 L40.9602596,32.4988908 L40.9602596,33.7615599 L37.5935509,33.7615599 L37.5935509,34.9928768 L41.0445018,34.9984754 L41.0445018,36.2826056 L36.1259158,36.2826056 L36.1259158,30.0939225 L36.1259158,30.0939225 Z M26.1829298,32.9499507 L24.2784632,32.9499507 L24.2784632,31.3739472 L26.2000386,31.3739472 C26.7320842,31.3739472 27.1014105,31.5915458 27.1014105,32.132743 C27.1014105,32.6679683 26.749193,32.9499507 26.1829298,32.9499507 Z M22.8106421,35.7197606 L20.548007,33.1989014 L22.8106421,30.7581021 L22.8106421,35.7197606 Z M16.9674386,34.9928768 L13.3440982,34.9928768 L13.3440982,33.7615599 L16.5795158,33.7615599 L16.5795158,32.4988908 L13.3440982,32.4988908 L13.3440982,31.3737606 L17.0388491,31.3737606 L18.650793,33.1772535 L16.9674386,34.9928768 Z M28.6836,32.132743 C28.6836,33.8518838 27.4054632,34.2068345 26.1172842,34.2068345 L24.2784632,34.2068345 L24.2784632,36.2826056 L21.4140456,36.2826056 L19.5994,34.2338944 L17.7135298,36.2826056 L11.8760912,36.2826056 L11.8760912,30.0939225 L17.8033509,30.0939225 L19.6165088,32.1224789 L21.4910351,30.0939225 L26.2000386,30.0939225 C27.3695719,30.0939225 28.6836,30.4188275 28.6836,32.132743 Z" id="Combined-Shape" fill="#FFFFFF"></path>
                </g>
            </g>
        </g>
    </g>
</svg>