<svg id="Ebene_1" data-name="Ebene 1" xmlns="http://www.w3.org/2000/svg" viewBox="0 0 220 194"><defs><style>.cls-1{fill:#fff;}.cls-2{fill:#484848;}</style></defs><path class="cls-1" d="M0,14.38V179.62A14.38,14.38,0,0,0,14.37,194h98.7C187.66,194,220,152.21,220,96.81,220,41.62,187.66,0,113.07,0H14.37A14.38,14.38,0,0,0,0,14.38Z"/><path d="M113.05,180.79H27.21A13.81,13.81,0,0,1,13.41,167V27a13.81,13.81,0,0,1,13.8-13.8h85.84c81.41,0,93.57,52.37,93.57,83.6C206.62,151,173.39,180.79,113.05,180.79Zm-85.84-163A9.22,9.22,0,0,0,18,27V167a9.22,9.22,0,0,0,9.21,9.2h85.84c57.37,0,89-28.19,89-79.38,0-68.73-55.74-79-89-79Z"/><path class="cls-2" d="M66,40.57V162.63h53.11c48.26,0,69.18-27.28,69.18-65.76,0-36.86-20.92-65.5-69.18-65.5H75.24a9.2,9.2,0,0,0-9.2,9.2Z"/><polygon class="cls-1" points="167.3 80.39 167.3 104.17 181.5 104.17 181.5 109.56 160.89 109.56 160.89 80.39 167.3 80.39"/><path class="cls-1" d="M146,80.4l10.91,29.16h-6.65L148,103.09H137.1l-2.29,6.47h-6.46l11-29.16Zm.37,17.88-3.67-10.69h-.08l-3.8,10.69Z"/><polygon class="cls-1" points="124 80.39 124 85.79 108.62 85.79 108.62 92.03 122.74 92.03 122.74 97.02 108.62 97.02 108.62 104.17 124.33 104.17 124.33 109.56 102.21 109.56 102.21 80.39 124 80.39"/><path class="cls-1" d="M84.74,80.4a15.07,15.07,0,0,1,5.24.89,11.4,11.4,0,0,1,4.2,2.7A12.48,12.48,0,0,1,97,88.48a18.21,18.21,0,0,1,1,6.34,20.05,20.05,0,0,1-.81,5.87,13.09,13.09,0,0,1-2.47,4.66,11.63,11.63,0,0,1-4.13,3.09,14.09,14.09,0,0,1-5.81,1.12H72.16V80.4Zm-.45,23.76a8.24,8.24,0,0,0,2.69-.44,6,6,0,0,0,2.33-1.5,7.37,7.37,0,0,0,1.63-2.71,11.75,11.75,0,0,0,.61-4.08,17.14,17.14,0,0,0-.42-4,8,8,0,0,0-1.44-3,6.29,6.29,0,0,0-2.59-1.94,10.42,10.42,0,0,0-4-.67H78.54v18.37Z"/><path d="M42,116.16h0a10.19,10.19,0,0,1,10.19,10.19h0v36.28h0a20.37,20.37,0,0,1-20.38-20.38v-15.9A10.19,10.19,0,0,1,42,116.16Z"/><ellipse cx="42.03" cy="94.98" rx="13.45" ry="13.45"/></svg>