<?xml version="1.0" encoding="utf-8"?>
<!-- Generator: Adobe Illustrator 25.2.1, SVG Export Plug-In . SVG Version: 6.00 Build 0)  -->
<svg version="1.1" id="Ebene_1" xmlns="http://www.w3.org/2000/svg" xmlns:xlink="http://www.w3.org/1999/xlink" x="0px" y="0px"
	 viewBox="0 0 220 128" style="enable-background:new 0 0 220 128;" xml:space="preserve">
<style type="text/css">
	.st0{fill:#FFFFFF;}
	.st1{fill:#0A0A0A;}
	.st2{fill:#4D4D4D;}
</style>
<g>
	<path class="st0" d="M142.12,7.15l-23.55-1.98L39.44,3.98v121.75h84.46l28.14-7.65l19.16-16.61l9.37-26.12V45.16l-14.01-24.25
		L142.12,7.15z"/>
	<path class="st1" d="M41.93,6.02v115.96h70.45c42.54,0,65.69-19.82,65.69-58.13c0-39.37-25.09-57.83-65.69-57.83H41.93L41.93,6.02z
		 M112.38,0c62.39,0,71.71,40.01,71.71,63.85c0,41.37-25.46,64.15-71.71,64.15c0,0-74.96,0-76.47,0c0-1.52,0-126.49,0-128
		C37.42,0,112.38,0,112.38,0z"/>
	<path class="st2" d="M85.41,45.87c0,3.63,0,9.46,0,13.08c1.99,0,4.02,0,4.02,0c2.78,0,5.35-0.8,5.35-6.64
		c0-5.71-2.86-6.44-5.35-6.44C89.43,45.87,87.4,45.87,85.41,45.87L85.41,45.87z M152.41,39.36h6.5c0,0,0,14.81,0,19.59
		c1.44,0,5.4,0,9.63,0c-2.64-35.55-30.61-43.23-56.02-43.23H85.42v23.65h4.01c7.31,0,11.85,4.96,11.85,12.93
		c0,8.23-4.43,13.14-11.85,13.14h-4.01v47.33h27.09c41.32,0,55.7-19.19,56.2-47.33h-16.31V39.36L152.41,39.36z M134.3,53.92h4.7
		l-2.15-7.38h-0.39L134.3,53.92z M124.17,65.45l7.87-26.1h9.24l7.86,26.1h-6.76l-1.47-5.05h-8.5l-1.48,5.05H124.17z M121.05,58.95
		v6.5h-16.07V39.37h15.55v6.49c0,0-5.54,0-9.06,0c0,0.9,0,1.92,0,3.02h8.56v6.49h-8.56c0,1.3,0,2.53,0,3.57
		C115.09,58.95,121.05,58.95,121.05,58.95L121.05,58.95z"/>
	<path d="M76.9,52.4c0,7.74-6.27,14.02-14.02,14.02c-7.74,0-14.02-6.28-14.02-14.02c0-7.74,6.28-14.02,14.02-14.02
		C70.63,38.38,76.9,44.66,76.9,52.4z M51.64,112.76H74.2V72.61H51.64V112.76z"/>
</g>
</svg>
