<?xml version="1.0" encoding="UTF-8"?>
<svg width="110px" height="64px" viewBox="0 0 110 64" version="1.1" xmlns="http://www.w3.org/2000/svg" xmlns:xlink="http://www.w3.org/1999/xlink">
    <!-- Generator: Sketch 45.2 (43514) - http://www.bohemiancoding.com/sketch -->
    <title>klarna-invoice-dark</title>
    <desc>Created with Sketch.</desc>
    <defs>
        <rect id="path-1" x="0" y="0" width="68" height="45.3333333" rx="5"></rect>
    </defs>
    <g id="Invoice-&amp;-Direct-Debit" stroke="none" stroke-width="1" fill="none" fill-rule="evenodd">
        <g id="klarna-invoice-dark">
            <g id="invoice" transform="translate(21.000000, 9.000000)">
                <g id="Clipped">
                    <mask id="mask-2" fill="white">
                        <use xlink:href="#path-1"></use>
                    </mask>
                    <g id="-later-a"></g>
                    <g id="Group" mask="url(#mask-2)" fill-rule="nonzero" fill="#333333">
                        <rect id="Rectangle-path" x="0" y="0" width="68" height="45.3333333"></rect>
                    </g>
                </g>
                <g id="Group" transform="translate(14.166667, 31.166667)" fill-rule="nonzero" fill="#FFFFFF">
                    <path d="M7.22812729,0 L5.20570272,0 C5.20570272,1.65208333 4.44389256,3.15972222 3.11979397,4.15277778 L2.32170713,4.74861111 L5.42336277,8.95555559 L7.97179909,8.95555559 L5.11501104,5.08263889 C6.46631714,3.74652778 7.22812729,1.94097222 7.22812729,0 Z" id="Shape"></path>
                    <rect id="Rectangle-path" x="0" y="0" width="2.067625" height="8.95545833"></rect>
                    <rect id="Rectangle-path" x="8.570125" y="0" width="1.95004167" height="8.95545833"></rect>
                    <path d="M27.6246873,2.59097222 C26.8810155,2.59097222 26.1736203,2.81666667 25.7020235,3.45763889 L25.7020235,2.7625 L23.8519132,2.7625 L23.8519132,8.95555559 L25.729231,8.95555559 L25.729231,5.70555556 C25.729231,4.76666666 26.3640728,4.30625 27.125883,4.30625 C27.9421082,4.30625 28.4137049,4.79375 28.4137049,5.69652778 L28.4137049,8.96458337 L30.2728844,8.96458337 L30.2728844,5.01944444 C30.2728844,3.575 29.1211001,2.59097222 27.6246873,2.59097222 Z M16.415195,2.7625 L16.415195,3.15972222 C15.8891832,2.79861111 15.2543414,2.59097222 14.5650846,2.59097222 C12.7512509,2.59097222 11.2820456,4.05347222 11.2820456,5.85902778 C11.2820456,7.66458331 12.7512509,9.12708332 14.5650846,9.12708332 C15.2543414,9.12708332 15.8891832,8.91944447 16.415195,8.5583333 L16.415195,8.95555559 L18.2743745,8.95555559 L18.2743745,2.7625 L16.415195,2.7625 Z M14.7192605,7.44791668 C13.7851362,7.44791668 13.0323951,6.73472222 13.0323951,5.85902778 C13.0323951,4.98333333 13.7851362,4.27013889 14.7192605,4.27013889 C15.6533848,4.27013889 16.4061258,4.98333333 16.4061258,5.85902778 C16.4061258,6.73472222 15.6533848,7.44791668 14.7192605,7.44791668 Z M21.1583701,3.56597223 L21.1583701,2.7625 L19.2538448,2.7625 L19.2538448,8.95555559 L21.1674393,8.95555559 L21.1674393,6.06666666 C21.1674393,5.09166666 22.228532,4.56805556 22.9631346,4.56805556 C22.9722038,4.56805556 22.981273,4.56805556 22.981273,4.56805556 L22.981273,2.7625 C22.228532,2.7625 21.530206,3.0875 21.1583701,3.56597223 Z M36.059014,2.7625 L36.059014,3.15972222 C35.5330022,2.79861111 34.8981604,2.59097222 34.2089036,2.59097222 C32.3950699,2.59097222 30.9258646,4.05347222 30.9258646,5.85902778 C30.9258646,7.66458331 32.3950699,9.12708332 34.2089036,9.12708332 C34.8981604,9.12708332 35.5330022,8.91944447 36.059014,8.5583333 L36.059014,8.95555559 L37.9181935,8.95555559 L37.9181935,2.7625 L36.059014,2.7625 Z M34.3630795,7.44791668 C33.4289551,7.44791668 32.6762141,6.73472222 32.6762141,5.85902778 C32.6762141,4.98333333 33.4289551,4.27013889 34.3630795,4.27013889 C35.2972038,4.27013889 36.0499448,4.98333333 36.0499448,5.85902778 C36.059014,6.73472222 35.2972038,7.44791668 34.3630795,7.44791668 Z M39.9043414,6.76180555 C39.2604305,6.76180555 38.7344187,7.28541665 38.7344187,7.9263889 C38.7344187,8.56736108 39.2604305,9.0909722 39.9043414,9.0909722 C40.5482524,9.0909722 41.0742642,8.56736108 41.0742642,7.9263889 C41.0742642,7.27638887 40.5482524,6.76180555 39.9043414,6.76180555 Z" id="Shape"></path>
                </g>
                <g id="Group" transform="translate(14.875000, 9.916667)" fill-rule="nonzero" fill="#FFFFFF">
                    <path d="M1.21819884,1.79102059 C3.92909306,1.50350279 6.65345099,1.35399026 9.38031327,1.34311411 C11.2933195,1.34311806 12.6834808,1.40552513 14.5763252,1.54587728 C14.7388083,1.55792521 15.3254547,1.60219197 15.4550729,1.61182313 C15.7903462,1.63673531 16.0536844,1.65531544 16.3087974,1.67169612 C17.1399144,1.72506175 17.8450752,1.75135417 18.5924947,1.75135417 C18.8614583,1.75135417 19.0794963,1.53744888 19.0794963,1.27358333 C19.0794963,1.00971779 18.8614583,0.7958125 18.5924947,0.7958125 C17.8682621,0.7958125 17.1837383,0.770289548 16.3724098,0.718194535 C16.121129,0.702059914 15.8608704,0.683697076 15.5286329,0.659010462 C15.3997986,0.649437547 14.8130501,0.605163087 14.6497323,0.59305327 C12.734358,0.451030552 11.3208722,0.387576389 9.37833333,0.387576389 C6.46916666,0.399175724 3.56479171,0.566428522 0.676187269,0.888592486 C0.430093747,0.916039119 0.244195675,1.12032144 0.244195675,1.36330556 L0.244195675,2.86166667 C0.244195675,2.93999075 0.263823702,3.01711367 0.301351668,3.0862454 C0.687892159,3.79830668 0.933302166,4.57581483 1.02457841,5.37757285 C1.15331235,7.85513553 1.40901172,9.40593467 2.19169427,10.9604043 C3.32653938,13.2142969 5.34935767,14.4874236 8.42262131,14.4874236 C13.7918925,14.4909052 15.3807834,13.2975067 16.5328084,9.73809095 C16.5513082,9.68093213 16.6747049,9.29705017 16.7114861,9.18395547 C16.7809907,8.9702438 16.839931,8.79418273 16.89933,8.62443065 C16.8329686,8.81370107 17.7048336,6.23036385 17.8972405,5.7734869 C18.1798015,5.10253554 18.3873613,4.8736875 18.5924947,4.8736875 C18.8614583,4.8736875 19.0794963,4.65978221 19.0794963,4.39591667 C19.0794963,4.13205112 18.8614583,3.91814583 18.5924947,3.91814583 C17.8653086,3.91814583 17.4161946,4.41332271 16.9970415,5.40861685 C16.7889378,5.90276652 15.8979375,8.54280175 15.9781936,8.31390235 C15.9160925,8.49137647 15.8550568,8.67369651 15.7835695,8.89350481 C15.7461776,9.00847694 15.6224978,9.39323985 15.6044786,9.44891379 C15.0860119,11.0508224 14.7096195,11.756847 13.9107694,12.3568545 C12.8759174,13.1341205 11.1701124,13.5336633 8.42294318,13.5318821 C5.72555033,13.5318819 4.03802356,12.4697819 3.06496845,10.5372172 C2.35939702,9.13589626 2.11947727,7.68079945 1.99493216,5.30005378 C1.8922942,4.39110041 1.62971393,3.53376236 1.21819884,2.74450773 L1.21819884,1.79102059 Z" id="Shape"></path>
                    <path d="M8.56895044,11.8832361 L8.51864978,11.8832361 C7.34581053,11.9230083 6.20854653,11.4845204 5.37714662,10.6719861 C3.68064346,8.98520833 3.70808017,6.185875 3.70808017,6.05129167 C3.6669251,5.64305556 3.64863397,5.19444444 3.64863397,4.74583333 C3.60276041,4.33611578 3.72735974,3.92557377 3.99420773,3.60720325 C4.26105572,3.28883272 4.64756995,3.08957627 5.06619726,3.05456944 C6.24597574,2.92447222 8.05679853,2.86166667 9.24572257,2.84820833 C12.3003428,2.81231944 13.9648365,2.99625 14.6416086,3.43588889 C15.5561656,4.01908333 15.4372732,4.88938889 14.6416086,7.37469444 L14.4266878,7.91302775 C13.635596,10.4701111 13.1874631,11.8832361 8.56895044,11.8832361 Z M10.2967199,3.71165003 L5.66906165,9.3865806 C5.50104145,9.59262499 5.53509327,9.89328253 5.74511851,10.058118 C5.95514376,10.2229535 6.26161014,10.1895471 6.42963034,9.98350273 L11.0572885,4.30857218 C11.2253087,4.10252781 11.191257,3.80187027 10.9812317,3.63703477 C10.7712064,3.47219927 10.4647401,3.50560566 10.2967199,3.71165003 Z M7.22843237,3.51868461 L4.57164439,6.77560127 C4.40358892,6.98161796 4.43758927,7.2822811 4.6475863,7.44715121 C4.85758332,7.61202131 5.16405541,7.57866541 5.33211088,7.37264873 L7.98889883,4.11573206 C8.15695431,3.90971538 8.12295395,3.60905223 7.91295692,3.44418212 C7.70295993,3.27931202 7.39648783,3.31266792 7.22843237,3.51868461 Z M35.9667906,1.79102056 L35.9667906,2.74450575 C35.5552799,3.53370846 35.2927984,4.38985712 35.1924265,5.27151048 C35.0655122,7.68079945 34.8255925,9.13589626 34.120021,10.5372172 C33.1469659,12.4697819 31.4594391,13.5318819 28.7623681,13.5318819 C26.018067,13.5318819 24.3126622,13.1297668 23.2765691,12.3492025 C22.4767808,11.7466638 22.0992338,11.0387063 21.5779542,9.43345569 C21.5598098,9.37758137 21.4369708,8.99675197 21.3998912,8.88309833 C21.328856,8.6653663 21.2682831,8.48487382 21.2068206,8.30948695 C21.2870519,8.53831566 20.3960516,5.8982804 20.1879479,5.40413074 C19.7687948,4.4088366 19.3196809,3.91365972 18.5924947,3.91365972 C18.3235312,3.91365972 18.1054931,4.12756501 18.1054931,4.39143056 C18.1054931,4.6552961 18.3235312,4.86920139 18.5924947,4.86920139 C18.7976282,4.86920139 19.005188,5.09804943 19.287749,5.76900079 C19.4801559,6.22587774 20.3520209,8.80921491 20.2857569,8.62022265 C20.3446398,8.78824867 20.4031568,8.96261512 20.4722451,9.17437945 C20.5087264,9.28619935 20.6312915,9.66617946 20.649908,9.72350778 C21.8078539,13.2893359 23.3981527,14.4874236 28.7623681,14.4874236 C31.8356318,14.4874236 33.8584501,13.2142969 34.9932952,10.9604043 C35.7759777,9.40593467 36.0316771,7.85513553 36.1627802,5.34902956 C36.2516873,4.57581483 36.4970973,3.79830668 36.8836377,3.0862454 C36.9211657,3.01711367 36.9407938,2.93999075 36.9407938,2.86166667 L36.9407938,1.36330556 C36.9407938,1.12032144 36.7548957,0.916039119 36.5088022,0.888592486 C33.6201978,0.566428522 30.7158228,0.399175724 27.8086361,0.387580337 C25.8641173,0.387576389 24.4506314,0.451030552 22.5352572,0.59305327 C22.3719394,0.605163087 21.7851908,0.649437547 21.6563566,0.659010462 C21.324119,0.683697076 21.0638605,0.702059914 20.8125797,0.718194535 C20.0012511,0.770289548 19.3167273,0.7958125 18.5924947,0.7958125 C18.3235312,0.7958125 18.1054931,1.00971779 18.1054931,1.27358333 C18.1054931,1.53744888 18.3235312,1.75135417 18.5924947,1.75135417 C19.3399142,1.75135417 20.0450751,1.72506175 20.8761921,1.67169612 C21.1313051,1.65531544 21.3946433,1.63673531 21.7299166,1.61182313 C21.8595347,1.60219197 22.4461811,1.55792521 22.6086643,1.54587728 C24.5015087,1.40552513 25.8916699,1.34311806 27.8066561,1.34311806 C30.5316383,1.35399046 33.2559013,1.50350279 35.9667906,1.79102056 Z" id="Shape"></path>
                    <path d="M28.6023206,11.8832361 C23.983808,11.8832361 23.5356751,10.4701111 22.7262922,7.91751391 L22.5479536,7.35675 C21.7385706,4.87144444 21.6333966,4.005625 22.5479536,3.41794444 C23.2247257,2.96933333 24.8892194,2.794375 27.9438397,2.83026389 C29.1373365,2.83026389 30.9435865,2.90652778 32.123365,3.036625 C32.544539,3.07379537 32.9325696,3.27623406 33.1994582,3.59803143 C33.4663468,3.9198288 33.5894781,4.33371702 33.5409282,4.74583333 C33.5409282,5.19444444 33.5409282,5.64305556 33.4769093,6.09166667 C33.4769093,6.17241667 33.504346,8.98969442 31.8078428,10.6764722 C30.975343,11.4901657 29.8361754,11.9287491 28.6617669,11.8877222 L28.6023206,11.8877222 L28.6023206,11.8832361 Z M25.9174039,3.51868461 L23.2606159,6.77560127 C23.0925604,6.98161796 23.1265608,7.2822811 23.3365578,7.44715121 C23.5465549,7.61202131 23.853027,7.57866541 24.0210824,7.37264873 L26.6778704,4.11573206 C26.8459258,3.90971538 26.8119255,3.60905223 26.6019285,3.44418212 C26.3919314,3.27931202 26.0854594,3.31266792 25.9174039,3.51868461 Z M28.9856914,3.71165003 L24.3580331,9.3865806 C24.1900129,9.59262499 24.2240648,9.89328253 24.43409,10.058118 C24.6441153,10.2229535 24.9505817,10.1895471 25.1186019,9.98350273 L29.7462601,4.30857218 C29.9142803,4.10252781 29.8802284,3.80187027 29.6702032,3.63703477 C29.460178,3.47219927 29.1537116,3.50560566 28.9856914,3.71165003 Z" id="Shape"></path>
                </g>
            </g>
        </g>
    </g>
</svg>