<?xml version="1.0" encoding="utf-8"?>
<!-- Generator: Adobe Illustrator 25.2.1, SVG Export Plug-In . SVG Version: 6.00 Build 0)  -->
<svg version="1.1" id="Ebene_1" xmlns="http://www.w3.org/2000/svg" xmlns:xlink="http://www.w3.org/1999/xlink" x="0px" y="0px"
	 viewBox="0 0 220 122.22" style="enable-background:new 0 0 220 122.22;" xml:space="preserve">
<style type="text/css">
	.st0{fill:#CCCCCC;}
	.st1{fill:#0A0A0A;}
</style>
<path class="st0" d="M21.12,0h177.76C210.54,0,220,9.46,220,21.12v79.98c0,11.66-9.46,21.12-21.12,21.12H21.12
	C9.46,122.22,0,112.76,0,101.1V21.12C0,9.46,9.46,0,21.12,0z"/>
<path class="st1" d="M199.44,71.6c-2.88,0.01-5.22,2.35-5.21,5.23c0,0.01,0,0.01,0,0.02l0,0c-0.02,2.88,2.3,5.24,5.18,5.26
	c0.01,0,0.01,0,0.02,0l0,0c2.91,0,5.26-2.35,5.26-5.26s-2.35-5.26-5.26-5.26L199.44,71.6z M182.29,67.54
	c0.18-4.15-3.04-7.67-7.19-7.85s-7.67,3.04-7.85,7.19s3.04,7.67,7.19,7.85c0.11,0,0.22,0.01,0.33,0.01
	C178.83,74.82,182.2,71.6,182.29,67.54L182.29,67.54z M182.29,53.54h8.3v28h-8.3v-1.8c-2.42,1.67-5.3,2.57-8.24,2.56
	c-8.15-0.21-14.59-6.99-14.38-15.15c0.2-7.86,6.52-14.18,14.38-14.38c2.94,0,5.82,0.89,8.24,2.57V53.54z M115.84,57.19v-3.64h-8.51
	v28h8.53V68.46c0-4.41,4.73-6.77,8-6.77h0.1v-8.14c-3.11-0.07-6.08,1.27-8.09,3.64H115.84z M94.69,67.54
	c0.18-4.15-3.04-7.67-7.19-7.85s-7.67,3.04-7.85,7.19c-0.18,4.15,3.04,7.67,7.19,7.85c0.11,0,0.22,0.01,0.33,0.01
	C91.23,74.82,94.6,71.6,94.69,67.54z M94.69,53.54H103v28h-8.3v-1.8c-2.42,1.67-5.3,2.56-8.24,2.56
	c-8.15-0.21-14.59-6.99-14.38-15.15c0.2-7.86,6.52-14.18,14.38-14.38c2.94,0,5.82,0.89,8.24,2.57L94.69,53.54z M144.69,52.79
	c-3.32,0-6.46,1-8.56,3.91v-3.15h-8.27v28h8.37V66.83c0-4.26,2.83-6.35,6.24-6.35c3.64,0,5.75,2.2,5.75,6.29v14.76h8.29V63.74
	C156.52,57.22,151.38,52.79,144.69,52.79L144.69,52.79z M59.76,81.53h8.69V41.11h-8.69V81.53z M21.57,81.53h9.21V41.11h-9.2v40.43
	L21.57,81.53z M53.77,41.11c0.05,8.61-3.34,16.89-9.41,23l12.72,17.5H45.71l-13.82-19l3.57-2.7c5.9-4.44,9.36-11.41,9.3-18.8h9
	H53.77z"/>
</svg>
