<?xml version="1.0" encoding="UTF-8" standalone="no"?>
<svg width="110px" height="64px" viewBox="0 0 110 64" version="1.1" xmlns="http://www.w3.org/2000/svg" xmlns:xlink="http://www.w3.org/1999/xlink">
    <!-- Generator: Sketch 41.2 (35397) - http://www.bohemiancoding.com/sketch -->
    <title>maestro-dark</title>
    <desc>Created with Sketch.</desc>
    <defs></defs>
    <g id="Others" stroke="none" stroke-width="1" fill="none" fill-rule="evenodd">
        <g id="maestro-dark">
            <g id="maestro" transform="translate(16.000000, 0.000000)">
                <g id="Layer_1">
                    <rect id="Rectangle-path" x="0" y="0" width="77.8832653" height="63.8095868"></rect>
                    <path d="M26.737551,55.6641322 L26.737551,52.4905785 C26.7750979,51.952051 26.5783113,51.4234661 26.197416,51.0397314 C25.8165206,50.6559968 25.2883678,50.4542386 24.7477551,50.4859504 C24.033463,50.4392716 23.3502973,50.7838222 22.964898,51.385124 C22.6135244,50.8017504 21.9701477,50.4567302 21.2881633,50.4859504 C20.6943643,50.4560275 20.1290735,50.7417994 19.802449,51.2370248 L19.802449,50.6128926 L18.6987755,50.6128926 L18.6987755,55.6641322 L19.8130612,55.6641322 L19.8130612,52.8661157 C19.7630653,52.5156158 19.8736508,52.161266 20.1142884,51.9008914 C20.354926,51.6405168 20.7001644,51.5016561 21.0546939,51.5226446 C21.7869388,51.5226446 22.1583673,51.9986777 22.1583673,52.8555372 L22.1583673,55.6641322 L23.2726531,55.6641322 L23.2726531,52.8661157 C23.2266328,52.5164128 23.3385929,52.164376 23.578329,51.9049768 C23.8180651,51.6455776 24.1608784,51.5055406 24.5142857,51.5226446 C25.2677551,51.5226446 25.6285714,51.9986777 25.6285714,52.8555372 L25.6285714,55.6641322 L26.737551,55.6641322 Z M32.9457143,53.141157 L32.9457143,50.6181818 L31.8314286,50.6181818 L31.8314286,51.2317355 C31.4517568,50.7433364 30.8589827,50.4675878 30.2395918,50.4912397 C28.7743466,50.4912397 27.5865306,51.67528 27.5865306,53.1358678 C27.5865306,54.5964555 28.7743466,55.7804959 30.2395918,55.7804959 C30.8589827,55.8041478 31.4517568,55.5283991 31.8314286,55.04 L31.8314286,55.6535537 L32.935102,55.6535537 L32.9457143,53.141157 Z M28.8440816,53.141157 C28.8931606,52.3110974 29.5988467,51.6723879 30.4324113,51.7035756 C31.2659759,51.7347632 31.9216445,52.4244075 31.9081636,53.2557989 C31.8946827,54.0871904 31.2169974,54.7553518 30.3828571,54.7596694 C29.9557966,54.7696534 29.5442921,54.5997544 29.2493841,54.2916894 C28.9544761,53.9836243 28.8034794,53.5659265 28.8334694,53.141157 L28.8440816,53.141157 Z M56.5261224,50.4965289 C56.8894724,50.4955929 57.2496612,50.5638112 57.5873469,50.6975207 C57.9096732,50.8261915 58.2035276,51.0166796 58.4522449,51.2581818 C58.6977472,51.4975037 58.8926095,51.7834724 59.0253061,52.0991736 C59.3025288,52.7773371 59.3025288,53.5367125 59.0253061,54.214876 C58.8927368,54.5306459 58.6978583,54.8166385 58.4522449,55.0558678 C58.2035276,55.29737 57.9096732,55.487858 57.5873469,55.6165289 C56.8876601,55.8875444 56.1115236,55.8875444 55.4118367,55.6165289 C55.091014,55.4879858 54.7988743,55.2974403 54.5522449,55.0558678 C54.3090885,54.815701 54.1161161,54.5298591 53.9844898,54.214876 C53.7078308,53.5366026 53.7078308,52.777447 53.9844898,52.0991736 C54.1161161,51.7841905 54.3090885,51.4983486 54.5522449,51.2581818 C54.7988743,51.0166093 55.091014,50.8260638 55.4118367,50.6975207 C55.7616571,50.5529799 56.1368312,50.4792624 56.5155102,50.4806612 L56.5261224,50.4965289 Z M56.5261224,51.5543802 C56.3100213,51.5514419 56.0954574,51.5909831 55.8946939,51.6707438 C55.7055928,51.746322 55.5340362,51.8597294 55.3906122,52.0039669 C55.2442971,52.1558098 55.1305548,52.3357792 55.0563265,52.5328926 C54.8942277,52.9552095 54.8942277,53.4223112 55.0563265,53.8446281 C55.1304206,54.0418077 55.2441791,54.2218028 55.3906122,54.3735537 C55.53394,54.5179079 55.7055224,54.6313324 55.8946939,54.7067769 C56.2989345,54.864563 56.7480043,54.864563 57.1522449,54.7067769 C57.3504616,54.6337415 57.5311909,54.520244 57.6828571,54.3735537 C57.8295286,54.2219889 57.94332,54.0419417 58.0171429,53.8446281 C58.1792417,53.4223112 58.1792417,52.9552095 58.0171429,52.5328926 C57.94332,52.335579 57.8295286,52.1555318 57.6828571,52.0039669 C57.5311909,51.8572767 57.3504616,51.7437792 57.1522449,51.6707438 C56.9520803,51.5794021 56.7355586,51.529041 56.5155102,51.5226446 L56.5261224,51.5543802 Z M38.9416327,53.141157 C38.9416327,51.5543802 37.9546939,50.4965289 36.5379592,50.4965289 C35.072714,50.5169773 33.9015276,51.7175941 33.922041,53.1781818 C33.9425544,54.6387695 35.1469997,55.8062332 36.6122449,55.7857851 C37.3676587,55.8115131 38.1061534,55.5592274 38.6869388,55.0770248 L38.1563265,54.2624793 C37.7373349,54.5974366 37.2182581,54.7835614 36.6812245,54.791405 C35.9226434,54.8564364 35.2499406,54.3077927 35.1636735,53.553719 L38.9257143,53.553719 C38.9416327,53.4214876 38.9416327,53.2892562 38.9416327,53.141157 Z M35.1689796,52.6968595 C35.2115697,51.9990743 35.799684,51.4595421 36.5008163,51.4750413 C36.8343608,51.4679529 37.1570616,51.5932719 37.3978901,51.8234149 C37.6387185,52.0535579 37.7779354,52.3696614 37.784898,52.7021488 L35.1689796,52.6968595 Z M43.5844898,51.9034711 C43.0999183,51.6253385 42.5517794,51.4759901 41.9926531,51.4697521 C41.3877551,51.4697521 41.0269388,51.6919008 41.0269388,52.0621488 C41.0269388,52.4323967 41.4089796,52.4958678 41.8865306,52.5593388 L42.4171429,52.6333884 C43.5208163,52.7920661 44.1893878,53.2575207 44.1893878,54.1461157 C44.1893878,55.0347107 43.3404082,55.7963636 41.8812245,55.7963636 C41.0991652,55.8171008 40.3310575,55.5872155 39.6897959,55.1404959 L40.2204082,54.2836364 C40.7073527,54.6437446 41.3016911,54.8300494 41.9077551,54.812562 C42.6612245,54.812562 43.0644898,54.5904132 43.0644898,54.1990083 C43.0644898,53.9133884 42.7779592,53.7547107 42.1730612,53.6700826 L41.642449,53.5960331 C40.5069388,53.4373554 39.8914286,52.9295868 39.8914286,52.1044628 C39.8914286,51.0995041 40.7191837,50.4859504 42.0138776,50.4859504 C42.7385034,50.4617493 43.4548785,50.6453221 44.0779592,51.014876 L43.5844898,51.9034711 Z M48.8906122,51.6178512 L47.0918367,51.6178512 L47.0918367,53.8975207 C47.0918367,54.4264463 47.2722449,54.7438017 47.8240816,54.7438017 C48.1685184,54.7324312 48.5044344,54.6341605 48.8004082,54.4581818 L49.1187755,55.3996694 C48.7050612,55.6570329 48.2268474,55.7927073 47.7391837,55.7910744 C46.4338776,55.7910744 45.977551,55.0928926 45.977551,53.9186777 L45.977551,51.6178512 L44.9481633,51.6178512 L44.9481633,50.6128926 L45.977551,50.6128926 L45.977551,49.0790083 L47.0918367,49.0790083 L47.0918367,50.6128926 L48.8906122,50.6128926 L48.8906122,51.6178512 Z M52.7057143,50.4859504 C52.97342,50.4869816 53.2389913,50.5334877 53.4910204,50.6234711 L53.1514286,51.6813223 C52.9321201,51.5941618 52.6977054,51.5510228 52.4616327,51.5543802 C51.74,51.5543802 51.4004082,52.0198347 51.4004082,52.8555372 L51.4004082,55.6852893 L50.2967347,55.6852893 L50.2967347,50.6340496 L51.3897959,50.6340496 L51.3897959,51.2476033 C51.6657053,50.7751686 52.1787725,50.4910373 52.7269388,50.5071074 L52.7057143,50.4859504 Z M60.3359184,54.9289256 C60.4049048,54.9280831 60.473394,54.9406594 60.537551,54.9659504 C60.598488,54.990738 60.6542669,55.02661 60.7020408,55.0717355 C60.7486653,55.1173402 60.7864414,55.1711346 60.8134694,55.2304132 C60.8677835,55.3552647 60.8677835,55.4969667 60.8134694,55.6218182 C60.7864414,55.6810968 60.7486653,55.7348912 60.7020408,55.7804959 C60.6542669,55.8256214 60.598488,55.8614934 60.537551,55.886281 C60.4740274,55.9142216 60.4053512,55.9286338 60.3359184,55.928595 C60.1305978,55.9270524 59.9445986,55.8075672 59.8583673,55.6218182 C59.8046822,55.4968374 59.8046822,55.355394 59.8583673,55.2304132 C59.8853953,55.1711346 59.9231715,55.1173402 59.9697959,55.0717355 C60.0175698,55.02661 60.0733487,54.990738 60.1342857,54.9659504 C60.1901285,54.9438135 60.2493382,54.9312938 60.3093878,54.9289256 L60.3359184,54.9289256 Z M60.3359184,55.8228099 C60.3888785,55.8231306 60.4413114,55.8123169 60.4897959,55.7910744 C60.5354479,55.770757 60.5768504,55.7420468 60.6118367,55.7064463 C60.7032037,55.6147194 60.7432467,55.4839409 60.7188367,55.3569894 C60.6944267,55.2300378 60.608712,55.1232863 60.4897959,55.0717355 C60.4412635,55.0506427 60.3888628,55.0398357 60.3359184,55.04 C60.2830197,55.0402787 60.2307076,55.0510675 60.1820408,55.0717355 C60.1343678,55.0912212 60.0910738,55.1199921 60.0546939,55.1563636 C59.9171077,55.3060005 59.9171077,55.5356524 60.0546939,55.6852893 C60.128918,55.7602043 60.2302913,55.80215 60.3359184,55.8016529 L60.3359184,55.8228099 Z M60.3677551,55.1933884 C60.4172885,55.1909939 60.4660992,55.2059649 60.5057143,55.2357025 C60.5386666,55.2628871 60.5564469,55.3042427 60.5534694,55.3467769 C60.5550097,55.382297 60.5415362,55.4168331 60.5163265,55.4419835 C60.4855712,55.4698293 60.446337,55.4865905 60.404898,55.4895868 L60.5587755,55.6641322 L60.4367347,55.6641322 L60.2934694,55.4895868 L60.2457143,55.4895868 L60.2457143,55.6641322 L60.144898,55.6641322 L60.144898,55.1775207 L60.3677551,55.1933884 Z M60.2510204,55.2833058 L60.2510204,55.4102479 L60.3677551,55.4102479 C60.3885278,55.4164215 60.4106559,55.4164215 60.4314286,55.4102479 C60.4389966,55.3952768 60.4389966,55.3776157 60.4314286,55.3626446 C60.4389966,55.3476735 60.4389966,55.3300124 60.4314286,55.3150413 C60.4106559,55.3088678 60.3885278,55.3088678 60.3677551,55.3150413 L60.2510204,55.2833058 Z" id="Shape" fill="#333333"></path>
                    <g id="_Group_" transform="translate(7.959184, 7.933884)" fill="#333333">
                        <rect id="Rectangle-path" x="22.6253061" y="4.1414876" width="16.7142857" height="29.9424793"></rect>
                        <path d="M23.6865306,19.1153719 C23.6802814,13.2715331 26.3708151,7.74957713 30.982449,4.1414876 C23.150501,-1.9940222 11.9035096,-1.10033214 5.14555806,6.19449643 C-1.61239346,13.489325 -1.61239346,24.7361296 5.14555806,32.0309581 C11.9035096,39.3257867 23.150501,40.2194767 30.982449,34.0839669 C26.3722822,30.4770228 23.6819129,24.9573546 23.6865306,19.1153719 L23.6865306,19.1153719 Z" id="_Path_" stroke="#FFFFFF"></path>
                        <path d="M60.0653061,30.9104132 L60.0653061,30.3180165 L60.3146939,30.3180165 L60.3146939,30.1910744 L59.6832653,30.1910744 L59.6832653,30.3180165 L59.9326531,30.3180165 L59.9326531,30.9315702 L60.0653061,30.9104132 Z M61.2910204,30.9104132 L61.2910204,30.1699174 L61.1,30.1699174 L60.8771429,30.698843 L60.6542857,30.1699174 L60.4579592,30.1699174 L60.4579592,30.9104132 L60.5959184,30.9104132 L60.5959184,30.3550413 L60.8028571,30.8363636 L60.9461224,30.8363636 L61.1530612,30.3550413 L61.1530612,30.9157025 L61.2910204,30.9104132 Z" id="Shape"></path>
                        <path d="M61.8853061,19.1153719 C61.8835396,26.4037913 57.7082533,33.051777 51.1318874,36.2372093 C44.5555215,39.4226416 36.7319932,38.5865909 30.982449,34.0839669 C35.5906042,30.4739606 38.2811761,24.9550263 38.2811761,19.1127273 C38.2811761,13.2704283 35.5906042,7.75149391 30.982449,4.1414876 C36.7319456,-0.364374122 44.5576803,-1.20232062 51.1360334,1.9835272 C57.7143866,5.16937503 61.8904418,11.8196996 61.8906122,19.1100826 L61.8853061,19.1153719 Z" id="Shape" stroke="#FFFFFF"></path>
                    </g>
                </g>
            </g>
        </g>
    </g>
</svg>