<?xml version="1.0" encoding="UTF-8" standalone="no"?>
<svg width="110px" height="64px" viewBox="0 0 110 64" version="1.1" xmlns="http://www.w3.org/2000/svg" xmlns:xlink="http://www.w3.org/1999/xlink">
    <!-- Generator: Sketch 41.2 (35397) - http://www.bohemiancoding.com/sketch -->
    <title>masterpass-dark</title>
    <desc>Created with Sketch.</desc>
    <defs></defs>
    <g id="Others" stroke="none" stroke-width="1" fill="none" fill-rule="evenodd">
        <g id="masterpass-dark" fill="#333333">
            <g id="mp_vrt_solid_pos" transform="translate(25.000000, 8.000000)">
                <g id="Layer-1">
                    <path d="M30.4414894,4.14107447 C30.2020851,4.32939894 29.9678404,4.52339894 29.7387553,4.72307447 C25.8247021,8.12839362 23.3470745,13.1419521 23.3470745,18.7369947 C23.3470745,24.3325532 25.8247021,29.3461117 29.7387553,32.7514309 C29.9678404,32.9511064 30.2020851,33.1451064 30.4414894,33.3334309 C30.6808936,33.1451064 30.9151383,32.9511064 31.1442234,32.7514309 C35.0582766,29.3461117 37.5359043,24.3325532 37.5359043,18.7369947 C37.5359043,13.1419521 35.0582766,8.12839362 31.1442234,4.72307447 C30.9151383,4.52339894 30.6808936,4.32939894 30.4414894,4.14107447 L30.4414894,4.14107447 Z M31.6385106,3.26704255 C31.7891702,3.39087234 31.9413777,3.51212234 32.0873936,3.63904787 C36.4632287,7.44578191 38.9728457,12.948984 38.9728457,18.7369947 C38.9728457,24.5255213 36.4632287,30.0282074 32.0879096,33.8354574 C31.9424096,33.961867 31.7891702,34.083633 31.6385106,34.2074628 C34.5825638,36.1681011 38.1179043,37.3114628 41.9210266,37.3114628 C52.1792926,37.3114628 60.4954947,28.9957766 60.4954947,18.7375106 C60.4954947,8.47872872 52.1792926,0.163042553 41.9210266,0.163042553 C38.1179043,0.163042553 34.5825638,1.30640426 31.6385106,3.26704255 Z M28.7955851,33.8354574 C28.9405691,33.961867 29.0938085,34.083633 29.2444681,34.2074628 C26.3004149,36.1681011 22.7645585,37.3119787 18.9619521,37.3119787 C8.70317021,37.3119787 0.387484043,28.9957766 0.387484043,18.7375106 C0.387484043,8.47924468 8.70317021,0.163042553 18.9619521,0.163042553 C22.7645585,0.163042553 26.2998989,1.30640426 29.2444681,3.26704255 C29.0938085,3.39087234 28.9416011,3.51212234 28.7955851,3.63853191 C24.41975,7.44578191 21.910133,12.948984 21.910133,18.7369947 C21.910133,24.5255213 24.41975,30.0287234 28.7955851,33.8354574 L28.7955851,33.8354574 Z M59.9134947,30.2469734 L59.9134947,29.5261809 L59.7251702,29.5261809 L59.508984,30.022016 L59.2922819,29.5261809 L59.1039574,29.5261809 L59.1039574,30.2469734 L59.2365585,30.2469734 L59.2365585,29.7031543 L59.4398457,30.1721596 L59.5776064,30.1721596 L59.7808936,29.7021223 L59.7808936,30.2469734 L59.9134947,30.2469734 Z M58.721117,30.2469734 L58.721117,29.6494947 L58.9625851,29.6494947 L58.9625851,29.5272128 L58.3485957,29.5272128 L58.3485957,29.6494947 L58.5895479,29.6494947 L58.5895479,30.2469734 L58.721117,30.2469734 Z M59.9134947,46.6425532 L59.9134947,45.9217606 L59.7251702,45.9217606 L59.508984,46.4175957 L59.2922819,45.9217606 L59.1039574,45.9217606 L59.1039574,46.6425532 L59.2365585,46.6425532 L59.2365585,46.098734 L59.4398457,46.5677394 L59.5776064,46.5677394 L59.7808936,46.0977021 L59.7808936,46.6425532 L59.9134947,46.6425532 Z M58.5895479,46.6425532 L58.5895479,46.0445585 L58.3485957,46.0445585 L58.3485957,45.9227926 L58.9625851,45.9227926 L58.9625851,46.0445585 L58.721117,46.0445585 L58.721117,46.6425532 L58.5895479,46.6425532 Z M57.6262553,42.2656862 C57.1283564,41.9370213 56.441617,41.7677872 55.6847074,41.7677872 C54.4804628,41.7677872 53.7039468,42.3451436 53.7039468,43.2908936 C53.7039468,44.0674096 54.2813032,44.5451862 55.3462394,44.6948138 L55.8343351,44.7644681 C56.4013723,44.8439255 56.6701862,44.9930372 56.6701862,45.2618511 C56.6701862,45.6302447 56.2919894,45.8397234 55.5851277,45.8397234 C54.8684628,45.8397234 54.3509574,45.6106383 54.0026862,45.3418245 L53.5145904,46.14775 C54.0821436,46.5661915 54.7988085,46.7653511 55.5753245,46.7653511 C56.9488032,46.7653511 57.7454415,46.1183404 57.7454415,45.2123191 C57.7454415,44.3759521 57.1180372,43.9379043 56.0830266,43.7887926 L55.5949309,43.7191383 C55.1470798,43.6592872 54.7890053,43.5695106 54.7890053,43.2511649 C54.7890053,42.9028936 55.1274734,42.6939309 55.6945106,42.6939309 C56.3017926,42.6939309 56.8894681,42.9225 57.1778883,43.1020532 L57.6262553,42.2656862 L57.6262553,42.2656862 Z M52.658617,42.2656862 C52.1607181,41.9370213 51.4739787,41.7677872 50.7175851,41.7677872 C49.5128245,41.7677872 48.7363085,42.3451436 48.7363085,43.2908936 C48.7363085,44.0674096 49.3136649,44.5451862 50.379117,44.6948138 L50.8666968,44.7644681 C51.43425,44.8439255 51.7030638,44.9930372 51.7030638,45.2618511 C51.7030638,45.6302447 51.324867,45.8397234 50.6180053,45.8397234 C49.9008245,45.8397234 49.3833191,45.6106383 49.0350479,45.3418245 L48.5474681,46.14775 C49.1145053,46.5661915 49.8316862,46.7653511 50.6082021,46.7653511 C51.9816809,46.7653511 52.7778032,46.1183404 52.7778032,45.2123191 C52.7778032,44.3759521 52.1509149,43.9379043 51.1153883,43.7887926 L50.6278085,43.7191383 C50.1799574,43.6592872 49.821367,43.5695106 49.821367,43.2511649 C49.821367,42.9028936 50.1598351,42.6939309 50.7273883,42.6939309 C51.3346702,42.6939309 51.9218298,42.9225 52.210766,43.1020532 L52.658617,42.2656862 L52.658617,42.2656862 Z M40.8024309,44.2464468 C40.8024309,45.0828138 40.255,45.7695532 39.3592979,45.7695532 C38.5028085,45.7695532 37.9254521,45.1127394 37.9254521,44.2464468 C37.9254521,43.3806702 38.5028085,42.7238564 39.3592979,42.7238564 C40.255,42.7238564 40.8024309,43.4105957 40.8024309,44.2464468 L40.8024309,44.2464468 Z M36.9502926,44.2464468 L36.9502926,48.3477926 L37.9853032,48.3477926 L37.9853032,46.0486862 C38.3139681,46.4764149 38.811867,46.7452287 39.4888032,46.7452287 C40.8225532,46.7452287 41.867883,45.6998989 41.867883,44.2464468 C41.867883,42.7935106 40.8225532,41.7481809 39.4888032,41.7481809 C38.811867,41.7481809 38.3139681,42.0169947 37.9853032,42.4447234 L37.9853032,41.867367 L36.9502926,41.867367 L36.9502926,44.2464468 Z M43.6897287,44.256766 C43.6897287,43.4203989 44.2366436,42.7336596 45.1328617,42.7336596 C45.9888351,42.7336596 46.5667074,43.3904734 46.5667074,44.256766 C46.5667074,45.1225426 45.9888351,45.7798723 45.1328617,45.7798723 C44.2366436,45.7798723 43.6897287,45.092617 43.6897287,44.256766 L43.6897287,44.256766 Z M47.541867,44.256766 L47.541867,41.8776862 L46.5068564,41.8776862 L46.5068564,42.4550426 C46.1781915,42.0267979 45.6802926,41.757984 45.0033564,41.757984 C43.6696064,41.757984 42.6242766,42.8033138 42.6242766,44.256766 C42.6242766,45.7102181 43.6696064,46.7555479 45.0033564,46.7555479 C45.6802926,46.7555479 46.1781915,46.486734 46.5068564,46.0584894 L46.5068564,46.6358457 L47.541867,46.6358457 L47.541867,44.256766 L47.541867,44.256766 Z M13.0289574,44.256766 C13.0289574,43.4203989 13.5763883,42.7336596 14.4726064,42.7336596 C15.3285798,42.7336596 15.9059362,43.3904734 15.9059362,44.256766 C15.9059362,45.1225426 15.3285798,45.7798723 14.4726064,45.7798723 C13.5763883,45.7798723 13.0289574,45.092617 13.0289574,44.256766 L13.0289574,44.256766 Z M16.8816117,44.256766 L16.8816117,41.8776862 L15.8460851,41.8776862 L15.8460851,42.4550426 C15.5179362,42.0267979 15.0200372,41.757984 14.3431011,41.757984 C13.0093511,41.757984 11.9640213,42.8033138 11.9640213,44.256766 C11.9640213,45.7102181 13.0093511,46.7555479 14.3431011,46.7555479 C15.0200372,46.7555479 15.5179362,46.486734 15.8460851,46.0584894 L15.8460851,46.6358457 L16.8816117,46.6358457 L16.8816117,44.256766 L16.8816117,44.256766 Z M29.7232766,42.6836117 C30.3898936,42.6836117 30.8181383,43.1020532 30.9275213,43.8388404 L28.4586649,43.8388404 C28.5685638,43.1515851 28.9864894,42.6836117 29.7232766,42.6836117 L29.7232766,42.6836117 Z M29.742883,41.757984 C28.3492819,41.757984 27.3736064,42.7733883 27.3736064,44.256766 C27.3736064,45.7695532 28.3890106,46.7555479 29.8125372,46.7555479 C30.5292021,46.7555479 31.1865319,46.5759947 31.7638883,46.0884149 L31.2561862,45.3217021 C30.857867,45.6405638 30.3501649,45.8196011 29.8723883,45.8196011 C29.2052553,45.8196011 28.5979734,45.5110585 28.4488617,44.6550851 L31.9826543,44.6550851 C31.9924574,44.5255798 32.0027766,44.3960745 32.0027766,44.256766 C31.9924574,42.7733883 31.0771489,41.757984 29.742883,41.757984 L29.742883,41.757984 Z M21.9983617,42.255883 C21.5004628,41.9272181 20.8137234,41.757984 20.0573298,41.757984 C18.8525691,41.757984 18.0760532,42.3353404 18.0760532,43.2810904 C18.0760532,44.0576064 18.6534096,44.535383 19.7183457,44.6844947 L20.2064415,44.7546649 C20.7739947,44.8341223 21.0428085,44.983234 21.0428085,45.2520479 C21.0428085,45.6204415 20.6640957,45.8294043 19.957234,45.8294043 C19.2405691,45.8294043 18.7230638,45.6008351 18.3747926,45.3315053 L17.8866968,46.1379468 C18.45425,46.5558723 19.1709149,46.7555479 19.9474309,46.7555479 C21.3214255,46.7555479 22.1175479,46.1080213 22.1175479,45.202516 C22.1175479,44.3661489 21.4906596,43.9281011 20.455133,43.7789894 L19.9675532,43.7093351 C19.5191862,43.649484 19.1611117,43.5597074 19.1611117,43.2413617 C19.1611117,42.8930904 19.4995798,42.6836117 20.067133,42.6836117 C20.6744149,42.6836117 21.2615745,42.9126968 21.5499947,43.09225 L21.9983617,42.255883 L21.9983617,42.255883 Z M35.3472128,41.757984 C34.75025,41.757984 34.361734,42.0366011 34.0929202,42.4550426 L34.0929202,41.8776862 L33.0677128,41.8776862 L33.0677128,46.6358457 L34.1032394,46.6358457 L34.1032394,43.9678298 C34.1032394,43.1815106 34.4417074,42.7434628 35.1186436,42.7434628 C35.3276064,42.7434628 35.5463723,42.7733883 35.7656543,42.8631649 L36.084,41.8874894 C35.8549149,41.7977128 35.5561755,41.757984 35.3472128,41.757984 L35.3472128,41.757984 Z M26.517633,41.8776862 L24.8252926,41.8776862 L24.8252926,40.4340372 L23.7799628,40.4340372 L23.7799628,41.8776862 L22.8146064,41.8776862 L22.8146064,42.8229202 L23.7799628,42.8229202 L23.7799628,44.9930372 C23.7799628,46.0982181 24.2082074,46.7555479 25.4325745,46.7555479 C25.8804255,46.7555479 26.3979309,46.6157234 26.7265957,46.3871543 L26.4278564,45.5007394 C26.1193138,45.6802926 25.7808457,45.7695532 25.5120319,45.7695532 C24.9945266,45.7695532 24.8252926,45.4512074 24.8252926,44.9734309 L24.8252926,42.8229202 L26.517633,42.8229202 L26.517633,41.8776862 L26.517633,41.8776862 Z M11.0481968,46.6358457 L11.0481968,43.649484 C11.0481968,42.5246968 10.3315319,41.7677872 9.17630319,41.757984 C8.56902128,41.7481809 7.94213298,41.9370213 7.50408511,42.6041543 C7.17593617,42.0768457 6.65791489,41.757984 5.93144681,41.757984 C5.42374468,41.757984 4.92584574,41.9076117 4.53732979,42.4648457 L4.53732979,41.8776862 L3.50231915,41.8776862 L3.50231915,46.6358457 L4.54764894,46.6358457 L4.54764894,43.9977553 C4.54764894,43.1717074 5.00581915,42.7336596 5.71216489,42.7336596 C6.39890426,42.7336596 6.74769149,43.1815106 6.74769149,43.9879521 L6.74769149,46.6358457 L7.79302128,46.6358457 L7.79302128,43.9977553 C7.79302128,43.1717074 8.27079787,42.7336596 8.95753723,42.7336596 C9.66439894,42.7336596 10.002867,43.1815106 10.002867,43.9879521 L10.002867,46.6358457 L11.0481968,46.6358457 L11.0481968,46.6358457 Z" id="Shape"></path>
                </g>
            </g>
        </g>
    </g>
</svg>