<?xml version="1.0" encoding="UTF-8" standalone="no"?>
<svg width="110px" height="64px" viewBox="0 0 110 64" version="1.1" xmlns="http://www.w3.org/2000/svg" xmlns:xlink="http://www.w3.org/1999/xlink">
    <!-- Generator: Sketch 41.2 (35397) - http://www.bohemiancoding.com/sketch -->
    <title>paypal-dark</title>
    <desc>Created with Sketch.</desc>
    <defs></defs>
    <g id="Others" stroke="none" stroke-width="1" fill="none" fill-rule="evenodd">
        <g id="paypal-dark" fill="#333333">
            <g id="paypal" transform="translate(10.000000, 21.000000)">
                <g id="Layer_1">
                    <g id="Group" transform="translate(26.333032, 4.747982)">
                        <path d="M43.2102736,0.215920148 L38.2447118,0.215920148 C37.9052835,0.215920148 37.6162896,0.466206644 37.5634004,0.806026521 L35.5553952,13.7053901 C35.5158956,13.9599724 35.7098228,14.1901365 35.9642266,14.1901365 L38.512059,14.1901365 C38.7495026,14.1901365 38.9521331,14.0151394 38.9889547,13.777062 L39.5584623,10.1202112 C39.6113515,9.78039137 39.9003454,9.53010487 40.2399969,9.53010487 L41.8112755,9.53010487 C45.0817042,9.53010487 46.9692023,7.92641732 47.4626119,4.7482084 C47.6846574,3.35818006 47.4715384,2.26591803 46.829057,1.50126679 C46.1229747,0.66042173 44.8714862,0.215920148 43.2102736,0.215920148 Z M43.7833518,4.92704907 C43.5119877,6.73286501 42.150927,6.73286501 40.8340522,6.73286501 L40.085123,6.73286501 L40.6104446,3.36134538 C40.6423567,3.15740824 40.815753,3.00728156 41.0192761,3.00728156 L41.3627213,3.00728156 C42.258937,3.00728156 43.105611,3.00728156 43.5418913,3.52458553 C43.8032131,3.83433486 43.8819891,4.29308038 43.7833518,4.92704907 Z" id="Shape"></path>
                        <path d="M7.79547006,0.215920148 L2.83013144,0.215920148 C2.49070312,0.215920148 2.20170925,0.466206644 2.14859687,0.806026521 L0.140591611,13.7053901 C0.101092063,13.9599724 0.295242382,14.1901365 0.549646249,14.1901365 L2.92051176,14.1901365 C3.25994008,14.1901365 3.54893394,13.9400761 3.60204633,13.6002562 L4.14388193,10.1202112 C4.19677116,9.78039137 4.48576502,9.53010487 4.82519334,9.53010487 L6.39647196,9.53010487 C9.66712378,9.53010487 11.5546219,7.92641732 12.0480315,4.7482084 C12.270077,3.35818006 12.056958,2.26591803 11.4146998,1.50126679 C10.7081712,0.66042173 9.45645952,0.215920148 7.79547006,0.215920148 Z M8.36854825,4.92704907 C8.09718412,6.73286501 6.73590028,6.73286501 5.41947185,6.73286501 L4.67031941,6.73286501 L5.19564108,3.36134538 C5.22755314,3.15740824 5.4007263,3.00728156 5.60447255,3.00728156 L5.94791777,3.00728156 C6.8441335,3.00728156 7.69080742,3.00728156 8.12708774,3.52458553 C8.38818644,3.83433486 8.46718554,4.29308038 8.36854825,4.92704907 Z" id="Shape"></path>
                        <path d="M22.6363651,4.869395 L20.2590279,4.869395 C20.0552817,4.869395 19.8818853,5.01952168 19.8499733,5.22345882 L19.7455338,5.89699403 L19.5792786,5.65303817 C19.0642224,4.89584804 17.9167271,4.64284841 16.7707939,4.64284841 C14.1441855,4.64284841 11.9000756,6.65961042 11.463349,9.48805131 C11.2359476,10.8991064 11.5586388,12.2477595 12.3484066,13.1889905 C13.073904,14.0538015 14.1093723,14.4137438 15.3430079,14.4137438 C17.4601391,14.4137438 18.6346369,13.0354724 18.6346369,13.0354724 L18.5284121,13.705164 C18.4884663,13.9597463 18.6826166,14.1901365 18.9372436,14.1901365 L21.0784762,14.1901365 C21.4179045,14.1901365 21.7066752,13.9400761 21.7597876,13.6004823 L23.0451966,5.35414138 C23.0849193,5.099333 22.890769,4.869395 22.6363651,4.869395 Z M19.3228663,9.55814058 C19.0932334,10.9343772 18.0146949,11.858425 16.6391287,11.858425 C15.9495603,11.858425 15.3974593,11.6336871 15.0426328,11.2081775 C14.6909307,10.7865114 14.558596,10.1855525 14.6701767,9.51631311 C14.8841883,8.15228562 15.9801334,7.19839337 17.3347224,7.19839337 C18.0097853,7.19839337 18.5580926,7.42516605 18.919837,7.8547454 C19.2840363,8.28726398 19.4270826,8.89206649 19.3228663,9.55814058 Z" id="Shape"></path>
                        <path d="M58.0511687,4.869395 L55.6738315,4.869395 C55.4700852,4.869395 55.2966889,5.01952168 55.265,5.22345882 L55.1603373,5.89699403 L54.9940822,5.65303817 C54.4790259,4.89584804 53.3315306,4.64284841 52.1855974,4.64284841 C49.5587659,4.64284841 47.3148792,6.65961042 46.8783757,9.48805131 C46.6509743,10.8991064 46.9736655,12.2477595 47.7634333,13.1889905 C48.4889307,14.0538015 49.5243991,14.4137438 50.7580346,14.4137438 C52.8751658,14.4137438 54.0496636,13.0354724 54.0496636,13.0354724 L53.9434388,13.705164 C53.903493,13.9597463 54.0976433,14.1901365 54.3522703,14.1901365 L56.4935029,14.1901365 C56.8329312,14.1901365 57.1217019,13.9400761 57.1748143,13.6004823 L58.4602233,5.35414138 C58.499946,5.099333 58.3055725,4.869395 58.0511687,4.869395 Z M54.737893,9.55814058 C54.5082601,10.9343772 53.4299447,11.858425 52.0543786,11.858425 C51.364587,11.858425 50.8127092,11.6336871 50.4576596,11.2081775 C50.1061805,10.7865114 49.9736227,10.1855525 50.0852034,9.51631311 C50.2994382,8.15228562 51.394937,7.19839337 52.749526,7.19839337 C53.4245889,7.19839337 53.9728961,7.42516605 54.3348637,7.8547454 C54.6988398,8.28726398 54.8418862,8.89206649 54.737893,9.55814058 Z" id="Shape"></path>
                        <path d="M35.2998755,4.869395 L32.9100413,4.869395 C32.6815241,4.869395 32.4677356,4.98447705 32.3391947,5.175979 L29.0426562,10.0948887 L27.6454433,5.36793314 C27.5579641,5.07220167 27.2892779,4.8691689 26.9846628,4.8691689 L24.6354439,4.8691689 C24.3518059,4.8691689 24.1522997,5.1517869 24.2435727,5.42400455 L26.8750906,13.2495838 L24.4000088,16.7875089 C24.2056353,17.0653789 24.401794,17.4495133 24.7378749,17.4495133 L27.1252544,17.4495133 C27.3515399,17.4495133 27.56332,17.3371444 27.6923072,17.1485816 L35.6399733,5.52755579 C35.8301067,5.24968577 35.6337248,4.869395 35.2998755,4.869395 Z" id="Shape"></path>
                        <path d="M60.8538513,0.570210066 L58.8157192,13.7056162 C58.7762197,13.9599724 58.97037,14.1901365 59.2245507,14.1901365 L61.2742871,14.1901365 C61.6137154,14.1901365 61.9027093,13.9400761 61.9558217,13.6002562 L63.9651659,0.700892627 C64.0048886,0.446310337 63.8107383,0.216146242 63.5563344,0.216146242 L61.2629059,0.216146242 C61.0589365,0.215920148 60.8855402,0.366272921 60.8538513,0.570210066 Z" id="Shape"></path>
                    </g>
                    <g id="Group">
                        <path d="M16.7328564,5.63969861 C17.0002037,3.91278961 16.7310711,2.73800313 15.8091919,1.67355072 C14.7942543,0.501929558 12.9607612,0 10.6148898,0 L3.80534626,0 C3.32599582,0 2.91761066,0.35338554 2.84307479,0.833383942 L0.00736432246,19.0502616 C-0.0484259992,19.4097517 0.225839222,19.7346493 0.584682571,19.7346493 L4.78859489,19.7346493 L4.49848522,21.5987976 C4.44961289,21.9132949 4.68928812,22.1974956 5.00349921,22.1974956 L8.54707728,22.1974956 C8.96639734,22.1974956 9.32345539,21.8884245 9.38884165,21.4685672 L9.42365481,21.285883 L10.0911302,16.9973245 L10.1342003,16.7603776 C10.1995866,16.3407464 10.5566447,16.0312231 10.9759647,16.0312231 L11.5059728,16.0312231 C14.9388628,16.0312231 17.6268405,14.6183592 18.4121451,10.5319291 C18.7404154,8.82446426 18.5705896,7.39916519 17.7027154,6.39711483 C17.4405009,6.09460053 17.1137927,5.84408794 16.7328564,5.63969861 L16.7328564,5.63969861" id="Shape" opacity="0.68"></path>
                        <path d="M16.7328564,5.63969861 C17.0002037,3.91278961 16.7310711,2.73800313 15.8091919,1.67355072 C14.7942543,0.501929558 12.9607612,0 10.6148898,0 L3.80534626,0 C3.32599582,0 2.91761066,0.35338554 2.84307479,0.833383942 L0.00736432246,19.0502616 C-0.0484259992,19.4097517 0.225839222,19.7346493 0.584682571,19.7346493 L4.78859489,19.7346493 L5.8445941,12.9502348 L5.81178939,13.1629896 C5.88654842,12.6832173 6.29113983,12.3296057 6.77071344,12.3296057 L8.7688996,12.3296057 C12.6929677,12.3296057 15.7656754,10.7143873 16.6632301,6.0432771 C16.6900095,5.90535952 16.7125488,5.77128554 16.7328564,5.63969861" id="Shape" opacity="0.7"></path>
                        <path d="M6.97914608,5.66253414 C7.0240015,5.37403769 7.20699375,5.13754295 7.45314065,5.01816511 C7.56494446,4.96390246 7.69013794,4.93360581 7.82113361,4.93360581 L13.1589284,4.93360581 C13.7913675,4.93360581 14.3809596,4.97565937 14.9198941,5.06361009 C15.0738754,5.08870656 15.2238398,5.11764665 15.3695641,5.15043033 C15.5150653,5.18321402 15.6565495,5.21961522 15.7933474,5.26031221 C15.8618579,5.28043461 15.9290295,5.30191358 15.9953084,5.32407083 C16.2599777,5.41315202 16.5065709,5.51805982 16.7333028,5.6399247 C17.00065,3.91301571 16.7315175,2.73822923 15.8096382,1.67377681 C14.7942543,0.501929558 12.9607612,0 10.6148898,0 L3.80534626,0 C3.32599582,0 2.91761066,0.35338554 2.84307479,0.833383942 L0.00736432246,19.0502616 C-0.0484259992,19.4097517 0.225839222,19.7346493 0.584682571,19.7346493 L4.78859489,19.7346493 L5.8445941,12.9502348 L6.97914608,5.66253414 Z" id="Shape"></path>
                    </g>
                </g>
            </g>
        </g>
    </g>
</svg>