<?xml version="1.0" encoding="UTF-8"?>
<svg width="110px" height="64px" viewBox="0 0 110 64" version="1.1" xmlns="http://www.w3.org/2000/svg" xmlns:xlink="http://www.w3.org/1999/xlink">
    <!-- Generator: Sketch 45.2 (43514) - http://www.bohemiancoding.com/sketch -->
    <title>paysafecash-dark</title>
    <desc>Created with Sketch.</desc>
    <defs></defs>
    <g id="Others" stroke="none" stroke-width="1" fill="none" fill-rule="evenodd">
        <g id="paysafecash-dark" fill-rule="nonzero">
            <g id="logo" transform="translate(5.000000, 22.000000)">
                <g id="_Group_" fill="#4D4D4D">
                    <path d="M4.71655794,10.1634424 L3.14329953,10.1634424 L3.14329953,15.6328479 L0.30564325,15.6328479 L0.30564325,1.15500975 L4.71655794,1.15500975 C8.18802179,1.15500975 9.61650182,2.52879573 9.61650182,5.73000661 C9.61650182,8.62557424 8.24271585,10.1634424 4.71655794,10.1634424 Z M4.69725415,3.61624224 L3.14329953,3.61624224 L3.14329953,7.79872881 L4.71655794,7.79872881 C6.09034391,7.79872881 6.68876122,7.43839151 6.68876122,5.70105093 C6.68876122,4.06988117 6.16434175,3.61624224 4.70047145,3.61624224 L4.69725415,3.61624224 Z" id="_Compound_Path_"></path>
                    <path d="M49.6879405,3.31059899 C49.6879405,2.60601087 50.0675816,2.19097951 51.0617265,2.19097951 C51.3787886,2.19479842 51.6942267,2.23692885 52.0011773,2.3164541 L52.0011773,0.479377307 C51.515125,0.350996066 51.0142842,0.287174013 50.5115686,0.289556763 C48.124334,0.289556763 47.0401048,1.57647571 47.0401048,3.22051466 L47.0401048,4.64899469 L45.7917934,4.64899469 L45.7917934,6.67589203 L47.0401048,6.67589203 L47.0401048,15.6264133 L49.6815059,15.6264133 L49.6815059,6.67589203 L51.7984876,6.67589203 L51.7984876,4.64899469 L49.6815059,4.64899469 L49.6879405,3.31059899 Z" id="_Path_"></path>
                    <path d="M25.9828935,4.64899469 L24.3903313,11.3055829 L24.1007746,12.734063 L24.0460805,12.734063 L23.6310491,11.3409732 L21.5140675,4.64899469 L18.512329,4.64899469 L22.7977691,15.3915506 L22.6369043,15.8870144 C22.4380599,16.5549924 21.7923877,16.9872416 21.0990361,16.9165495 C20.7363546,16.9168073 20.3781336,16.8365921 20.0501972,16.6816868 L20.0501972,18.6603247 C20.5387547,18.8280999 21.0522129,18.9118632 21.5687615,18.9080566 C23.3221886,18.9080566 24.5511962,18.0747766 25.2750881,15.7969301 L28.7819422,4.65221199 L25.9828935,4.64899469 Z" id="_Path_2"></path>
                    <path d="M14.1561084,4.44952226 C13.0535134,4.43871657 11.9598075,4.6476144 10.938811,5.06402605 L10.938811,7.31613421 C11.7990121,6.92642618 12.7358255,6.73510512 13.6799484,6.75632447 C15.0730382,6.75632447 15.6103268,7.22604988 15.6103268,8.36497315 L15.6103268,9.05347479 C15.001835,8.85964205 14.3668232,8.76194794 13.7282079,8.76391802 C11.4310575,8.76391802 10.1119656,10.1216175 10.1119656,12.1806878 C10.1119656,14.6580068 11.3409732,15.7969301 13.2584824,15.7969301 C14.2965133,15.8365886 15.2931773,15.3876731 15.9513603,14.584009 L16.0060544,14.6033127 L16.2055268,15.6328479 L18.2324242,15.6328479 L18.2324242,8.75426613 C18.2163377,5.75252769 17.1514123,4.44952226 14.1561084,4.44952226 Z M15.5942403,12.3544219 C15.5942403,13.0783138 14.8349582,13.6413408 13.9662879,13.6413408 C13.0976176,13.6413408 12.5731981,13.242396 12.5731981,12.138863 C12.5731981,11.1254143 13.0783138,10.6202986 14.2204544,10.6202986 C14.6910758,10.608558 15.1589712,10.6951241 15.5942403,10.8744651 L15.5942403,12.3544219 Z" id="_Compound_Path_2"></path>
                    <path d="M31.5970774,7.72151368 C31.5970774,7.12309637 32.0668028,6.78206285 32.9354731,6.78206285 C33.8264559,6.79186847 34.7082925,6.96300364 35.5382667,7.28717853 L35.5382667,4.97072443 C34.7071528,4.65321082 33.8251713,4.48967903 32.9354731,4.48812982 C30.3326796,4.48812982 29.0747163,5.89730607 29.0747163,7.8148153 C29.0747163,11.5758359 33.7044072,10.6556889 33.7044072,12.46381 C33.7044072,13.1523116 33.2507683,13.6027333 32.2019293,13.6027333 C31.2293629,13.5963244 30.2742237,13.3439817 29.4254017,12.8691895 L29.4254017,15.2564241 C30.3153062,15.6616181 31.2855449,15.859626 32.263058,15.8355376 C34.9945434,15.8355376 36.1527705,14.4424479 36.1527705,12.2192954 C36.1527705,8.50009964 31.5970774,9.4073775 31.5970774,7.72151368 Z" id="_Path_3"></path>
                    <path d="M41.0076722,4.44952226 C39.8988107,4.43512077 38.798297,4.64297127 37.7710711,5.06080876 L37.7710711,7.31291691 C38.6316933,6.91561977 39.5708797,6.71766479 40.518643,6.73380339 C41.9117328,6.73380339 42.4490214,7.2035288 42.4490214,8.34245207 L42.4490214,9.0309537 C41.8405296,8.83712097 41.2055178,8.73942686 40.5669025,8.74139694 C38.2697522,8.74139694 36.9506602,10.0990964 36.9506602,12.1581667 C36.9506602,14.6354857 38.1796678,15.774409 40.0971771,15.774409 C41.1324693,15.8179776 42.1286421,15.3752342 42.790055,14.5775744 L42.844749,14.5968781 L43.0442215,15.6264133 L45.0679015,15.6264133 L45.0679015,8.75426613 C45.0614669,5.75252769 43.9933242,4.44952226 41.0076722,4.44952226 Z M42.4361522,12.3544219 C42.4361522,13.0783138 41.6768701,13.6413408 40.8081998,13.6413408 C39.9395295,13.6413408 39.41511,13.242396 39.41511,12.138863 C39.41511,11.1254143 39.9202257,10.6202986 41.0623663,10.6202986 C41.5329878,10.608558 42.0008831,10.6951241 42.4361522,10.8744651 L42.4361522,12.3544219 Z" id="_Compound_Path_3"></path>
                    <path d="M60.2728488,12.9689257 C59.4271051,13.3044307 58.5252199,13.4758544 57.6153612,13.4740414 C55.8619342,13.4740414 55.0640444,12.8305819 54.9578736,10.851944 L60.7811818,10.851944 C60.8337755,10.414259 60.8584913,9.97367322 60.8551797,9.53285209 C60.8551797,5.99382499 59.301225,4.46882604 56.6726931,4.46882604 C53.6355644,4.46882604 52.2231708,6.39920446 52.2231708,9.98327372 C52.2231708,13.9083765 53.761039,15.8258857 57.2871969,15.8258857 C58.3076922,15.8367634 59.3209347,15.6533315 60.2728488,15.2853798 L60.2728488,12.9689257 Z M56.6919969,6.73058609 C57.7601396,6.73058609 58.3907299,7.30969961 58.4293375,9.02773641 L54.8903103,9.02773641 C55.0157849,7.3257861 55.4790758,6.73058609 56.6919969,6.73058609 Z" id="_Compound_Path_4"></path>
                </g>
                <path d="M68.2613982,15.893449 C67.5938703,15.8987653 66.931681,15.774195 66.311716,15.5266771 C65.7160877,15.2891034 65.1800575,14.9233287 64.7416749,14.4553171 C64.2813862,13.9536384 63.9278378,13.3636613 63.7024878,12.7211938 C63.4393215,11.9743914 63.3107813,11.1868104 63.3228467,10.3950878 C63.3090323,9.5931094 63.4488176,8.79589639 63.7346608,8.04646071 C63.9843716,7.39834797 64.3593604,6.80580004 64.8381938,6.30268554 C65.2914453,5.8312768 65.8397987,5.46168658 66.4468425,5.21845633 C67.0609631,4.97400352 67.7162394,4.84950101 68.3772209,4.85168443 C68.9896651,4.83423633 69.5977428,4.95981761 70.1531691,5.21845633 C70.6176469,5.45027425 71.0502051,5.74116963 71.440088,6.08390932 L70.5295928,7.25178826 C70.2388737,6.9861293 69.9143371,6.76003547 69.5644036,6.57937311 C69.2121086,6.40297239 68.8226549,6.31360766 68.4286977,6.31877203 C67.5102743,6.30700456 66.6386519,6.72319536 66.0704187,7.4448261 C65.7685227,7.82994226 65.5375668,8.26570805 65.3883517,8.73174505 C65.216914,9.26706311 65.1332548,9.82660153 65.1406198,10.3886532 C65.1334262,10.9457504 65.2137649,11.5005215 65.3786998,12.0326921 C65.5202053,12.4915883 65.7436609,12.921059 66.0382457,13.3003073 C66.3140147,13.6498782 66.6662014,13.9316276 67.0677809,14.1239354 C67.4804175,14.3212013 67.9327486,14.4213524 68.3900901,14.4167095 C68.8608134,14.4193024 69.3252949,14.3089743 69.7445723,14.0949798 C70.1459547,13.8929798 70.5209145,13.6422862 70.8609745,13.3485668 L71.6395604,14.5389668 C71.1711566,14.9523576 70.6373237,15.2850519 70.0598674,15.5234598 C69.4903293,15.7631743 68.8793107,15.8888758 68.2613982,15.893449 L68.2613982,15.893449 Z" id="Shape" fill="#333333"></path>
                <path d="M75.4295367,15.893449 C74.6258512,15.9227097 73.8408462,15.6468661 73.2321226,15.1212976 C72.6262155,14.5524819 72.3044054,13.7438308 72.3538004,12.9142316 C72.3245075,11.810999 72.9194372,10.7854299 73.8916686,10.2631786 C74.916914,9.64974723 76.5555908,9.22077425 78.807699,8.97625965 C78.807871,8.65211239 78.7755363,8.32876487 78.71118,8.01107044 C78.6571536,7.71256842 78.5480533,7.42672584 78.3894503,7.16813853 C78.2240116,6.91669279 77.9969546,6.71178767 77.7299043,6.57293852 C77.3970277,6.40977973 77.0290218,6.33131602 76.6585443,6.3445104 C76.0701441,6.34096558 75.4873813,6.45927081 74.9469421,6.69197852 C74.4465263,6.90429225 73.9680866,7.16506342 73.5184621,7.47056448 L72.8267432,6.23512229 C73.3980516,5.87619306 73.9998673,5.56828737 74.6252124,5.31497525 C75.3674144,5.01232261 76.1627078,4.86135907 76.9641876,4.87098821 C78.2511065,4.87098821 79.1819779,5.26457092 79.7568017,6.05173634 C80.3316255,6.83890177 80.6201098,7.88881314 80.6222547,9.20147046 L80.6222547,15.6328479 L79.1455152,15.6328479 L78.9943022,14.3781019 L78.9299563,14.3781019 C78.4342263,14.7925652 77.8948296,15.1518034 77.3213076,15.4494619 C76.7363983,15.7496206 76.0869104,15.9020514 75.4295367,15.893449 Z M75.9475216,14.4778381 C76.4459626,14.4793763 76.9369246,14.3566358 77.3760016,14.1207181 C77.8936944,13.8315102 78.3735172,13.4792079 78.8044817,13.0718792 L78.8044817,10.1344867 C78.0566214,10.2252117 77.3151875,10.3627531 76.5845465,10.5463008 C76.0779922,10.6686105 75.5900203,10.8579565 75.1335454,11.1093278 C74.802685,11.2841905 74.5223756,11.5412331 74.3195691,11.8557408 C74.1548623,12.1342256 74.0692128,12.4523524 74.0718372,12.7758878 C74.027439,13.2679521 74.229905,13.7500139 74.6123432,14.0628068 C75.0004509,14.3426183 75.4691784,14.4883191 75.9475216,14.4778381 L75.9475216,14.4778381 Z" id="Shape" fill="#333333"></path>
                <path d="M85.9018397,15.893449 C85.1676713,15.896224 84.4399541,15.7563625 83.7591196,15.4816349 C83.1169676,15.2291463 82.5178634,14.8785835 81.9831715,14.4424479 L82.8711455,13.2520478 C83.3074695,13.6089526 83.784867,13.9124564 84.293191,14.1561084 C84.8198707,14.3963761 85.3938399,14.5151284 85.9726202,14.5035765 C86.5339797,14.5454455 87.090667,14.3755698 87.5330094,14.0274165 C87.8657036,13.7349022 88.0547567,13.3121747 88.0509943,12.8691895 C88.0568518,12.614254 87.9813489,12.3640801 87.8354354,12.1549494 C87.6841869,11.9463469 87.4967635,11.7665512 87.2820602,11.6240954 C87.0408636,11.4629368 86.783078,11.3281118 86.5131262,11.2219332 L85.6476732,10.8744651 C85.2723218,10.7436283 84.8969704,10.5956327 84.5216191,10.4304781 C84.1608126,10.2740161 83.8222209,10.0706447 83.514605,9.82562615 C83.2246867,9.5941521 82.9793815,9.3117786 82.7907131,8.99234614 C82.5950074,8.6419441 82.4982549,8.24492519 82.5108082,7.84377098 C82.5078963,7.43699103 82.5923784,7.03432957 82.7585401,6.66302284 C82.921708,6.2920812 83.1657392,5.96230921 83.4727801,5.69783363 C83.8060107,5.41168697 84.1917518,5.19313678 84.6084861,5.05437416 C85.7051559,4.71430849 86.8847446,4.75627463 87.9544754,5.17341416 C88.4725841,5.38236948 88.9571459,5.66638555 89.3926073,6.01634607 L88.5496754,7.14240015 C88.2015386,6.87554603 87.8236704,6.64990474 87.4236213,6.469985 C87.018073,6.29255309 86.57933,6.20370763 86.1367024,6.20938392 C85.6092594,6.16404696 85.0850103,6.32686442 84.6760494,6.66302284 C84.3780934,6.93552622 84.2087384,7.32095482 84.2095412,7.72473097 C84.203715,7.95478868 84.2725703,8.18054367 84.4057964,8.36819045 C84.5478231,8.56806676 84.7282961,8.73760202 84.9366504,8.86687154 C85.1727444,9.01345597 85.4227675,9.13631215 85.6830634,9.23364344 L86.5613856,9.55537318 C86.936737,9.69907912 87.3153056,9.8502921 87.6970916,10.0090121 C88.0657576,10.1596348 88.4121343,10.3598839 88.7266267,10.6042121 C89.0310552,10.8447566 89.2847538,11.1432899 89.4730397,11.4825343 C89.677471,11.8684365 89.778345,12.3007535 89.7658138,12.7372803 C89.7694602,13.1545107 89.6850449,13.5678169 89.5180819,13.9502014 C89.3473952,14.3319563 89.0960457,14.6722111 88.7813208,14.9475636 C88.4265836,15.2535864 88.0141736,15.4854987 87.5683997,15.6296306 C87.031398,15.8095622 86.4681597,15.8987235 85.9018397,15.893449 Z" id="Shape" fill="#333333"></path>
                <path d="M91.4709814,15.6328479 L91.4709814,0.215558923 L93.2469295,0.215558923 L93.2469295,4.41734928 L93.1825836,6.58259041 C93.6665669,6.12283123 94.1958266,5.71322089 94.7622766,5.36001741 C95.3448202,5.01167748 96.0141024,4.83543319 96.692655,4.85168443 C97.803695,4.85168443 98.6155264,5.19808011 99.1281491,5.89087148 C99.6407718,6.58366284 99.8970832,7.60890827 99.8970832,8.96660776 L99.8970832,15.6328479 L98.1275696,15.6328479 L98.1275696,9.19825317 C98.1275696,8.20303585 97.9688496,7.4845061 97.6514096,7.04266393 C97.2895288,6.58173955 96.7199994,6.33385522 96.1360626,6.38311797 C95.6221237,6.37241137 95.1167523,6.51584274 94.6850615,6.79493204 C94.1697056,7.15067026 93.6911703,7.55699412 93.2565814,8.00785314 L93.2565814,15.6328479 L91.4709814,15.6328479 Z" id="Shape" fill="#333333"></path>
            </g>
        </g>
    </g>
</svg>