<?xml version="1.0" encoding="UTF-8"?>
<svg width="110px" height="64px" viewBox="0 0 110 64" version="1.1" xmlns="http://www.w3.org/2000/svg" xmlns:xlink="http://www.w3.org/1999/xlink">
    <!-- Generator: Sketch 45.2 (43514) - http://www.bohemiancoding.com/sketch -->
    <title>sofort-dark</title>
    <desc>Created with Sketch.</desc>
    <defs>
        <rect id="path-1" x="0" y="0" width="67.8477649" height="45.2318433" rx="5"></rect>
    </defs>
    <g id="Others" stroke="none" stroke-width="1" fill="none" fill-rule="evenodd">
        <g id="sofort-dark">
            <g id="sofort" transform="translate(21.000000, 9.000000)">
                <g id="Clipped">
                    <mask id="mask-2" fill="white">
                        <use xlink:href="#path-1"></use>
                    </mask>
                    <g id="-now-a"></g>
                    <g id="Group" mask="url(#mask-2)" fill-rule="nonzero" fill="#333333">
                        <rect id="Rectangle-path" x="0" y="0" width="67.8477649" height="45.2318433"></rect>
                    </g>
                </g>
                <path d="M20.3618682,40.4316139 C21.8997509,40.4316139 23.0757788,39.4025895 23.0757788,37.8873227 C23.0757788,36.4851356 22.0806783,35.8745057 20.8594185,35.512651 C20.0791692,35.2864917 19.5929269,35.1168723 19.5929269,34.5627822 C19.5929269,34.0991559 19.9321657,33.7373011 20.4636399,33.7373011 C20.9159583,33.7373011 21.2551971,33.9973842 21.4926643,34.3931628 L22.7704639,33.5902976 C22.3746852,32.7082767 21.4813563,32.2559582 20.5088717,32.2559582 C18.970989,32.2559582 17.9985044,33.3641384 17.9985044,34.641938 C17.9985044,35.6596544 18.6091343,36.4512117 20.124401,36.8922222 C20.9498822,37.1296894 21.4700484,37.2880008 21.4700484,37.9438625 C21.4700484,38.5544924 21.0290379,38.9389631 20.3844841,38.9389631 C19.6946985,38.9389631 19.1745323,38.4979526 18.8579094,38.090866 L17.7949611,39.1651223 C18.3603591,39.9340636 19.2876119,40.4316139 20.3618682,40.4316139 Z M26.5774773,40.4316139 C24.9491309,40.4316139 23.6260995,39.1311984 23.6260995,37.5480839 C23.6260995,35.9649694 24.9491309,34.6645539 26.5774773,34.6645539 C28.2058237,34.6645539 29.5288551,35.9649694 29.5288551,37.5480839 C29.5288551,39.1311984 28.2058237,40.4316139 26.5774773,40.4316139 Z M26.5774773,38.9841949 C27.3690346,38.9841949 27.9909724,38.3622571 27.9909724,37.5480839 C27.9909724,36.7339107 27.3690346,36.1119729 26.5774773,36.1119729 C25.78592,36.1119729 25.1639822,36.7339107 25.1639822,37.5480839 C25.1639822,38.3622571 25.78592,38.9841949 26.5774773,38.9841949 Z M33.3358685,33.8164568 L33.3358685,32.3690379 L33.1097093,32.3690379 C31.2325878,32.3690379 30.316643,33.6129135 30.316643,35.0829484 L30.316643,40.2846104 L31.8545256,40.2846104 L31.8545256,38.0004023 C31.8545256,37.242769 32.4425396,36.6999868 33.2906367,36.6773709 L33.2906367,35.207336 C32.6800068,35.207336 32.1937645,35.3882634 31.8545256,35.7501181 L31.8545256,35.1621042 C31.8545256,34.2122355 32.4764635,33.782533 33.3358685,33.8164568 Z M36.6905636,40.4316139 C35.0622172,40.4316139 33.7391858,39.1311984 33.7391858,37.5480839 C33.7391858,35.9649694 35.0622172,34.6645539 36.6905636,34.6645539 C38.3189099,34.6645539 39.6419413,35.9649694 39.6419413,37.5480839 C39.6419413,39.1311984 38.3189099,40.4316139 36.6905636,40.4316139 Z M36.6905636,38.9841949 C37.4821208,38.9841949 38.1040587,38.3622571 38.1040587,37.5480839 C38.1040587,36.7339107 37.4821208,36.1119729 36.6905636,36.1119729 C35.8990063,36.1119729 35.2770685,36.7339107 35.2770685,37.5480839 C35.2770685,38.3622571 35.8990063,38.9841949 36.6905636,38.9841949 Z M41.9676119,35.4334952 L41.9676119,34.8115574 L40.4749611,34.8115574 L40.4749611,40.2846104 L42.0128437,40.2846104 L42.0128437,37.7855511 C42.0128437,36.8809142 42.5443179,36.372056 43.4715707,36.372056 L43.4715707,34.7210937 C42.7704771,34.6984778 42.2729268,34.935945 41.9676119,35.4334952 Z M45.887705,37.4915441 L45.887705,36.1572047 C46.2269438,36.5190595 46.7131862,36.6999868 47.323816,36.6999868 L47.323816,35.2299519 C46.4870269,35.207336 45.887705,34.6532459 45.887705,33.9069205 L45.887705,33.0475155 L44.3498223,33.0475155 L44.3498223,37.5706998 C44.3498223,39.0407347 45.2657672,40.2846104 47.1428887,40.2846104 L47.3690479,40.2846104 L47.3690479,38.8371914 C46.5096429,38.8711153 45.887705,38.4414128 45.887705,37.4915441 Z M49.2084761,40.3750741 C49.7738742,40.3750741 50.2375006,39.9114477 50.2375006,39.3460497 C50.2375006,38.7806516 49.7738742,38.3170252 49.2084761,38.3170252 C48.6430781,38.3170252 48.1794517,38.7806516 48.1794517,39.3460497 C48.1794517,39.9114477 48.6430781,40.3750741 49.2084761,40.3750741 Z" id="Shape" fill="#FFFFFF" fill-rule="nonzero"></path>
                <g id="Group" transform="translate(24.736164, 2.826990)" fill-rule="nonzero" fill="#FFFFFF">
                    <path d="M6.75019627,18.1956701 C7.22917519,18.6667794 7.23941126,19.4353533 6.77314847,19.9190322 L6.67954817,20.0172253 C6.21292129,20.4944549 5.44123311,20.5061603 4.95588368,20.0389742 L2.24243299,17.3504069 C1.49541366,16.6003601 1.38812522,15.6761016 1.86354427,15.1877612 L1.95881703,15.0878417 C2.35063511,14.6845765 2.9893323,14.6420295 3.43490946,14.9926589 C3.6467476,15.1593567 3.95371589,15.1228956 4.12054232,14.9112209 C4.28736875,14.6995463 4.25087954,14.3928148 4.03904141,14.2261171 C3.20047074,13.5662369 1.99845055,13.6463097 1.25496322,14.4115791 L1.16004081,14.5111384 C0.279382729,15.4156925 0.456358934,16.9402907 1.55261092,18.0409631 L4.2733974,20.7367422 C5.15025624,21.5808568 6.53641012,21.5598308 7.38233101,20.6945868 L7.4783244,20.5939286 C8.31394023,19.7271117 8.29555363,18.3465519 7.43518214,17.5003164 C7.2430172,17.3113087 6.93389743,17.3137479 6.74474381,17.5057646 C6.55559018,17.6977813 6.55803134,18.0066625 6.75019627,18.1956701 Z M5.12615404,3.62025957 L6.23669564,12.753467 C6.26921789,13.0209333 6.51257412,13.2114135 6.78024698,13.1789163 C7.04791983,13.1464191 7.23854707,12.9032507 7.20602481,12.6357844 L6.09203786,3.47424205 L6.08102483,3.41476184 C5.89099143,2.65521476 6.36339369,1.80351894 6.99278114,1.66943836 C7.34558735,1.59417276 7.71372031,1.66354471 8.01474106,1.86196399 C8.31576173,2.06038326 8.52447248,2.37124065 8.59405708,2.72480728 L10.5277054,10.9871643 C10.5891142,11.2495172 10.8517393,11.412453 11.1142948,11.3510916 C11.3768503,11.2897301 11.539912,11.0273078 11.4785032,10.7649548 L9.54850933,2.51956672 C9.43208016,1.92637716 9.07190302,1.38992311 8.55242428,1.0475062 C8.0329456,0.705089287 7.39764969,0.585372446 6.78904071,0.715209531 C5.60535951,0.967373218 4.82762932,2.35422713 5.12615404,3.62025957 Z" id="Shape"></path>
                    <path d="M15.3326326,14.3525368 L17.5285164,3.40449369 C17.7837139,2.22601069 17.0828643,1.04281762 15.9190457,0.697189165 C14.6160086,0.367769414 13.3102793,1.13525283 12.9701188,2.41370704 L10.5389803,10.7440713 C10.4634971,11.0027321 10.6121537,11.273562 10.8710142,11.348987 C11.1298746,11.424412 11.4009137,11.27587 11.4763969,11.0172093 L13.9106648,2.67562499 C14.1166006,1.9021797 14.8950876,1.44459954 15.6603502,1.63781174 C16.3152561,1.83274043 16.7213752,2.51836168 16.5726167,3.20547409 L14.3752142,14.1608005 C14.3222268,14.4249804 14.4935975,14.682062 14.7579813,14.7350085 C15.0223651,14.787955 15.2796452,14.6167166 15.3326326,14.3525368 Z M9.80201551,24.9000904 C6.32111204,24.9000904 3.41378169,22.3467462 3.41378169,18.7183398 C3.41378169,18.4489065 3.19519419,18.2304876 2.92555284,18.2304876 C2.65591149,18.2304876 2.43732399,18.4489065 2.43732399,18.7183398 C2.43732399,22.9156435 5.80785947,25.8757947 9.80201551,25.8757947 C10.0716569,25.8757947 10.2902443,25.6573759 10.2902443,25.3879426 C10.2902443,25.1185093 10.0716569,24.9000904 9.80201551,24.9000904 Z M8.08005747,16.3661836 C8.00410684,16.6395946 7.83418748,16.8775291 7.60013611,17.0382076 L7.49576191,17.1076794 C6.93414873,17.4851587 6.17512068,17.3387413 5.79562105,16.7811676 L3.66095323,13.6045077 C3.07856731,12.7207906 3.15471772,11.791013 3.71528776,11.4065399 L3.81983942,11.3369463 C4.53889497,10.9204717 5.14983305,11.2364499 5.77788242,12.1507468 L7.56292193,14.8079931 C7.71320267,15.0317002 8.01651973,15.0913179 8.24039947,14.9411531 C8.46427929,14.7909883 8.52394306,14.4879053 8.37366231,14.2641983 L6.58578202,11.6027702 C5.70279543,10.3172965 4.60871171,9.75143457 3.30370804,10.5092289 L3.16817474,10.5984036 C2.11882891,11.3180547 1.99349155,12.8483925 2.84786853,14.1447787 L4.98658059,17.3274768 C5.66988113,18.3314202 7.03329415,18.5944243 8.03908229,17.9183909 L8.14742662,17.8462221 C8.57632245,17.5518389 8.88359593,17.1215702 9.02094115,16.6271478 C9.09306008,16.3675304 8.94090001,16.0986502 8.68108216,16.0265869 C8.4212643,15.9545236 8.15217639,16.1065663 8.08005747,16.3661836 Z" id="Shape"></path>
                    <path d="M11.3129881,17.982156 C10.2985088,18.548477 9.66774542,19.6148177 9.58941885,21.2278631 C9.57635101,21.4969798 9.78408815,21.7257274 10.0534126,21.7387851 C10.3227371,21.7518428 10.5516614,21.5442661 10.5647291,21.2751494 C10.635663,19.8143493 11.2037209,19.0257404 12.122498,18.6801573 C12.6141906,18.4952151 13.1488247,18.4583122 13.6198054,18.5083979 C13.6831102,18.5151299 13.7251661,18.5213936 13.7421691,18.5245601 C14.3708394,18.6416383 14.5621943,17.7081995 13.9380887,17.5688549 L10.18354,16.7305738 C8.42620022,16.2496888 8.16098084,15.5997053 8.48635794,14.515952 C8.62685653,14.0437357 8.91545908,13.8013561 9.350749,13.7046466 C9.63814174,13.6407959 9.96098664,13.6487354 10.2678292,13.7024649 C10.3565375,13.7179981 10.4189241,13.7327613 10.4465311,13.7406868 L16.1457332,15.0707249 C16.1834756,15.0779858 16.2100696,15.0853553 16.2566181,15.1064322 C16.3508874,15.1491172 16.4490318,15.2176966 16.5447656,15.3199123 C16.9268092,15.7278228 17.137604,16.4972933 17.0309057,17.761178 C16.6591805,22.1919058 14.5931358,24.9431254 9.69628402,24.9001093 C9.42665312,24.8977408 9.20615248,25.1142311 9.20378211,25.383654 C9.20141175,25.6530768 9.41806924,25.8734073 9.68770015,25.8757759 C15.1911166,25.9241202 17.5944419,22.7237657 18.0039288,17.8429404 C18.132189,16.3236495 17.8469155,15.2823079 17.2577096,14.6532086 C16.9328316,14.3063342 16.5899944,14.1510985 16.3269974,14.1128739 L10.6923366,12.7967237 C10.6569197,12.7859107 10.5612574,12.7632731 10.4363751,12.7414056 C10.0139993,12.6674456 9.56950199,12.6565145 9.13881484,12.7522014 C8.37450793,12.9220093 7.79779868,13.4063522 7.55073441,14.2367454 C7.08099863,15.8013179 7.58262228,17.0306666 9.94825868,17.6772508 L11.3129881,17.982156 Z" id="Shape"></path>
                </g>
            </g>
        </g>
    </g>
</svg>