<?xml version="1.0" encoding="utf-8"?>
<!-- Generator: Adobe Illustrator 25.2.1, SVG Export Plug-In . SVG Version: 6.00 Build 0)  -->
<svg version="1.1" id="Ebene_1" xmlns="http://www.w3.org/2000/svg" xmlns:xlink="http://www.w3.org/1999/xlink" x="0px" y="0px"
	 viewBox="0 0 220 128" style="enable-background:new 0 0 220 128;" xml:space="preserve">
<style type="text/css">
	.st0{fill:#5F5F5F;}
	.st1{fill:#FFFFFF;}
</style>
<g>
	<path class="st0" d="M202.24,128H17.76c-6.25,0-11.29-5.04-11.29-11.29V11.29C6.47,5.04,11.52,0,17.76,0h184.47
		c6.25,0,11.29,5.04,11.29,11.29v105.41C213.53,122.96,208.45,128,202.24,128z"/>
	<path class="st1" d="M104.32,40.8v23.04h-9.49V44.57c0-4.74-3.54-7.3-6.85-7.3c-2.9,0-5.12,1.39-7.3,4.48v22.1h-9.49V46.86
		c-0.98,0.34-1.96,0.6-2.9,0.83c-0.53,9.79-7.45,16.79-16.83,16.79c-9.79,0-16.87-7.57-16.87-17.92V28.49h9.49v18.03
		c0,3.88,1.92,8.43,7.38,8.43c5.01,0,7.04-3.84,7.34-7.49c-3.95-1.66-6.4-5.65-6.4-10.99c0-5.5,4.1-8.73,8.06-8.73
		c5.04,0,7.87,5.04,7.83,10.05c0,0,1.39-0.49,2.9-1.36v-7.94h9.49v3.05c3.24-2.64,6.25-3.84,9.71-3.84c3.84,0,7.34,1.36,9.94,3.76
		C102.93,33.88,104.32,37.19,104.32,40.8z M108.12,36.85h16.08l-16.94,20.14v6.81h30.12v-8.36h-17.05l17.05-20.41v-6.59h-29.25
		V36.85z M168.17,32.63c3.2,3.24,4.86,7.83,4.86,13.25v3.28H147.5c0.68,4.37,3.8,6.96,8.4,6.96c3.84,0,7.15-1.54,8.62-4.03
		l0.04-0.04h0.04l7.45,3.35l-0.04,0.04c-2.97,5.72-8.92,9-16.26,9c-10.58,0-17.66-7.38-17.66-18.33c0-5.16,1.88-9.9,5.31-13.29
		c3.27-3.28,7.68-5.04,12.35-5.04C160.79,27.81,165.05,29.47,168.17,32.63z M163.77,41.74c-0.79-3.65-3.77-5.84-8.02-5.84
		c-3.88,0-6.85,2.18-7.98,5.84H163.77z M196.86,28.23c-1.28-0.38-2.71-0.38-2.71-0.38c-3.12,0-6.14,1.2-8.7,3.46v-2.86h-9.49v35.35
		h9.49V41.89c1.88-3.54,4.74-5.5,8.09-5.5c0,0,1.51,0,2.45,0.3L196.86,28.23z M38.44,92.87c0-4.63,3.31-6.85,6.55-6.85
		c1.66,0,2.9,0.56,3.88,1.36v-7.15h3.69v19.24h-3.69V98.1c-0.87,0.94-2.15,1.62-4.1,1.62C41.83,99.76,38.44,97.54,38.44,92.87z
		 M48.83,93.51v-1.28c0-1.96-1.47-3.16-3.24-3.16c-1.96,0-3.43,1.32-3.43,3.8c0,2.48,1.47,3.8,3.46,3.8
		C47.4,96.67,48.83,95.5,48.83,93.51z M55.38,82.7c0-1.17,0.98-2.15,2.15-2.15c1.17,0,2.15,0.98,2.15,2.15
		c0,1.17-0.94,2.15-2.15,2.15C56.36,84.85,55.38,83.87,55.38,82.7z M55.68,99.5V86.32h3.69V99.5H55.68z M62.5,99.5V86.32h3.69v1.58
		c0.87-1.05,2.11-1.85,3.65-1.85c0.53,0,0.98,0.08,1.28,0.23l-0.49,2.9l-0.19,0.19c-0.23-0.04-0.53-0.15-0.9-0.15
		c-1.43,0-2.64,0.79-3.39,2.37v7.91H62.5L62.5,99.5z M72.17,92.87c0-4.1,3.2-6.85,6.78-6.85c3.92,0,6.63,2.52,6.63,6.78v0.98h-9.9
		c0.19,1.81,1.47,2.97,3.39,2.97c1.69,0,2.56-0.83,3.01-2.03l3.09,0.3l0.19,0.3c-1.02,2.94-3.2,4.37-6.36,4.37
		C75.03,99.76,72.17,97.01,72.17,92.87z M82.07,91.4c-0.19-1.58-1.47-2.6-3.16-2.6c-1.54,0-2.86,1.02-3.16,2.6H82.07z M87.34,92.87
		c0-4.07,3.05-6.85,6.89-6.85c3.5,0,5.87,1.92,6.48,4.89l-0.23,0.26l-3.05,0.3c-0.34-1.36-1.39-2.3-3.2-2.3
		c-1.88,0-3.31,1.28-3.31,3.65c0,2.37,1.47,3.65,3.31,3.65c1.81,0,2.71-0.87,3.2-2.3l3.05,0.3l0.23,0.23
		c-0.79,3.16-3.09,4.93-6.48,4.93C90.39,99.76,87.34,96.94,87.34,92.87z M104.1,95.73v-6.4h-2.33v-3.05h2.33v-3.76h0.49l3.2,1.09
		v2.67h2.79v3.05h-2.79v6.06c0,0.87,0.53,1.32,1.43,1.32c0.41,0,0.68-0.08,1.05-0.19l0.19,0.11v2.82c-0.79,0.19-1.39,0.26-2.33,0.26
		C105.75,99.76,104.1,98.52,104.1,95.73z M117.99,92.87c0-4.63,3.31-6.85,6.55-6.85c1.66,0,2.9,0.56,3.88,1.36v-7.15h3.69v19.24
		h-3.69V98.1c-0.87,0.94-2.15,1.62-4.1,1.62C121.38,99.76,117.99,97.54,117.99,92.87z M128.42,93.51v-1.28
		c0-1.96-1.43-3.16-3.24-3.16c-1.96,0-3.43,1.32-3.43,3.8c0,2.48,1.47,3.8,3.46,3.8C126.95,96.67,128.42,95.5,128.42,93.51z
		 M134.67,92.87c0-4.1,3.2-6.85,6.78-6.85c3.92,0,6.63,2.52,6.63,6.78v0.98h-9.9c0.19,1.81,1.47,2.97,3.39,2.97
		c1.69,0,2.56-0.83,3.01-2.03l3.09,0.3l0.19,0.3c-1.02,2.94-3.2,4.37-6.36,4.37C137.53,99.76,134.67,97.01,134.67,92.87z
		 M144.6,91.4c-0.19-1.58-1.47-2.6-3.16-2.6c-1.54,0-2.86,1.02-3.16,2.6H144.6z M154.24,98.06v1.43h-3.69V80.26h3.69v7.34
		c0.98-0.83,2.26-1.54,4.14-1.54c3.2,0,6.29,2.22,6.29,6.85s-3.28,6.85-6.21,6.85C156.46,99.76,155.15,99.01,154.24,98.06z
		 M160.91,92.87c0-2.48-1.47-3.8-3.39-3.8c-1.81,0-3.27,1.2-3.27,3.16v1.28c0,2,1.54,3.16,3.2,3.16
		C159.44,96.67,160.91,95.35,160.91,92.87z M166.78,82.7c0-1.17,0.98-2.15,2.15-2.15c1.2,0,2.15,0.98,2.15,2.15
		c0,1.17-0.94,2.15-2.15,2.15C167.76,84.85,166.78,83.87,166.78,82.7z M167.08,99.5V86.32h3.69V99.5H167.08z M175.17,95.73v-6.4
		h-2.33v-3.05h2.33v-3.76h0.49l3.2,1.09v2.67h2.79v3.05h-2.79v6.06c0,0.87,0.53,1.32,1.43,1.32c0.41,0,0.68-0.08,1.05-0.19
		l0.19,0.11v2.82c-0.79,0.19-1.39,0.26-2.33,0.26C176.83,99.76,175.17,98.52,175.17,95.73z"/>
</g>
</svg>
