<?xml version="1.0" encoding="utf-8"?>
<!-- Generator: Adobe Illustrator 25.2.1, SVG Export Plug-In . SVG Version: 6.00 Build 0)  -->
<svg version="1.1" id="Ebene_1" xmlns="http://www.w3.org/2000/svg" xmlns:xlink="http://www.w3.org/1999/xlink" x="0px" y="0px"
	 viewBox="0 0 220 128" style="enable-background:new 0 0 220 128;" xml:space="preserve">
<style type="text/css">
	.st0{fill:#5F5F5F;}
	.st1{fill:#FFFFFF;}
</style>
<g>
	<path class="st0" d="M202.24,128H17.76c-6.25,0-11.29-5.04-11.29-11.29V11.29C6.47,5.04,11.52,0,17.76,0h184.47
		c6.25,0,11.29,5.04,11.29,11.29v105.41C213.53,122.96,208.45,128,202.24,128z"/>
	<path class="st1" d="M104.31,40.8v23.04h-9.49V44.57c0-4.74-3.54-7.3-6.85-7.3c-2.9,0-5.12,1.39-7.3,4.48v22.1h-9.49V46.86
		c-0.98,0.34-1.96,0.6-2.9,0.83c-0.53,9.79-7.45,16.79-16.83,16.79c-9.79,0-16.87-7.57-16.87-17.92V28.49h9.49v18.03
		c0,3.88,1.92,8.43,7.38,8.43c5.01,0,7.04-3.84,7.34-7.49c-3.95-1.66-6.4-5.65-6.4-10.99c0-5.5,4.1-8.73,8.06-8.73
		c5.04,0,7.87,5.04,7.83,10.05c0,0,1.39-0.49,2.9-1.36v-7.94h9.49v3.05c3.24-2.64,6.25-3.84,9.71-3.84c3.84,0,7.34,1.36,9.94,3.77
		C102.92,33.88,104.31,37.19,104.31,40.8z M108.12,36.85h16.08l-16.94,20.14v6.81h30.12v-8.36h-17.05l17.05-20.4v-6.59h-29.25V36.85
		z M168.16,32.63c3.2,3.24,4.86,7.83,4.86,13.25v3.28h-25.52c0.68,4.37,3.8,6.96,8.4,6.96c3.84,0,7.15-1.54,8.62-4.03l0.04-0.04
		h0.04l7.45,3.35L172,55.45c-2.97,5.72-8.92,9-16.26,9c-10.58,0-17.66-7.38-17.66-18.33c0-5.16,1.88-9.9,5.31-13.29
		c3.27-3.27,7.68-5.04,12.35-5.04C160.78,27.82,165.04,29.47,168.16,32.63z M163.76,41.74c-0.79-3.65-3.76-5.84-8.02-5.84
		c-3.88,0-6.85,2.18-7.98,5.84H163.76z M196.85,28.23c-1.28-0.38-2.71-0.38-2.71-0.38c-3.12,0-6.14,1.2-8.7,3.46v-2.86h-9.49v35.35
		h9.49V41.9c1.88-3.54,4.74-5.5,8.09-5.5c0,0,1.51,0,2.45,0.3L196.85,28.23z M30.3,98.06v1.43h-3.69V80.26h3.69v7.34
		c0.98-0.83,2.26-1.54,4.14-1.54c3.2,0,6.29,2.22,6.29,6.85c0,4.63-3.27,6.85-6.21,6.85C32.56,99.76,31.2,99.01,30.3,98.06z
		 M36.96,92.87c0-2.48-1.47-3.8-3.39-3.8c-1.81,0-3.28,1.2-3.28,3.16v1.28c0,2,1.54,3.16,3.2,3.16
		C35.49,96.67,36.96,95.35,36.96,92.87z M42.61,92.87c0-4.63,3.31-6.85,6.55-6.85c1.66,0,2.9,0.56,3.88,1.36v-1.09h3.69v13.18h-3.69
		V98.1c-0.87,0.94-2.15,1.62-4.1,1.62C46,99.76,42.61,97.54,42.61,92.87z M53,93.51v-1.28c0-1.96-1.47-3.16-3.24-3.16
		c-1.96,0-3.43,1.32-3.43,3.8c0,2.48,1.47,3.8,3.46,3.8C51.57,96.67,53,95.5,53,93.51z M59.96,99.49V86.32h3.69v1.73
		c1.02-1.09,2.48-2,4.37-2c2.94,0,4.56,1.88,4.56,4.44v9.04h-3.69v-7.94c0-1.54-0.75-2.33-2.15-2.33c-1.28,0-2.48,0.9-3.12,2v8.32
		h-3.65V99.49z M75.74,99.49V80.26h3.69v10.35h0.15l3.77-4.29h4.37l-5.04,5.8l5.35,7.38h-4.37l-4.03-5.53h-0.15v5.53H75.74z
		 M96.82,95.73v-6.4h-2.33v-3.05h2.33v-3.76h0.49l3.2,1.09v2.67h2.79v3.05h-2.79v6.06c0,0.87,0.53,1.32,1.43,1.32
		c0.41,0,0.68-0.08,1.05-0.19l0.19,0.11v2.82c-0.79,0.19-1.39,0.26-2.33,0.26C98.52,99.76,96.82,98.52,96.82,95.73z M105.89,99.49
		V86.32h3.69v1.58c0.87-1.05,2.11-1.84,3.65-1.84c0.53,0,0.98,0.08,1.28,0.23l-0.49,2.9l-0.19,0.19c-0.23-0.04-0.53-0.15-0.9-0.15
		c-1.43,0-2.64,0.79-3.39,2.37v7.91H105.89L105.89,99.49z M115.57,92.87c0-4.63,3.31-6.85,6.55-6.85c1.66,0,2.9,0.56,3.88,1.36
		v-1.09h3.69v13.18H126V98.1c-0.87,0.94-2.15,1.62-4.1,1.62C119,99.76,115.57,97.54,115.57,92.87z M126,93.51v-1.28
		c0-1.96-1.43-3.16-3.24-3.16c-1.96,0-3.43,1.32-3.43,3.8c0,2.48,1.47,3.8,3.46,3.8C124.53,96.67,126,95.5,126,93.51z M132.96,99.49
		V86.32h3.69v1.73c1.02-1.09,2.48-2,4.37-2c2.94,0,4.56,1.88,4.56,4.44v9.04h-3.69v-7.94c0-1.54-0.75-2.33-2.15-2.33
		c-1.28,0-2.48,0.9-3.12,2v8.32h-3.65V99.49z M147.83,95.88l0.11-0.34l2.82-0.83c0.3,1.32,1.09,2.22,2.86,2.22
		c1.09,0,1.88-0.49,1.88-1.28c0-0.83-0.6-1.2-2.9-1.81c-2.67-0.64-4.18-1.84-4.18-3.99c0-2.11,1.88-3.77,4.74-3.77
		c2.79,0,4.63,1.28,5.16,3.46l-0.15,0.3l-2.79,0.68c-0.26-1.24-1.13-1.88-2.26-1.88c-0.87,0-1.54,0.41-1.54,1.02
		c0,0.83,1.02,1.17,3.43,1.84c2.6,0.72,3.95,1.77,3.95,3.92c0,2.45-2.07,4.37-5.27,4.37C150.43,99.76,148.51,98.25,147.83,95.88z
		 M162.25,99.49V89.37h-2.22v-3.05h2.22v-2.15c0-2.94,2.22-4.18,4.56-4.18c0.75,0,1.36,0.11,1.88,0.26v2.86l-0.19,0.15
		c-0.3-0.15-0.75-0.23-1.2-0.23c-0.79,0-1.36,0.41-1.36,1.36v1.96h2.71v3.05h-2.71v10.13h-3.69V99.49z M169.89,92.87
		c0-4.1,3.2-6.85,6.78-6.85c3.92,0,6.63,2.52,6.63,6.78v0.98h-9.9c0.19,1.81,1.47,2.97,3.39,2.97c1.69,0,2.56-0.83,3.01-2.03
		l3.09,0.3l0.19,0.3c-1.02,2.94-3.2,4.37-6.36,4.37C172.76,99.76,169.89,97.01,169.89,92.87z M179.8,91.4
		c-0.19-1.58-1.47-2.6-3.16-2.6c-1.54,0-2.86,1.02-3.16,2.6H179.8z M185.74,99.49V86.32h3.69v1.58c0.87-1.05,2.11-1.84,3.65-1.84
		c0.53,0,0.98,0.08,1.28,0.23l-0.49,2.9l-0.19,0.19c-0.23-0.04-0.53-0.15-0.9-0.15c-1.43,0-2.64,0.79-3.39,2.37v7.91H185.74
		L185.74,99.49z"/>
</g>
</svg>
