<?xml version="1.0" encoding="UTF-8" standalone="no"?>
<svg width="110px" height="64px" viewBox="0 0 110 64" version="1.1" xmlns="http://www.w3.org/2000/svg" xmlns:xlink="http://www.w3.org/1999/xlink">
    <!-- Generator: Sketch 41.2 (35397) - http://www.bohemiancoding.com/sketch -->
    <title>billpay</title>
    <desc>Created with Sketch.</desc>
    <defs>
        <linearGradient x1="66.8178624%" y1="99.6982606%" x2="45.3406573%" y2="24.5409782%" id="linearGradient-1">
            <stop stop-color="#2561AC" offset="0%"></stop>
            <stop stop-color="#398CCB" offset="100%"></stop>
        </linearGradient>
        <linearGradient x1="63.6977146%" y1="97.3811555%" x2="9.63392585%" y2="43.3163701%" id="linearGradient-2">
            <stop stop-color="#333333" offset="0%"></stop>
            <stop stop-color="#666666" offset="100%"></stop>
        </linearGradient>
        <linearGradient x1="67.7830797%" y1="99.9997299%" x2="67.7830797%" y2="0%" id="linearGradient-3">
            <stop stop-color="#333333" offset="0%"></stop>
            <stop stop-color="#666666" offset="100%"></stop>
        </linearGradient>
        <linearGradient x1="49.9999342%" y1="99.9988294%" x2="49.9999342%" y2="0.000900438514%" id="linearGradient-4">
            <stop stop-color="#2561AC" offset="0%"></stop>
            <stop stop-color="#398CCB" offset="100%"></stop>
        </linearGradient>
    </defs>
    <g id="Invoice-&amp;-Direct-Debit" stroke="none" stroke-width="1" fill="none" fill-rule="evenodd">
        <g id="billpay">
            <g id="billpay_logo" transform="translate(6.000000, 25.000000)">
                <g id="Ebene_1">
                    <g id="arrow_up_2_" transform="translate(3.474281, 0.000000)" fill="url(#linearGradient-1)">
                        <path d="M1.9511305,0.271290698 C1.7294199,0.135645349 1.44337076,0.0380930233 1.14213773,0.0089127907 C0.840776015,-0.0202674419 0.574157113,0.0231976744 0.38770403,0.118186047 C0.20112227,0.213174419 0.0950923592,0.359686047 0.115680691,0.53672093 C0.136397701,0.713877907 0.28913739,0.89005814 0.519340679,1.03034302 C0.749672645,1.17062791 1.05631012,1.27513953 1.38006164,1.30822674 C1.70394184,1.34131395 1.97557915,1.29552907 2.15431161,1.19602326 C2.33291539,1.09651744 2.41964374,0.943290698 2.3755075,0.761860465 C2.33175729,0.580552326 2.17284111,0.406936047 1.9511305,0.271290698 Z M5.01338756,1.24730233 C4.94904902,1.06074419 4.7852431,0.874186047 4.57035239,0.721569767 C4.35546167,0.568953488 4.08781335,0.449668605 3.81450324,0.397534884 C3.26736831,0.293389535 2.88635549,0.49105814 2.98492213,0.852819767 C3.03433413,1.03376163 3.20135697,1.22434884 3.42898672,1.38453488 C3.6570025,1.54459884 3.94420973,1.67365116 4.23064491,1.73054651 C4.80364393,1.8444593 5.14206464,1.6204186 5.01338756,1.24730233 Z M7.27951955,1.86143023 C7.20578758,1.67194186 7.04893022,1.47793605 6.85153959,1.31518605 C6.65440631,1.15243605 6.41609637,1.0203314 6.17933055,0.954645349 C5.70554155,0.823273256 5.41087105,1.00323837 5.54508124,1.37476744 C5.61225067,1.56047093 5.77760071,1.76131395 5.9876017,1.93346512 C6.19760269,2.10561628 6.45096785,2.24822093 6.69236605,2.31647093 C7.17541979,2.45321512 7.42646877,2.24052907 7.27951955,1.86143023 Z M8.13959712,2.57372093 C8.32463476,2.7492907 8.54029754,2.89494767 8.73897494,2.96539535 C9.13632975,3.10665698 9.32046665,2.89726744 9.17107256,2.51865698 C9.09656854,2.32941279 8.95270756,2.13369767 8.7779641,1.96777326 C8.60322063,1.80197093 8.39695127,1.66559302 8.19737313,1.59477907 C7.79834552,1.45327326 7.57792168,1.62786628 7.72654371,2.00488953 C7.80104773,2.19364535 7.95468816,2.39815116 8.13959712,2.57372093 Z M5.15750588,2.53904651 C4.93000481,2.35334302 4.64588583,2.21171512 4.35353151,2.15494186 C4.06130587,2.0981686 3.81270176,2.13699419 3.64966791,2.24809884 C3.48689141,2.35920349 3.41019987,2.54307558 3.46295747,2.77700581 C3.51597243,3.01093605 3.69457621,3.25243605 3.93803323,3.4509593 C4.18136159,3.64936047 4.48735567,3.8027093 4.79116225,3.85984884 C5.09496883,3.91698837 5.33675305,3.86778488 5.48511772,3.74520349 C5.63335371,3.6225 5.68932824,3.42702907 5.6233169,3.19151163 C5.55730556,2.95575 5.38500695,2.72475 5.15750588,2.53904651 Z M7.95957789,3.80759302 C7.88790476,3.57525 7.72988931,3.34339535 7.52915307,3.15305233 C7.32828816,2.96258721 7.08418774,2.81253488 6.83918659,2.74465116 C6.34931296,2.60876163 6.04228946,2.85661047 6.17920187,3.32276163 C6.24778675,3.55583721 6.4169971,3.801 6.63175914,4.00465116 C6.84626383,4.20842442 7.10477608,4.36897674 7.35042061,4.43405233 C7.84158101,4.56383721 8.10279548,4.27227907 7.95957789,3.80759302 Z M9.8461125,4.43368605 C9.77688424,4.20903488 9.63778432,3.9829186 9.4661291,3.79575 C9.29460256,3.6085814 9.090006,3.45962791 8.89017051,3.3897907 C8.49088554,3.25023837 8.2666014,3.48856395 8.41071972,3.94677907 C8.48265021,4.17570349 8.63320239,4.41610465 8.81450839,4.61536047 C8.99607174,4.81473837 9.20774553,4.97162791 9.40346336,5.03536047 C9.79489903,5.16270349 9.98469771,4.88311047 9.8461125,4.43368605 Z M8.17627009,5.40310465 C7.98042358,5.18736628 7.73709523,5.02400581 7.48874847,4.96112791 C7.24053039,4.89837209 7.03451839,4.95160465 6.90519793,5.09237791 C6.77600615,5.23302907 6.72414929,5.46231977 6.78449883,5.75082558 C6.84471971,6.0392093 7.00633811,6.32930233 7.21530968,6.56030233 C7.42440993,6.79118023 7.67906187,6.96064535 7.92560714,7.01082558 C8.17215242,7.06112791 8.36581142,6.98848256 8.48303624,6.8337907 C8.60013238,6.67909884 8.64105169,6.44333721 8.58121685,6.16594186 C8.52099597,5.8886686 8.37198792,5.61896512 8.17627009,5.40310465 Z M9.95330051,7.46452326 C10.334828,7.55804651 10.5430275,7.19665116 10.433266,6.67763372 C10.3783209,6.41794186 10.2526034,6.16435465 10.091757,5.96033721 C9.93078202,5.75631977 9.73429212,5.60101744 9.53767355,5.53997093 C9.14430773,5.41787791 8.90831397,5.73898256 9.02824101,6.28266279 C9.0883332,6.55444186 9.22408752,6.82695349 9.39304052,7.04318023 C9.56173617,7.25940698 9.76272976,7.41763953 9.95330051,7.46452326 Z M10.8428451,9.21277326 C10.8119626,8.92719767 10.7091497,8.65590698 10.5661894,8.4454186 C10.4233579,8.23493023 10.2403791,8.08438953 10.0492936,8.04275581 C9.85807947,8.001 9.69671842,8.0831686 9.59171792,8.25263372 C9.48684611,8.42234302 9.4385922,8.67983721 9.47333501,8.98714535 C9.5082065,9.29445349 9.61848276,9.58540116 9.76633272,9.80382558 C9.91418268,10.02225 10.0998637,10.1671744 10.2865741,10.1868314 C10.4732846,10.2064884 10.6275684,10.1057616 10.7276792,9.92872674 C10.8277899,9.75169186 10.8734703,9.49871512 10.8428451,9.21277326 Z" id="Shape"></path>
                    </g>
                    <g id="arrow_down_2_" transform="translate(0.000000, 1.465116)" fill="url(#linearGradient-2)">
                        <path d="M0.686620878,1.54972674 C0.925188177,1.70856977 1.26489566,1.80831977 1.64565113,1.80831977 C2.02666395,1.80831977 2.36624275,1.70856977 2.60481005,1.54972674 C2.84337735,1.39088372 2.98131917,1.17392442 2.96613528,0.938284884 C2.95108006,0.702645349 2.79460874,0.493011628 2.55617012,0.342593023 C2.31747414,0.192296512 1.9960388,0.100604651 1.64565113,0.100604651 C1.29526345,0.100604651 0.974085466,0.192296512 0.73538949,0.342593023 C0.496693513,0.492889535 0.340479543,0.702645349 0.325295648,0.938284884 C0.31024043,1.17392442 0.448053579,1.39088372 0.686620878,1.54972674 Z M0.586381435,4.26763953 C0.850555473,4.47849419 1.22603518,4.6112093 1.64565113,4.6112093 C2.0656531,4.6112093 2.44087546,4.47849419 2.70492082,4.26763953 C2.96922353,4.05666279 3.1226066,3.76974419 3.10768006,3.45962791 C3.09262485,3.14951163 2.92032624,2.87431395 2.65589485,2.67774419 C2.39172081,2.48129651 2.03528531,2.36152326 1.64552245,2.36152326 C1.25588826,2.36152326 0.899452761,2.48129651 0.63502137,2.67774419 C0.370718656,2.87419186 0.198291374,3.14951163 0.183236156,3.45962791 C0.168695647,3.76986628 0.322207398,4.05666279 0.586381435,4.26763953 Z M4.40500234,4.33759884 C4.68281615,4.56969767 5.05250539,4.73086047 5.44123884,4.76187209 C5.83010096,4.79312791 6.1577128,4.68959302 6.37427632,4.50169186 C6.59071116,4.3136686 6.69867122,4.04311047 6.65311954,3.73738953 C6.60756785,3.43142442 6.42253022,3.1465814 6.1593856,2.93035465 C5.89624098,2.71412791 5.55267318,2.56468605 5.18620087,2.52976744 C4.82011459,2.49484884 4.49417556,2.58202326 4.26345756,2.75429651 C4.03248221,2.92681395 3.89801466,3.18650581 3.92091918,3.49601163 C3.94408106,3.80539535 4.12744589,4.10562209 4.40500234,4.33759884 Z M1.6457798,8.15422674 C2.09460544,8.15422674 2.49800808,7.98940116 2.78457193,7.72641279 C3.07113577,7.46354651 3.24124687,7.10483721 3.23069535,6.71511628 C3.22001515,6.32563953 3.03626429,5.97852907 2.74970044,5.73031395 C2.46300791,5.48185465 2.07363108,5.33021512 1.6457798,5.33021512 C1.21818588,5.33021512 0.828551693,5.48185465 0.541987844,5.73031395 C0.255423996,5.97865116 0.0714157772,6.32563953 0.060864257,6.71511628 C0.0504414138,7.10471512 0.220552508,7.46354651 0.507116357,7.72641279 C0.793551528,7.98940116 1.19682548,8.15422674 1.6457798,8.15422674 Z M5.67748995,8.22980233 C6.08629702,8.24506395 6.43758544,8.10001744 6.67731083,7.85790698 C6.91677887,7.61567442 7.04712875,7.27845349 7.01688963,6.90411628 C6.9867792,6.52990116 6.80495849,6.18584302 6.53409324,5.92871512 C6.26284197,5.67158721 5.90022997,5.49906977 5.50570605,5.4705 C5.11156817,5.44180814 4.75616208,5.56536628 4.50073809,5.7925814 C4.24544277,6.01979651 4.0925744,6.35347674 4.10853036,6.741 C4.12435764,7.12864535 4.3109394,7.4934593 4.59788928,7.76572674 C4.88458181,8.03775 5.26906891,8.21478488 5.67748995,8.22980233 Z M9.09772663,8.40756977 C9.42392302,8.42930233 9.69787651,8.30171512 9.87931119,8.08280233 C10.0611319,7.86376744 10.1530073,7.55450581 10.116077,7.20690698 C10.0791467,6.85943023 9.92177462,6.53356395 9.69388752,6.28388372 C9.46600042,6.03420349 9.16566813,5.85875581 8.84333205,5.81541279 C8.52099597,5.77206977 8.2357189,5.87450581 8.03768488,6.07986628 C7.83952218,6.28534884 7.7305327,6.59631977 7.76334535,6.9650407 C7.79602933,7.33388372 7.96588307,7.68477907 8.21062687,7.94825581 C8.45511331,8.21173256 8.77165892,8.38571512 9.09772663,8.40756977 Z M1.6457798,9.0124186 C1.19347988,9.0124186 0.784029424,9.18627907 0.487557441,9.4675814 C0.191471489,9.74876163 0.00810665579,10.1373837 0.00810665579,10.5662965 C0.00810665579,10.9955756 0.191471489,11.3839535 0.487557441,11.6653779 C0.784029424,11.9465581 1.19347988,12.1204186 1.6457798,12.1204186 C2.09807972,12.1204186 2.50753018,11.9465581 2.80387349,11.6653779 C3.10034547,11.3839535 3.28345295,10.9955756 3.28345295,10.5662965 C3.28345295,10.1373837 3.10034547,9.74876163 2.80387349,9.4675814 C2.5074015,9.18627907 2.09795105,9.0124186 1.6457798,9.0124186 Z M5.70476949,9.06272093 C5.29416094,9.0527093 4.91623637,9.21411628 4.63880859,9.48601744 C4.36150949,9.7579186 4.18779544,10.140436 4.18779544,10.5662965 C4.18779544,10.9924012 4.36150949,11.3751628 4.63880859,11.647064 C4.91610769,11.9192093 5.29403226,12.0803721 5.70476949,12.0703605 C6.11524936,12.0603488 6.48107829,11.8857558 6.74293614,11.6139767 C7.00466531,11.3418314 7.16473959,10.9722558 7.16473959,10.5664186 C7.16473959,10.1608256 7.00466531,9.79112791 6.74293614,9.51922674 C6.48107829,9.24720349 6.11524936,9.07273256 5.70476949,9.06272093 Z M9.1360724,9.17907558 C8.80923263,9.16491279 8.5068415,9.31056977 8.28448751,9.56122674 C8.0622622,9.81200581 7.92239022,10.1680291 7.92239022,10.5661744 C7.92239022,10.964686 8.06239088,11.3209535 8.28448751,11.5714884 C8.5068415,11.8219012 8.80923263,11.9678023 9.1360724,11.9537616 C9.46291217,11.9394767 9.75320765,11.7758721 9.96037775,11.5249709 C10.1674192,11.274314 10.2935227,10.9362384 10.2935227,10.5660523 C10.2935227,10.1964767 10.1674192,9.85827907 9.96037775,9.6075 C9.75307898,9.35696512 9.46278349,9.19323837 9.1360724,9.17907558 Z M12.4213268,9.70261047 C12.2627967,9.47625 12.0417295,9.32790698 11.7935114,9.31362209 C11.5452933,9.29921512 11.3163768,9.43009884 11.1492253,9.6564593 C10.9816877,9.88281977 10.8765585,10.2050233 10.8765585,10.5661744 C10.8765585,10.9274477 10.9816877,11.2501395 11.1490966,11.4763779 C11.3165055,11.7026163 11.5452933,11.8333779 11.7935114,11.819093 C12.0417295,11.8048081 12.2627967,11.6564651 12.4213268,11.4301047 C12.5797283,11.2036221 12.6763648,10.8987558 12.6763648,10.5661744 C12.6763648,10.2339593 12.5797283,9.92909302 12.4213268,9.70261047 Z" id="Shape"></path>
                    </g>
                    <g id="BILL_1_" transform="translate(21.360395, 0.000000)" fill="url(#linearGradient-3)">
                        <path d="M8.59678677,6.62574419 L8.59678677,6.53051163 C9.31930855,6.35909302 11.2261741,5.94006977 11.2261741,3.40737209 C11.2261741,0.0175813953 7.41270032,0.0175813953 6.16826432,0.0175813953 L0.126875597,0.0175813953 L0.126875597,13.5766221 L6.02774895,13.5766221 C7.51293976,13.5766221 11.6276466,13.5766221 11.6276466,9.93922674 C11.6275179,7.40640698 9.7810019,6.77799419 8.59678677,6.62574419 Z M3.90020217,2.68360465 L5.94745445,2.68360465 C7.03130147,2.68360465 7.51306844,2.95025581 7.51306844,3.99756977 C7.51306844,4.91168023 6.93106202,5.31165698 5.94745445,5.31165698 L3.90020217,5.31165698 L3.90020217,2.68360465 L3.90020217,2.68360465 Z M6.18820926,10.9103547 L3.90020217,10.9103547 L3.90020217,7.97768023 L6.02774895,7.97768023 C7.19189046,7.97768023 7.85419137,8.28230233 7.85419137,9.44401744 C7.85419137,10.3390814 7.19189046,10.9103547 6.18820926,10.9103547 Z M32.8789231,10.7200116 L32.8789231,0.0175813953 L28.9452649,0.0175813953 L28.9452649,13.5766221 L35.0666907,13.5766221 L35.6417486,10.7200116 L32.8789231,10.7200116 L32.8789231,10.7200116 Z M22.9049056,0.0175813953 L18.9711187,0.0175813953 L18.9711187,13.5766221 L28.2239012,13.5766221 L28.2239012,10.7200116 L22.9050342,10.7200116 L22.9050342,0.0175813953 L22.9049056,0.0175813953 Z M13.1312383,13.5766221 L17.0651538,13.5766221 L17.0651538,0.0175813953 L13.1312383,0.0175813953 L13.1312383,13.5766221 Z" id="Shape"></path>
                    </g>
                    <g id="PAY_1_" transform="translate(57.389976, 0.000000)" fill="url(#linearGradient-4)">
                        <path d="M13.2998052,3.69294767 C13.2998052,1.16012791 11.4935651,0.0174593023 8.58301833,0.0174593023 L2.82266034,0.0174593023 L0.093033526,13.5765 L3.98680185,13.5765 L4.91018854,8.98690116 L7.61974173,8.98690116 C10.7106938,8.98702326 13.2998052,7.13987791 13.2998052,3.69294767 Z M7.47922637,6.22564535 L5.45204771,6.22564535 L6.15449587,2.77883721 L7.84068027,2.77883721 C8.96454586,2.77883721 9.52660732,3.14059884 9.52660732,4.32136047 C9.52647865,5.46390698 8.6634415,6.22564535 7.47922637,6.22564535 Z M17.4933911,0.0175813953 L9.48504463,13.5766221 L13.6396414,13.5766221 L15.205384,10.7961977 L20.3836069,10.7961977 L20.7448035,13.5766221 L24.6787191,13.5766221 L22.4711351,0.0175813953 L17.4933911,0.0175813953 Z M16.6907035,8.14909884 L18.5971831,4.47373256 C18.8784712,3.94055233 19.0990237,3.36927907 19.3397785,2.7789593 L19.4402753,2.7789593 C19.4402753,3.23607558 19.4802939,3.82639535 19.5604597,4.51182558 L20.042484,8.14909884 L16.6907035,8.14909884 L16.6907035,8.14909884 Z M34.6728102,0.0175813953 L31.7222448,4.0548314 C31.320901,4.60705814 31.0598153,5.14023837 30.8592077,5.55926163 L30.7587109,5.55926163 C30.6584715,5.06417442 30.6181955,4.47373256 30.3975143,3.82639535 L29.0928575,0.0177034884 L24.8779112,0.0177034884 L28.3703357,8.5871686 L27.3667832,13.5767442 L31.2605515,13.5767442 L32.264104,8.5871686 L39.2089345,0.0177034884 L34.6728102,0.0177034884 L34.6728102,0.0175813953 Z" id="Shape"></path>
                    </g>
                </g>
            </g>
        </g>
    </g>
</svg>