<?xml version="1.0" encoding="UTF-8" standalone="no"?>
<svg width="110px" height="64px" viewBox="0 0 110 64" version="1.1" xmlns="http://www.w3.org/2000/svg" xmlns:xlink="http://www.w3.org/1999/xlink">
    <!-- Generator: Sketch 41.2 (35397) - http://www.bohemiancoding.com/sketch -->
    <title>diners</title>
    <desc>Created with Sketch.</desc>
    <defs></defs>
    <g id="Creditcards" stroke="none" stroke-width="1" fill="none" fill-rule="evenodd">
        <g id="diners">
            <g transform="translate(18.114306, 8.300000)" id="Shape">
                <g transform="translate(12.600000, 0.000000)">
                    <path d="M35.3296477,0.0451040462 C43.5583396,0.0451040462 49.2312768,7.0362312 49.2312768,15.1131965 C49.2312768,23.2152197 43.2818153,30.097763 35.3296477,30.1061156 L15.6964245,30.1061156 C7.95374496,30.1061156 0.521107768,23.2152197 0.512728244,15.1048439 C0.521107768,7.17822546 7.95374496,0.0451040462 15.6964245,0.0451040462 L35.3296477,0.0451040462" fill="#1B458E"></path>
                    <path d="M35.3296477,0.0451040462 C43.5583396,0.0451040462 49.2312768,7.0362312 49.2312768,15.1131965 C49.2312768,23.2152197 43.2818153,30.097763 35.3296477,30.1061156 L15.6964245,30.1061156 C7.95374496,30.1061156 0.521107768,23.2152197 0.512728244,15.1048439 C0.521107768,7.17822546 7.95374496,0.0451040462 15.6964245,0.0451040462 L35.3296477,0.0451040462 L35.3296477,0.0451040462 Z"></path>
                    <path d="M30.3605903,15.0797861 C30.3605903,22.6388902 23.1542003,29.6801329 15.6964245,29.6801329 C8.10457638,29.6550751 0.95684298,22.6054798 0.948463458,15.1131965 C0.95684298,7.69608672 8.10457638,0.437676301 15.6964245,0.429323699 C23.1542003,0.437676301 30.3605903,7.49562426 30.3605903,15.0797861" fill="#EEEEEE"></path>
                    <path d="M30.3605903,15.0797861 C30.3605903,22.6388902 23.1542003,29.6801329 15.6964245,29.6801329 C8.10457638,29.6550751 0.95684298,22.6054798 0.948463458,15.1131965 C0.95684298,7.69608672 8.10457638,0.437676301 15.6964245,0.429323699 C23.1542003,0.437676301 30.3605903,7.49562426 30.3605903,15.0797861 L30.3605903,15.0797861 Z"></path>
                    <path d="M24.6541349,15.0714335 C24.6625145,19.2644393 21.6375065,22.9729942 18.58736,23.5743815 L18.58736,6.54342774 C21.6375065,7.36198266 24.6625145,10.8032543 24.6541349,15.0714335" fill="#1B458E"></path>
                    <path d="M24.6541349,15.0714335 C24.6625145,19.2644393 21.6375065,22.9729942 18.58736,23.5743815 L18.58736,6.54342774 C21.6375065,7.36198266 24.6625145,10.8032543 24.6541349,15.0714335 L24.6541349,15.0714335 Z"></path>
                    <path d="M6.6800574,15.0630809 C6.67167786,10.8700751 9.6966858,7.16152026 12.7468323,6.56013294 L12.7468323,23.5994393 C9.6966858,22.7725318 6.67167786,19.3312601 6.6800574,15.0630809" fill="#1B458E"></path>
                    <path d="M6.6800574,15.0630809 C6.67167786,10.8700751 9.6966858,7.16152026 12.7468323,6.56013294 L12.7468323,23.5994393 C9.6966858,22.7725318 6.67167786,19.3312601 6.6800574,15.0630809 L6.6800574,15.0630809 Z"></path>
                </g>
                <path d="M0.399268879,45.4576456 C1.70842539,45.3907543 1.86131959,44.5593922 1.98554611,44.1102655 L4.21206778,36.1406558 C4.27895899,35.9113145 4.32673842,35.7201967 4.32673842,35.5386349 C4.32673842,35.0608405 3.98272649,34.7837198 2.77868473,34.7837198 L2.85513183,34.516155 L7.87197246,34.516155 C10.2609442,34.516155 12.7550307,35.9399821 12.7550307,39.1125366 C12.7550307,42.4857647 9.6780351,45.7347663 5.5116684,45.7347663 L0.313265896,45.7347663 L0.399268879,45.4576456 L0.399268879,45.4576456 Z M3.65782633,44.1198214 C3.6100469,44.2822715 3.59093512,44.4160539 3.59093512,44.5307245 C3.59093512,45.0371865 3.95405883,45.1996366 4.68986212,45.1996366 L5.34921832,45.1996366 C8.90400828,45.1996366 10.872521,42.1608646 10.872521,38.8545277 C10.872521,36.4464442 9.75448224,35.0512847 7.2508398,35.0512847 C6.23791584,35.0512847 6.08502162,35.3761848 5.77923323,36.5133353 L3.65782633,44.1198214 L3.65782633,44.1198214 Z M16.453159,43.9191478 C15.774691,44.7791776 14.8573258,45.8972164 13.7106194,45.8972164 C13.1181544,45.8972164 12.9174808,45.4003102 12.9174808,45.0085189 C12.9174808,44.826957 12.9461485,44.5593922 13.0130396,44.3109391 L14.3508638,39.5712192 C14.417755,39.3514338 14.4750904,39.2176514 14.4750904,39.1029807 C14.4750904,38.8163041 14.2648609,38.6442982 13.3570516,38.6442982 L13.4430546,38.3671774 C14.8955494,38.2238391 15.8798057,37.9276066 16.0327,37.9276066 C16.1473706,37.9276066 16.2142618,37.9562743 16.2142618,38.0422773 C16.2142618,38.0996126 16.1473706,38.3002862 16.1282588,38.3671774 L14.4559786,43.9669272 C14.4368668,44.0529302 14.3508638,44.406498 14.3508638,44.578504 C14.3508638,44.826957 14.4368668,44.9798512 14.6948758,44.9798512 C15.1153348,44.9798512 15.774691,44.2249361 16.19515,43.6898065 L16.453159,43.9191478 L16.453159,43.9191478 Z M16.8258386,35.6341937 C16.8258386,36.1024322 16.4149354,36.5228912 15.9371411,36.5228912 C15.4689026,36.5228912 15.0771112,36.121544 15.0771112,35.6437496 C15.0771112,35.1755112 15.5071262,34.7932757 15.9562528,34.7932757 C16.4149354,34.7932757 16.8258386,35.1563994 16.8258386,35.6341937 L16.8258386,35.6341937 Z M17.886542,39.6381104 C17.9343214,39.4852162 17.972545,39.3418779 17.972545,39.1985396 C17.972545,38.6634099 17.552086,38.6442982 16.8353944,38.6442982 L16.9213975,38.3671774 C17.6667566,38.3002862 18.2783334,38.1951715 18.7179042,38.0996126 C19.1765867,37.9944979 19.4632634,37.9276066 19.5301546,37.9276066 C19.6448252,37.9276066 19.7117164,37.9562743 19.7117164,38.0422773 C19.7117164,38.1091685 19.5970458,38.3958451 19.5492664,38.5869628 L18.7465718,41.4059495 L18.7847954,41.4346171 C19.2243662,40.7465933 19.8646106,39.8865635 20.6290816,39.2176514 C21.441332,38.5105157 22.3491412,37.9276066 23.0945004,37.9276066 C23.8398596,37.9276066 24.1265362,38.2429509 24.1265362,38.9691983 C24.1265362,39.3992132 23.7060772,40.8612639 23.5914065,41.281723 L22.8460474,43.9669272 C22.7600444,44.2727156 22.7409326,44.4256097 22.7409326,44.578504 C22.7409326,44.7600658 22.8269356,44.9798512 23.0276092,44.9798512 C23.4385123,44.9798512 24.0118655,44.1580449 24.4036569,43.5369123 L24.6712217,43.7853653 C24.0787568,44.6931746 23.2665064,45.8972164 22.1197999,45.8972164 C21.527335,45.8972164 21.3075496,45.4003102 21.3075496,45.0085189 C21.3075496,44.826957 21.355329,44.5593922 21.4222202,44.3109391 L22.3204736,41.0332699 C22.4064766,40.7274815 22.702709,39.6094427 22.702709,39.3036544 C22.702709,38.9883101 22.4064766,38.8545277 22.2535823,38.8545277 C21.4031084,38.8545277 19.8837224,40.3930255 18.985469,41.9697468 C18.6127894,42.629103 18.0872156,43.7184741 17.5711978,45.7347663 L16.0900352,45.7347663 L17.886542,39.6381104 L17.886542,39.6381104 Z M30.6245393,44.0242625 C29.7262859,45.0658542 28.4744648,45.8972164 27.0410817,45.8972164 C25.3592456,45.8972164 24.6712217,44.7218423 24.6712217,43.2120121 C24.6712217,40.7943727 27.1175288,37.9276066 29.6307271,37.9276066 C30.4716451,37.9276066 31.2647837,38.1760597 31.2647837,39.1507601 C31.2647837,41.2148317 27.9202233,42.0939733 26.2957225,42.294647 C26.2097195,42.6482148 26.1906078,43.0304503 26.1906078,43.4222416 C26.1906078,44.4447215 26.6684021,45.1423013 27.7482173,45.1423013 C28.7802532,45.1423013 29.6785065,44.4447215 30.3856421,43.7853653 L30.6245393,44.0242625 L30.6245393,44.0242625 Z M26.3721697,41.8741879 C27.8819998,41.6926261 29.9174037,40.7465933 29.9174037,38.997866 C29.9174037,38.5487393 29.6785065,38.3480657 29.2580475,38.3480657 C27.9011116,38.3480657 26.5823992,40.7179256 26.3721697,41.8741879 L26.3721697,41.8741879 Z M32.5357167,40.345246 C32.6121638,40.0299017 32.6981668,39.6381104 32.6981668,39.3227661 C32.6981668,38.6442982 32.2108166,38.6442982 31.6183516,38.6442982 L31.7043545,38.3671774 C32.516605,38.3002862 33.3097436,38.147392 34.1028822,37.9753861 C34.1888852,37.9562743 34.2748882,37.9276066 34.3226676,37.9276066 C34.4086706,37.9276066 34.4277823,37.9944979 34.4277823,38.0805008 C34.4277823,38.1951715 34.2748882,38.8163041 34.2271087,38.997866 L33.5104172,41.3868377 L33.5486407,41.3868377 C34.1888852,40.2401313 35.5458211,37.9276066 36.6447481,37.9276066 C37.0269836,37.9276066 37.2181013,38.2429509 37.2181013,38.5965187 C37.2181013,39.2367631 36.9314247,39.7910046 36.4249627,39.7910046 C36.1000625,39.7910046 35.8324977,39.4565485 35.6318241,39.2367631 C34.0837704,40.6797021 33.1281817,43.0304503 32.5834961,45.0276307 L32.3828225,45.7347663 L31.0449983,45.7347663 L32.5357167,40.345246 L32.5357167,40.345246 Z M41.6807005,40.4503608 L41.3940239,40.4503608 C41.3558004,39.4852162 40.9066737,38.3480657 39.7695232,38.3480657 C39.1961699,38.3480657 38.7088197,38.6442982 38.7088197,39.2845426 C38.7088197,39.924787 39.2821729,40.5459197 39.8364143,41.2339435 C40.3906558,41.9028556 40.9544531,42.6482148 40.9544531,43.5369123 C40.9544531,45.0945218 39.6548525,45.8972164 38.3170283,45.8972164 C37.4569985,45.8972164 36.5874128,45.5818721 36.4345186,45.5818721 C36.2816244,45.5818721 36.147842,45.7347663 36.1382861,45.8972164 L35.8516095,45.8972164 L36.1669538,43.1451209 L36.4536304,43.1451209 C36.5587451,44.2249361 36.912313,45.4863132 38.2310254,45.4863132 C39.1770581,45.4863132 39.5975172,44.8938482 39.5975172,44.1771567 C39.5975172,43.4031299 39.2917288,43.0304503 38.5368137,42.0748616 C37.9921282,41.3868377 37.3518838,40.6605903 37.3518838,39.7910046 C37.3518838,38.6347423 38.4890343,37.9276066 39.5688495,37.9276066 C39.9415291,37.9276066 40.2950969,38.0136096 40.5817735,38.0996126 C40.8875619,38.1951715 41.1264591,38.2811744 41.2793533,38.2811744 C41.4609151,38.2811744 41.6615888,38.1760597 41.7189241,37.9944979 C41.7189241,37.9753861 41.72848,37.9467184 41.7667035,37.9276066 L42.0533801,37.9276066 L41.6807005,40.4503608 L41.6807005,40.4503608 Z M55.2596159,37.6313741 L54.9824952,37.6313741 L54.9824952,37.2395828 C54.9824952,35.7297526 54.3040272,34.8219434 52.3928498,34.8219434 C49.2585189,34.8219434 46.9937737,38.6920776 46.9937737,41.4728407 C46.9937737,43.5082446 48.0449213,45.2283043 50.3287783,45.2283043 C51.9437231,45.2283043 53.2719914,44.3873862 54.3422507,43.2502357 L54.6480391,43.4891329 C53.3675503,45.0180748 51.8003848,45.9641075 49.7649809,45.9641075 C47.0319973,45.9641075 45.1112639,44.1580449 45.1112639,41.4250613 C45.1112639,37.6027065 48.6851657,34.2868137 52.4884087,34.2868137 C53.1573208,34.2868137 53.6828945,34.4014843 54.0937977,34.5257109 C54.5047009,34.6403815 54.8009333,34.7550521 54.9920511,34.7550521 C55.3742866,34.7550521 55.4985131,34.6786051 55.6514073,34.3632608 L55.928528,34.3632608 L55.2596159,37.6313741 L55.2596159,37.6313741 Z M58.4895057,43.9669272 C57.8779289,44.7122864 56.9510079,45.8972164 55.8807485,45.8972164 C55.3265071,45.8972164 55.0684982,45.5818721 55.0684982,45.0276307 C55.0684982,44.7600658 55.0876099,44.4256097 55.2596159,43.8713683 L57.4192463,36.0259851 C57.5243611,35.6628614 57.6390317,35.0703964 57.6390317,34.9079464 C57.6390317,34.5734903 57.5434729,34.4683756 56.5592165,34.4397079 L56.606996,34.1530313 C57.3427993,34.1148077 58.0499349,34.0001371 58.470394,33.8950223 C58.7952941,33.8090194 59.0819707,33.7325723 59.2348649,33.7325723 C59.3686473,33.7325723 59.4164267,33.8090194 59.4164267,33.9332459 C59.4164267,33.9810253 59.3686473,34.1530313 59.3017561,34.3823726 L56.6738872,43.6324711 C56.5783283,43.9669272 56.5114371,44.1771567 56.5114371,44.5116127 C56.5114371,44.8651805 56.6643313,44.9798512 56.8841167,44.9798512 C57.2376845,44.9798512 58.0117114,44.0051507 58.2219409,43.7375859 L58.4895057,43.9669272 L58.4895057,43.9669272 Z M64.9970646,43.9669272 C64.9397292,44.1771567 64.89195,44.4256097 64.89195,44.578504 C64.89195,44.740954 64.9779528,44.9798512 65.245518,44.9798512 C65.665977,44.9798512 66.2966652,44.2249361 66.7171242,43.6898065 L66.9751332,43.9191478 C66.3253332,44.7791776 65.4175236,45.8972164 64.2612612,45.8972164 C63.6687966,45.8972164 63.4490112,45.4003102 63.4490112,45.0085189 C63.4490112,44.826957 63.5063466,44.5593922 63.5732376,44.3109391 L64.2612612,41.9410792 L64.2325938,41.9410792 C63.4490112,43.2502357 61.6047246,45.8972164 59.8846652,45.8972164 C59.1775295,45.8972164 58.80485,45.4289779 58.80485,44.7600658 C58.80485,44.5211686 58.8335176,44.1580449 58.9577441,43.6898065 L59.9993359,39.7910046 C60.0566712,39.5903309 60.171342,39.2367631 60.171342,39.1029807 C60.171342,38.7876365 59.9706682,38.6634099 59.0246354,38.6442982 L59.1010825,38.3671774 C60.591801,38.2238391 61.5760572,37.9276066 61.7289516,37.9276066 C61.8436218,37.9276066 61.9105134,37.9562743 61.9105134,38.0422773 C61.9105134,38.1282803 61.7767308,38.5678511 61.7289516,38.7303011 L60.3911274,43.7184741 C60.3529038,43.8522565 60.238233,44.2918273 60.238233,44.492501 C60.238233,44.6645069 60.305124,44.9798512 60.725583,44.9798512 C62.2545252,44.9798512 64.5861618,41.2052759 65.2646298,38.0996126 L66.6120096,38.0996126 L64.9970646,43.9669272 L64.9970646,43.9669272 Z M69.2398788,35.4717437 C69.2685462,35.3284054 69.287658,35.2041788 69.287658,35.10862 C69.287658,34.602158 68.867199,34.5543785 68.2747338,34.4397079 L68.3225136,34.1530313 C69.1347636,34.0956959 70.0712406,34.0001371 70.644594,33.8090194 C70.740153,33.7803517 70.8452676,33.7325723 70.9121586,33.7325723 C70.998162,33.7325723 71.065053,33.7612399 71.065053,33.8950223 C71.065053,33.9810253 70.9790502,34.2485902 70.9599384,34.3537049 L69.545667,39.5234398 L69.5265552,39.5234398 L69.5552226,39.5234398 C70.3005822,38.5105157 71.0841648,37.9276066 72.3646536,37.9276066 C73.874484,37.9276066 74.686734,39.0169777 74.686734,40.431249 C74.686734,43.2502357 71.9441946,45.8972164 69.125208,45.8972164 C68.0740602,45.8972164 66.8700186,45.6009839 66.8700186,44.9607394 C66.8700186,44.8651805 66.9177978,44.6740628 66.9846894,44.4256097 L69.2398788,35.4717437 L69.2398788,35.4717437 Z M68.188731,44.6645069 C68.1696192,44.740954 68.1409518,44.8651805 68.1409518,44.9416277 C68.1409518,45.3811985 69.220767,45.4863132 69.4214406,45.4863132 C71.5237356,45.4863132 73.1577924,42.6768824 73.1577924,40.6605903 C73.1577924,39.6381104 72.7946682,38.6825217 71.6192946,38.6825217 C70.5872586,38.6825217 69.3927726,39.838784 69.0487608,41.2052759 L68.188731,44.6645069 L68.188731,44.6645069 Z" fill="#000000"></path>
            </g>
        </g>
    </g>
</svg>