<svg id="Ebene_1" data-name="Ebene 1" xmlns="http://www.w3.org/2000/svg" viewBox="0 0 220 122.22"><defs><style>.cls-1{fill:#ffb3c7;}.cls-2{fill:#0a0b09;}</style></defs><rect class="cls-1" width="220" height="122.22" rx="21.12"/><path class="cls-2" d="M199.44,74.49a5.22,5.22,0,0,0-5.21,5.25h0a5.22,5.22,0,0,0,5.2,5.26h0a5.26,5.26,0,0,0,0-10.52Zm-17.15-4.06a7.53,7.53,0,1,0-7.52,7.2A7.37,7.37,0,0,0,182.29,70.43Zm0-14h8.3v28h-8.3V82.63a14.44,14.44,0,0,1-8.24,2.56,14.77,14.77,0,0,1,0-29.53,14.45,14.45,0,0,1,8.24,2.57Zm-66.45,3.65V56.44h-8.51v28h8.53V71.35c0-4.41,4.73-6.77,8-6.77h.1V56.44A10.28,10.28,0,0,0,115.87,60.08ZM94.69,70.43a7.53,7.53,0,1,0-7.52,7.2A7.37,7.37,0,0,0,94.69,70.43Zm0-14H103v28h-8.3V82.63a14.52,14.52,0,0,1-8.24,2.56,14.77,14.77,0,0,1,0-29.53,14.45,14.45,0,0,1,8.24,2.57Zm50-.75c-3.32,0-6.46,1-8.56,3.91V56.44h-8.27v28h8.37V69.72c0-4.26,2.83-6.35,6.24-6.35,3.64,0,5.75,2.2,5.75,6.29V84.42h8.29V66.63C156.52,60.11,151.38,55.68,144.7,55.68ZM59.76,84.42h8.69V44H59.76Zm-38.19,0h9.21V44h-9.2V84.43ZM53.77,44a32.34,32.34,0,0,1-9.41,23l12.72,17.5H45.71l-13.82-19,3.57-2.7A23.3,23.3,0,0,0,44.76,44h9Z" transform="translate(0 -2.89)"/></svg>