<?xml version="1.0" encoding="UTF-8" standalone="no"?>
<svg width="110px" height="64px" viewBox="0 0 110 64" version="1.1" xmlns="http://www.w3.org/2000/svg" xmlns:xlink="http://www.w3.org/1999/xlink">
    <!-- Generator: Sketch 41.2 (35397) - http://www.bohemiancoding.com/sketch -->
    <title>klarna</title>
    <desc>Created with Sketch.</desc>
    <defs></defs>
    <g id="Invoice-&amp;-Direct-Debit" stroke="none" stroke-width="1" fill="none" fill-rule="evenodd">
        <g id="klarna" fill="#0186D3">
            <path d="M79.46146,32.7724063 C79.4976781,36.0666142 79.4752574,39.3574013 79.4752574,42.646478 C79.4752574,43.4178631 79.3838495,43.5050929 78.588774,43.5050929 C77.6695218,43.5085136 76.7468203,43.5085136 75.8258434,43.5050929 C75.1066536,43.5050929 75.0273185,43.4281254 75.0273185,42.730287 C75.0273185,39.5352816 75.0359419,36.3419868 75.0169705,33.145271 C75.0169705,32.6116299 74.9428094,32.0762783 74.8445029,31.5494787 C74.7048041,30.788356 74.183952,30.3556277 73.4406168,30.2341901 C72.088471,30.0118397 70.8742992,30.4360159 69.7446366,31.1270128 C69.5945898,31.2193738 69.5359508,31.5528995 69.5359508,31.77525 C69.5204287,34.4639804 69.5256027,37.1527108 69.5256027,39.8414412 C69.5256027,40.853991 69.51353,41.8631201 69.5307768,42.8722492 C69.5394002,43.3374748 69.3341637,43.5136448 68.8788493,43.5085136 C67.8595659,43.4914098 66.8402825,43.5050929 65.8209992,43.5016721 C65.23116,43.4982513 65.0690405,43.3340541 65.0690405,42.7354182 C65.0673158,37.6521442 65.0673158,32.5671598 65.0690405,27.4821754 C65.0690405,26.9468239 65.23116,26.7792058 65.7727082,26.775785 C66.6936851,26.7672331 67.6112126,26.7689435 68.5356388,26.7740746 C69.1185793,26.7774954 69.2186105,26.8852499 69.2324079,27.4599404 C69.2358572,27.6805804 69.2565533,27.8977997 69.2720754,28.2484294 C69.572169,28.0585763 69.7498106,27.9525322 69.9257275,27.8362258 C71.721115,26.6286916 73.7148402,26.3345048 75.806872,26.7022383 C77.7229868,27.0340536 78.7664156,28.3048721 79.1544677,30.1093318 C79.344182,30.9833402 79.4511119,31.8830044 79.46146,32.7724063 L79.46146,32.7724063 Z M97.7240519,25.6264041 L97.5119168,26.1959634 C97.4601765,26.3447672 97.4170596,26.4730463 97.3860154,26.5927735 L97.3842907,26.5927735 C97.3497972,26.4696255 97.3118544,26.339636 97.2635634,26.1959634 L97.0617764,25.6264041 L96.866888,25.6264041 L96.7858282,26.8031512 L96.930701,26.8031512 L96.9634699,26.2968763 C96.9738179,26.1172855 96.9824413,25.9223013 96.9858906,25.7769183 L96.98934,25.7769183 C97.0238335,25.9154597 97.0703998,26.0676843 97.1255894,26.2335919 L97.3187531,26.7963097 L97.436031,26.7963097 L97.6447168,26.2233296 C97.7050804,26.0608427 97.7516467,25.9137493 97.7930389,25.7769183 L97.7964883,25.7769183 C97.7964883,25.9205909 97.8068363,26.1224167 97.8171844,26.2849036 L97.8447792,26.8031512 L98,26.8031512 L97.9258389,25.6264041 L97.7240519,25.6264041 L97.7240519,25.6264041 Z M51.2578368,31.660654 C51.3561433,35.3858797 51.3371719,39.1179469 51.3595927,42.8483038 C51.3613173,43.3460268 51.1785017,43.5068033 50.6628237,43.510224 C49.7746156,43.5136448 48.8881323,43.5119344 48.0016489,43.510224 C47.2496903,43.510224 47.1565578,43.4195735 47.1186149,42.6823961 C47.1151656,42.6020078 47.0996435,42.52333 47.0789474,42.3676847 C46.5736174,42.6481883 46.1441731,42.9150089 45.692308,43.1322283 C44.1142297,43.8899302 42.4706137,43.9600562 40.8114756,43.4760163 C39.3179063,43.0347361 38.4038282,42.0153447 38.0381969,40.5170445 C37.7743215,39.4377895 37.7519007,38.3516929 37.9709345,37.2741483 C38.3124203,35.6082301 39.4455323,34.6829101 41.021886,34.2142637 C42.5482241,33.7558797 44.1194037,33.704568 45.6957574,33.7199615 C46.8236954,33.7336446 46.82542,33.7233823 46.8219707,32.5893948 C46.8219707,32.2969184 46.8426668,31.9958901 46.7892018,31.7119656 C46.6201836,30.7986183 46.0027497,30.229059 44.985191,30.229059 C43.2812113,30.229059 41.5755069,30.3008953 39.8732519,30.396677 C39.0385088,30.4462783 38.9281296,30.405229 38.9281296,29.5688491 C38.9281296,28.9821859 38.9384777,28.3938124 38.9246802,27.8105699 C38.9177815,27.4838858 39.0471322,27.2598249 39.3610232,27.1948302 C42.0049512,26.6355332 44.6626766,26.2489854 47.3445474,26.9091953 C49.7642676,27.5009896 51.1922991,29.1686182 51.2578368,31.660654 L51.2578368,31.660654 Z M46.9289006,39.2257014 C46.889233,38.8374432 46.9202772,38.4440539 46.9202772,38.0506646 C46.9202772,37.5461001 46.9392486,37.0398252 46.9064798,36.536971 C46.8978564,36.4104022 46.7236642,36.1897622 46.6322563,36.1931829 C45.6043496,36.2308115 44.5712688,36.2564673 43.5502607,36.3813257 C42.9242034,36.4600035 42.4654396,36.9132564 42.3395383,37.532417 C42.2222604,38.1122386 42.1877668,38.726268 42.2360578,39.3180623 C42.2912474,39.9680099 42.7638085,40.3477161 43.4088373,40.4571809 C44.4453674,40.6350613 45.4215339,40.4366563 46.3873524,40.0637916 C46.8012746,39.9047255 46.9789162,39.6755335 46.9289006,39.2257014 L46.9289006,39.2257014 Z M95.1560096,32.5825533 C95.164633,35.9725429 95.1611837,39.3659532 95.159459,42.7542324 C95.159459,43.426415 95.0766745,43.5050929 94.3868042,43.5050929 C93.531365,43.5085136 92.6793752,43.5085136 91.823936,43.5050929 C91.0892241,43.5050929 91.0426579,43.4606228 91.004715,42.7508117 C91.0012657,42.6670026 90.9926423,42.5866144 90.9771202,42.5062261 C90.9736708,42.4754391 90.9426267,42.4549145 90.8926111,42.3796574 C90.7839565,42.4292586 90.6873747,42.4583352 90.6097642,42.5130677 C89.4645795,43.3614203 88.1469272,43.6898148 86.7464905,43.7975693 C83.9783858,44.0199198 81.8622087,42.2154601 81.7311333,39.4634453 C81.7000891,38.7861316 81.6811177,38.0951347 81.7845982,37.4297937 C82.0364009,35.8254494 83.0315388,34.7598775 84.5699496,34.3305701 C85.7289318,34.0107275 86.9448282,33.8738964 88.1434779,33.7336446 C88.8402469,33.6498356 89.5559873,33.7096992 90.2631044,33.7199615 C90.5718214,33.7302238 90.7253175,33.6241798 90.7080708,33.3026268 C90.6839253,32.8168765 90.7270422,32.3191535 90.6442578,31.8419552 C90.4597175,30.7729624 89.8491822,30.2170863 88.7591871,30.220507 C87.0707295,30.2307694 85.3822719,30.3060264 83.6938143,30.4000978 C82.8452739,30.4445679 82.7245465,30.3778627 82.7245465,29.5124063 C82.7245465,28.9753443 82.7262712,28.436572 82.7245465,27.8995101 C82.7228219,27.4821754 82.9056375,27.2495626 83.3350818,27.1503601 C85.2994875,26.7107903 87.2828647,26.4730463 89.2903873,26.5979047 C90.1303044,26.6509267 90.9840189,26.8339382 91.7842685,27.0990484 C93.6952092,27.7301817 94.7472615,29.1224378 95.0542538,31.0722804 C95.1318642,31.5734242 95.154285,32.0814095 95.1560096,32.5825533 L95.1560096,32.5825533 Z M90.813276,39.3796363 C90.7925799,38.9383561 90.8098266,38.5004968 90.8063773,38.0609269 C90.8063773,37.5905702 90.7977539,37.1167926 90.813276,36.6447255 C90.8201747,36.3214621 90.7080708,36.1606855 90.3579616,36.1743687 C89.7353536,36.1880518 89.1075716,36.1384505 88.4866884,36.1863414 C86.4119034,36.3419868 86.0359241,37.1065303 86.0117786,38.7998147 C85.9979812,39.7952607 86.4636437,40.3323226 87.2621685,40.4657329 C88.3711351,40.647034 89.4076652,40.417842 90.4166006,39.9748515 C90.690824,39.8551243 90.8253487,39.690927 90.813276,39.3796363 L90.813276,39.3796363 Z M34.7664869,21.0032245 L31.9069745,21.0032245 C31.191234,21.0049349 31.1239717,21.0750609 31.1239717,21.7934239 L31.1239717,32.2062678 L31.1239717,42.8158064 C31.1239717,43.4024696 31.2257275,43.5016721 31.8086679,43.5050929 C32.7434422,43.5085136 33.6799412,43.5050929 34.6181648,43.5050929 C35.4994741,43.5050929 35.5805339,43.4281254 35.5805339,42.5660897 L35.5805339,24.7216087 C35.5805339,23.7432666 35.5822586,22.7666349 35.5805339,21.7882928 C35.5788092,21.1212413 35.4546326,21.0049349 34.7664869,21.0032245 L34.7664869,21.0032245 Z M95.8044877,25.7546832 L96.1666696,25.7546832 L96.1666696,26.8031512 L96.3218905,26.8031512 L96.3218905,25.7546832 L96.6840724,25.7546832 L96.6840724,25.6264041 L95.8044877,25.6264041 L95.8044877,25.7546832 L95.8044877,25.7546832 Z M62.5786087,26.5756696 C61.2954499,26.630402 60.1364678,27.0306329 59.0982129,27.7746518 C58.9567895,27.8772751 58.8153661,27.9713464 58.603231,28.1218606 C58.5859842,27.8875374 58.5670128,27.748996 58.5670128,27.6087441 C58.5532154,26.9074849 58.4290387,26.7774954 57.7357191,26.7774954 C56.8457864,26.7740746 55.9610277,26.775785 55.0728196,26.775785 C54.2604973,26.7774954 54.1259726,26.9074849 54.1259726,27.7096571 L54.1259726,34.4554284 C54.1259726,37.1817874 54.124248,39.9030151 54.1259726,42.6225325 C54.1259726,43.3443164 54.2863675,43.5050929 54.9779625,43.5050929 C55.9127368,43.5085136 56.8526851,43.5085136 57.789184,43.5050929 C58.5463167,43.5050929 58.6653193,43.3904968 58.6653193,42.6191118 C58.667044,39.0050613 58.6704933,35.3841693 58.6584206,31.7632773 C58.6584206,31.4058061 58.7636258,31.2022699 59.0947636,31.0466246 C60.1916574,30.5352185 61.316146,30.1520915 62.5492892,30.2016928 C63.0011542,30.220507 63.2201881,30.0511786 63.20984,29.5774011 C63.1908686,28.7769393 63.1943179,27.9816087 63.2081153,27.1828575 C63.2115647,26.744998 63.0149516,26.5585657 62.5786087,26.5756696 L62.5786087,26.5756696 Z M16.0330585,21.0049349 C15.1620972,20.9998038 14.291136,20.996383 13.41845,21.0066453 C12.5060965,21.0203284 12.0007665,21.5368657 12.0007665,22.4467923 L12.0007665,32.5209793 C12.0007665,35.9297831 11.9990418,39.3334558 12.0007665,42.7422597 C12.0007665,43.3391852 12.0818263,43.4212839 12.6854628,43.4212839 C13.5719462,43.4281254 14.4601542,43.4281254 15.3466376,43.4212839 C16.2779625,43.4144423 16.7453496,42.9526375 16.7453496,42.0358693 L16.7453496,21.7404019 C16.7470743,21.1451868 16.6194483,21.0100661 16.0330585,21.0049349 L16.0330585,21.0049349 Z M25.829217,36.3471179 C23.9251749,34.3733298 21.5830652,33.2872332 19.0288204,33.0358061 C18.2044253,33.022123 18.1975266,33.022123 18.2199474,33.6378629 C18.2285708,33.8653445 18.2734124,34.0894053 18.3079059,34.3134662 C18.764945,37.3151977 20.2447168,39.7080309 22.7075538,41.4953866 C24.3218503,42.6704234 26.148282,43.2827424 28.1368332,43.4674644 C28.728397,43.5239071 28.8284282,43.4828578 28.7697892,42.9081674 C28.5162619,40.4041589 27.5987343,38.1823645 25.829217,36.3471179 L25.829217,36.3471179 Z M28.1506306,21.0596674 C27.9246981,21.0955855 27.6901422,21.0819024 27.4659343,21.1161102 C24.8754713,21.524893 22.6765096,22.6623012 20.9276884,24.6104334 C19.3254646,26.392658 18.4355319,28.4947252 18.2251214,30.8687442 C18.1716565,31.4879048 18.20615,31.4896151 18.8632515,31.5734242 C19.7652569,31.3527841 20.7034805,31.2176634 21.5658184,30.8926896 C25.8723339,29.2712415 28.228241,26.1241271 28.7715139,21.608702 C28.8405009,21.0357219 28.7456437,20.9707272 28.1506306,21.0596674 L28.1506306,21.0596674 Z"></path>
        </g>
    </g>
</svg>