<?xml version="1.0" encoding="UTF-8" standalone="no"?>
<svg width="110px" height="64px" viewBox="0 0 110 64" version="1.1" xmlns="http://www.w3.org/2000/svg" xmlns:xlink="http://www.w3.org/1999/xlink">
    <!-- Generator: Sketch 41.2 (35397) - http://www.bohemiancoding.com/sketch -->
    <title>masterpass</title>
    <desc>Created with Sketch.</desc>
    <defs></defs>
    <g id="Others" stroke="none" stroke-width="1" fill="none" fill-rule="evenodd">
        <g id="masterpass">
            <g transform="translate(25.000000, 8.000000)" id="Layer-1">
                <g>
                    <path d="M59.9768636,47.5901408 L59.9768636,46.8528169 L59.787625,46.8528169 L59.5692727,47.3598592 L59.3509205,46.8528169 L59.1616818,46.8528169 L59.1616818,47.5901408 L59.2947727,47.5901408 L59.2947727,47.0338028 L59.4999545,47.5140845 L59.6385909,47.5140845 L59.8437727,47.0323944 L59.8437727,47.5901408 L59.9768636,47.5901408 Z M58.6431818,47.5901408 L58.6431818,46.978169 L58.4005682,46.978169 L58.4005682,46.8535211 L59.0188864,46.8535211 L59.0188864,46.978169 L58.7755795,46.978169 L58.7755795,47.5901408 L58.6431818,47.5901408 Z M57.6720341,43.1098592 C57.1708636,42.7732394 56.4790682,42.6 55.715875,42.6 C54.5028068,42.6 53.7202045,43.1915493 53.7202045,44.1591549 C53.7202045,44.9542254 54.3017841,45.443662 55.3748295,45.5964789 L55.8669886,45.6676056 C56.4381705,45.7492958 56.7092045,45.9021127 56.7092045,46.1767606 C56.7092045,46.5542254 56.3279545,46.7683099 55.6160568,46.7683099 C54.8937614,46.7683099 54.3724886,46.5338028 54.0210455,46.2591549 L53.5295795,47.0838028 C54.1014545,47.5119718 54.82375,47.7161972 55.6056591,47.7161972 C56.9899432,47.7161972 57.7926477,47.0535211 57.7926477,46.1260563 C57.7926477,45.2704225 57.1604659,44.821831 56.1179205,44.6690141 L55.6257614,44.5978873 C55.1745,44.5366197 54.8133523,44.4443662 54.8133523,44.1190141 C54.8133523,43.7619718 55.1543977,43.5485915 55.7262727,43.5485915 C56.3376591,43.5485915 56.9303295,43.7823944 57.2207727,43.9661972 L57.6720341,43.1098592 Z M52.6672614,43.1098592 C52.1653977,42.7732394 51.4736023,42.6 50.7111023,42.6 C49.4973409,42.6 48.7147386,43.1915493 48.7147386,44.1591549 C48.7147386,44.9542254 49.2963182,45.443662 50.3700568,45.5964789 L50.8615227,45.6676056 C51.4333977,45.7492958 51.7044318,45.9021127 51.7044318,46.1767606 C51.7044318,46.5542254 51.3231818,46.7683099 50.6105909,46.7683099 C49.8882955,46.7683099 49.3670227,46.5338028 49.0155795,46.2591549 L48.5248068,47.0838028 C49.0959886,47.5119718 49.8182841,47.7161972 50.6008864,47.7161972 C51.9851705,47.7161972 52.7871818,47.0535211 52.7871818,46.1260563 C52.7871818,45.2704225 52.1556932,44.821831 51.1117614,44.6690141 L50.6209886,44.5978873 C50.1697273,44.5366197 49.8078864,44.4443662 49.8078864,44.1190141 C49.8078864,43.7619718 50.1489318,43.5485915 50.7208068,43.5485915 C51.3328864,43.5485915 51.9248636,43.7823944 52.216,43.9661972 L52.6672614,43.1098592 Z M40.7202727,45.1380282 C40.7202727,45.993662 40.1691932,46.6964789 39.2666705,46.6964789 C38.4036591,46.6964789 37.8220795,46.0246479 37.8220795,45.1380282 C37.8220795,44.2514085 38.4036591,43.5788732 39.2666705,43.5788732 C40.1691932,43.5788732 40.7202727,44.2816901 40.7202727,45.1380282 L40.7202727,45.1380282 Z M36.8391477,45.1380282 L36.8391477,49.3359155 L37.8816932,49.3359155 L37.8816932,46.9823944 C38.2130341,47.4204225 38.7148977,47.6957746 39.3969886,47.6957746 C40.7410682,47.6957746 41.7940114,46.6253521 41.7940114,45.1380282 C41.7940114,43.65 40.7410682,42.5802817 39.3969886,42.5802817 C38.7148977,42.5802817 38.2130341,42.8556338 37.8816932,43.2929577 L37.8816932,42.7021127 L36.8391477,42.7021127 L36.8391477,45.1380282 Z M43.6295568,45.1478873 C43.6295568,44.2922535 44.1806364,43.5887324 45.0838523,43.5887324 C45.9461705,43.5887324 46.5284432,44.2612676 46.5284432,45.1478873 C46.5284432,46.034507 45.9461705,46.7070423 45.0838523,46.7070423 C44.1806364,46.7070423 43.6295568,46.0035211 43.6295568,45.1478873 L43.6295568,45.1478873 Z M47.511375,45.1478873 L47.511375,42.7126761 L46.4681364,42.7126761 L46.4681364,43.3035211 C46.1374886,42.865493 45.635625,42.5901408 44.9535341,42.5901408 C43.6094545,42.5901408 42.5565114,43.6605634 42.5565114,45.1478873 C42.5565114,46.6359155 43.6094545,47.706338 44.9535341,47.706338 C45.635625,47.706338 46.1374886,47.4309859 46.4681364,46.9922535 L46.4681364,47.5838028 L47.511375,47.5838028 L47.511375,45.1478873 Z M12.7358295,45.1478873 C12.7358295,44.2922535 13.2869091,43.5887324 14.190125,43.5887324 C15.0524432,43.5887324 15.6347159,44.2612676 15.6347159,45.1478873 C15.6347159,46.034507 15.0524432,46.7070423 14.190125,46.7070423 C13.2869091,46.7070423 12.7358295,46.0035211 12.7358295,45.1478873 L12.7358295,45.1478873 Z M16.6176477,45.1478873 L16.6176477,42.7126761 L15.5744091,42.7126761 L15.5744091,43.3035211 C15.2437614,42.865493 14.7418977,42.5901408 14.0598068,42.5901408 C12.7157273,42.5901408 11.6627841,43.6605634 11.6627841,45.1478873 C11.6627841,46.6359155 12.7157273,47.706338 14.0598068,47.706338 C14.7418977,47.706338 15.2437614,47.4309859 15.5744091,46.9922535 L15.5744091,47.5838028 L16.6176477,47.5838028 L16.6176477,45.1478873 Z M29.5572727,43.5380282 C30.2289659,43.5380282 30.660125,43.9661972 30.7703409,44.7204225 L28.2825114,44.7204225 C28.3934205,44.0169014 28.814875,43.5380282 29.5572727,43.5380282 L29.5572727,43.5380282 Z M29.5766818,42.5901408 C28.1722955,42.5901408 27.1893636,43.6295775 27.1893636,45.1478873 C27.1893636,46.6964789 28.2125,47.706338 29.6466932,47.706338 C30.3689886,47.706338 31.0316705,47.5225352 31.61325,47.0232394 L31.1016818,46.2380282 C30.7003295,46.5647887 30.1887614,46.7478873 29.707,46.7478873 C29.0353068,46.7478873 28.4232273,46.4323944 28.2728068,45.5556338 L31.8336818,45.5556338 C31.8433864,45.4232394 31.8537841,45.2908451 31.8537841,45.1478873 C31.8433864,43.6295775 30.9214545,42.5901408 29.5766818,42.5901408 L29.5766818,42.5901408 Z M21.7735341,43.1 C21.2716705,42.7633803 20.579875,42.5901408 19.817375,42.5901408 C18.6036136,42.5901408 17.8210114,43.1809859 17.8210114,44.1492958 C17.8210114,44.9443662 18.4025909,45.4330986 19.4756364,45.5866197 L19.9677955,45.6577465 C20.5396705,45.7394366 20.8107045,45.8915493 20.8107045,46.1669014 C20.8107045,46.5443662 20.4287614,46.7577465 19.7168636,46.7577465 C18.9945682,46.7577465 18.4732955,46.5239437 18.1218523,46.2485915 L17.6303864,47.0739437 C18.2022614,47.5014085 18.9245568,47.706338 19.7071591,47.706338 C21.0914432,47.706338 21.8934545,47.0429577 21.8934545,46.1161972 C21.8934545,45.2598592 21.2619659,44.8119718 20.2180341,44.6591549 L19.7272614,44.5880282 C19.2753068,44.5267606 18.9141591,44.434507 18.9141591,44.1084507 C18.9141591,43.7521127 19.2552045,43.5380282 19.8270795,43.5380282 C20.4391591,43.5380282 21.0311364,43.7725352 21.3215795,43.956338 L21.7735341,43.1 L21.7735341,43.1 Z M35.2240341,42.5901408 C34.6223523,42.5901408 34.2307045,42.8753521 33.9596705,43.3035211 L33.9596705,42.7126761 L32.9268295,42.7126761 L32.9268295,47.5838028 L33.9700682,47.5838028 L33.9700682,44.8521127 C33.9700682,44.0471831 34.3111136,43.5992958 34.9938977,43.5992958 C35.2039318,43.5992958 35.4243636,43.6295775 35.6454886,43.721831 L35.9664318,42.7225352 C35.7356023,42.6309859 35.4340682,42.5901408 35.2240341,42.5901408 L35.2240341,42.5901408 Z M26.3270455,42.7126761 L24.6218182,42.7126761 L24.6218182,41.2352113 L23.5681818,41.2352113 L23.5681818,42.7126761 L22.5956477,42.7126761 L22.5956477,43.6802817 L23.5681818,43.6802817 L23.5681818,45.9021127 C23.5681818,47.0330986 24.0000341,47.706338 25.2338977,47.706338 C25.6851591,47.706338 26.2064318,47.5626761 26.5377727,47.3288732 L26.2362386,46.421831 C25.9256932,46.6056338 25.5846477,46.6964789 25.3136136,46.6964789 C24.7923409,46.6964789 24.6218182,46.3711268 24.6218182,45.8816901 L24.6218182,43.6802817 L26.3270455,43.6802817 L26.3270455,42.7126761 L26.3270455,42.7126761 Z M10.7394659,47.5838028 L10.7394659,44.5267606 C10.7394659,43.3753521 10.0178636,42.6 8.85331818,42.5901408 C8.24193182,42.5802817 7.60975,42.7732394 7.16888636,43.456338 C6.83754545,42.9169014 6.31627273,42.5901408 5.58427273,42.5901408 C5.07270455,42.5901408 4.57084091,42.743662 4.17919318,43.3140845 L4.17919318,42.7126761 L3.13664773,42.7126761 L3.13664773,47.5838028 L4.18959091,47.5838028 L4.18959091,44.8830986 C4.18959091,44.0373239 4.65125,43.5887324 5.36314773,43.5887324 C6.05494318,43.5887324 6.40638636,44.0471831 6.40638636,44.8732394 L6.40638636,47.5838028 L7.46002273,47.5838028 L7.46002273,44.8830986 C7.46002273,44.0373239 7.94109091,43.5887324 8.63288636,43.5887324 C9.34547727,43.5887324 9.68652273,44.0471831 9.68652273,44.8732394 L9.68652273,47.5838028 L10.7394659,47.5838028 L10.7394659,47.5838028 Z" id="Shape" fill="#000000"></path>
                    <rect id="Rectangle-path" fill="#FF5F00" x="22.0923977" y="4.06549296" width="16.3764205" height="29.8971831"></rect>
                    <path d="M23.1321705,19.0140845 C23.1321705,12.9485915 25.9277727,7.54647887 30.2809545,4.06549296 C27.0971705,1.51901408 23.0801818,0 18.7145227,0 C8.37848864,0 0,8.51338028 0,19.0140845 C0,29.515493 8.37848864,38.028169 18.7145227,38.028169 C23.0801818,38.028169 27.0971705,36.5091549 30.2809545,33.9626761 C25.9277727,30.4809859 23.1321705,25.0795775 23.1321705,19.0140845" id="Shape" fill="#EB001B"></path>
                    <path d="M59.9768636,30.8211268 L59.9768636,30.0830986 L59.787625,30.0830986 L59.5692727,30.5908451 L59.3509205,30.0830986 L59.1616818,30.0830986 L59.1616818,30.8211268 L59.2947727,30.8211268 L59.2947727,30.2640845 L59.4999545,30.7443662 L59.6385909,30.7443662 L59.8437727,30.2633803 L59.8437727,30.8211268 L59.9768636,30.8211268 L59.9768636,30.8211268 Z M58.7755795,30.8211268 L58.7755795,30.2091549 L59.0188864,30.2091549 L59.0188864,30.084507 L58.4005682,30.084507 L58.4005682,30.2091549 L58.6431818,30.2091549 L58.6431818,30.8211268 L58.7755795,30.8211268 Z M60.5612159,19.0387324 C60.5619091,29.5394366 52.1827273,38.0528169 41.8473864,38.0528169 C37.4810341,38.0528169 33.4640455,36.5338028 30.2809545,33.9880282 C34.6341364,30.506338 37.4290455,25.1042254 37.4290455,19.0387324 C37.4290455,12.9739437 34.6341364,7.57183099 30.2809545,4.09014085 C33.4640455,1.5443662 37.4810341,0.0246478873 41.8473864,0.0246478873 C52.1827273,0.0246478873 60.5619091,8.53732394 60.5619091,19.0387324 L60.5612159,19.0387324 Z" id="Shape" fill="#F79E1B"></path>
                </g>
            </g>
        </g>
    </g>
</svg>