<?xml version="1.0" encoding="UTF-8" standalone="no"?>
<svg width="110px" height="64px" viewBox="0 0 110 64" version="1.1" xmlns="http://www.w3.org/2000/svg" xmlns:xlink="http://www.w3.org/1999/xlink">
    <!-- Generator: Sketch 41.2 (35397) - http://www.bohemiancoding.com/sketch -->
    <title>mastercard</title>
    <desc>Created with Sketch.</desc>
    <defs></defs>
    <g id="Creditcards" stroke="none" stroke-width="1" fill="none" fill-rule="evenodd">
        <g id="mastercard">
            <g transform="translate(23.000000, 7.000000)" id="Group">
                <g>
                    <path d="M62.5433162,48.9831522 L62.5433162,49.1108696 L62.6609231,49.1108696 C62.6888205,49.1108696 62.7107009,49.1054348 62.7265641,49.0951087 C62.7424274,49.0847826 62.7506325,49.0684783 62.7506325,49.0461957 C62.7506325,49.025 62.7424274,49.0092391 62.7265641,48.998913 C62.7107009,48.988587 62.6888205,48.9831522 62.6609231,48.9831522 L62.5433162,48.9831522 Z M62.6631111,48.8934783 C62.7249231,48.8934783 62.7725128,48.9070652 62.8058803,48.9342391 C62.8397949,48.9619565 62.8567521,48.998913 62.8567521,49.0461957 C62.8567521,49.0858696 62.8425299,49.1190217 62.8162735,49.1445652 C62.7894701,49.1701087 62.7517265,49.1858696 62.7024957,49.1918478 L62.8605812,49.3728261 L62.7364103,49.3728261 L62.590359,49.1929348 L62.5433162,49.1929348 L62.5433162,49.3728261 L62.4393846,49.3728261 L62.4393846,48.8934783 L62.6631111,48.8934783 L62.6631111,48.8934783 Z M62.6324786,49.5375 C62.6882735,49.5375 62.7407863,49.5266304 62.7883761,49.5059783 C62.8376068,49.4847826 62.8791795,49.4559783 62.9163761,49.4195652 C62.9530256,49.3836957 62.9814701,49.3407609 63.0017094,49.2918478 C63.0230427,49.2429348 63.0334359,49.1907609 63.0334359,49.1347826 C63.0334359,49.0793478 63.0230427,49.0271739 63.0017094,48.9782609 C62.9814701,48.9293478 62.9530256,48.886413 62.9163761,48.85 C62.8791795,48.8141304 62.8376068,48.7853261 62.7883761,48.7646739 C62.7407863,48.7440217 62.6882735,48.7336957 62.6324786,48.7336957 C62.5755897,48.7336957 62.5219829,48.7440217 62.4722051,48.7646739 C62.4229744,48.7853261 62.3792137,48.8141304 62.3425641,48.85 C62.3070085,48.886413 62.2780171,48.9293478 62.2566838,48.9782609 C62.2364444,49.0271739 62.2260513,49.0793478 62.2260513,49.1347826 C62.2260513,49.1907609 62.2364444,49.2429348 62.2566838,49.2918478 C62.2780171,49.3407609 62.3070085,49.3836957 62.3425641,49.4195652 C62.3792137,49.4559783 62.4229744,49.4847826 62.4722051,49.5059783 C62.5219829,49.5266304 62.5755897,49.5375 62.6324786,49.5375 Z M62.6324786,48.6184783 C62.7046838,48.6184783 62.7741538,48.6320652 62.8381538,48.6592391 C62.9021538,48.6858696 62.9579487,48.7228261 63.0060855,48.7701087 C63.0542222,48.8168478 63.0919658,48.8717391 63.1198632,48.9342391 C63.1466667,48.9972826 63.1608889,49.0641304 63.1608889,49.1347826 C63.1608889,49.2059783 63.1466667,49.2722826 63.1198632,49.3347826 C63.0919658,49.3972826 63.0542222,49.4521739 63.0060855,49.498913 C62.9579487,49.5456522 62.9021538,49.5826087 62.8381538,49.6103261 C62.7741538,49.6375 62.7046838,49.651087 62.6324786,49.651087 C62.5575385,49.651087 62.4875214,49.6375 62.4229744,49.6103261 C62.3578803,49.5826087 62.3015385,49.5456522 62.2539487,49.498913 C62.205812,49.4521739 62.1691624,49.3972826 62.141265,49.3347826 C62.1139145,49.2722826 62.0996923,49.2059783 62.0996923,49.1347826 C62.0996923,49.0641304 62.1139145,48.9972826 62.141265,48.9342391 C62.1691624,48.8717391 62.205812,48.8168478 62.2539487,48.7701087 C62.3015385,48.7228261 62.3578803,48.6858696 62.4229744,48.6592391 C62.4875214,48.6320652 62.5575385,48.6184783 62.6324786,48.6184783 Z M13.8524444,46.773913 C13.8524444,45.861413 14.4541538,45.111413 15.4387692,45.111413 C16.3796239,45.111413 17.0136068,45.8288043 17.0136068,46.773913 C17.0136068,47.7195652 16.3796239,48.4369565 15.4387692,48.4369565 C14.4541538,48.4369565 13.8524444,47.6869565 13.8524444,46.773913 Z M18.0857436,46.773913 L18.0857436,44.1766304 L16.9479658,44.1766304 L16.9479658,44.8070652 C16.5874872,44.3396739 16.0404786,44.0461957 15.296547,44.0461957 C13.8305641,44.0461957 12.6823932,45.1875 12.6823932,46.773913 C12.6823932,48.3608696 13.8305641,49.5021739 15.296547,49.5021739 C16.0404786,49.5021739 16.5874872,49.2086957 16.9479658,48.7413043 L16.9479658,49.3717391 L18.0857436,49.3717391 L18.0857436,46.773913 L18.0857436,46.773913 Z M56.5027009,46.773913 C56.5027009,45.861413 57.1044103,45.111413 58.0890256,45.111413 C59.0293333,45.111413 59.6638632,45.8288043 59.6638632,46.773913 C59.6638632,47.7195652 59.0293333,48.4369565 58.0890256,48.4369565 C57.1044103,48.4369565 56.5027009,47.6869565 56.5027009,46.773913 Z M60.736,46.773913 L60.736,42.0902174 L59.5982222,42.0902174 L59.5982222,44.8070652 C59.2371966,44.3396739 58.690188,44.0461957 57.9468034,44.0461957 C56.4808205,44.0461957 55.3321026,45.1875 55.3321026,46.773913 C55.3321026,48.3608696 56.4808205,49.5021739 57.9468034,49.5021739 C58.690188,49.5021739 59.2371966,49.2086957 59.5982222,48.7413043 L59.5982222,49.3717391 L60.736,49.3717391 L60.736,46.773913 L60.736,46.773913 Z M32.1969231,45.0570652 C32.9299145,45.0570652 33.3997949,45.513587 33.5201368,46.3179348 L30.8075214,46.3179348 C30.9278632,45.5679348 31.3873504,45.0570652 32.1969231,45.0570652 Z M32.2188034,44.0461957 C30.6871795,44.0461957 29.6150427,45.1548913 29.6150427,46.773913 C29.6150427,48.426087 30.7309402,49.5021739 32.2953846,49.5021739 C33.0830769,49.5021739 33.8045812,49.3059783 34.4391111,48.773913 L33.8811624,47.9369565 C33.4435556,48.2847826 32.8861538,48.4804348 32.3610256,48.4804348 C31.6280342,48.4804348 30.9606838,48.1434783 30.7965812,47.2086957 L34.6797949,47.2086957 C34.690735,47.0673913 34.7016752,46.926087 34.7016752,46.773913 C34.690735,45.1548913 33.6842393,44.0461957 32.2188034,44.0461957 L32.2188034,44.0461957 Z M45.9465299,46.773913 C45.9465299,45.861413 46.5482393,45.111413 47.5328547,45.111413 C48.4737094,45.111413 49.1082393,45.8288043 49.1082393,46.773913 C49.1082393,47.7195652 48.4737094,48.4369565 47.5328547,48.4369565 C46.5482393,48.4369565 45.9465299,47.6869565 45.9465299,46.773913 Z M50.1803761,46.773913 L50.1803761,44.1766304 L49.0425983,44.1766304 L49.0425983,44.8070652 C48.6815726,44.3396739 48.1345641,44.0461957 47.3906325,44.0461957 C45.9246496,44.0461957 44.7764786,45.1875 44.7764786,46.773913 C44.7764786,48.3608696 45.9246496,49.5021739 47.3906325,49.5021739 C48.1345641,49.5021739 48.6815726,49.2086957 49.0425983,48.7413043 L49.0425983,49.3717391 L50.1803761,49.3717391 L50.1803761,46.773913 L50.1803761,46.773913 Z M39.5257436,46.773913 C39.5257436,48.35 40.6307009,49.5021739 42.3149402,49.5021739 C43.1026325,49.5021739 43.6277607,49.3282609 44.1966496,48.8826087 L43.649641,47.9695652 C43.2229744,48.273913 42.7744274,48.4369565 42.2821197,48.4369565 C41.3740855,48.426087 40.7072821,47.773913 40.7072821,46.773913 C40.7072821,45.7744565 41.3740855,45.1222826 42.2821197,45.111413 C42.7744274,45.111413 43.2229744,45.2744565 43.649641,45.5788043 L44.1966496,44.6657609 C43.6277607,44.2201087 43.1026325,44.0461957 42.3149402,44.0461957 C40.6307009,44.0461957 39.5257436,45.1983696 39.5257436,46.773913 L39.5257436,46.773913 Z M54.1839316,44.0461957 C53.5275214,44.0461957 53.1008547,44.3505435 52.8054701,44.8070652 L52.8054701,44.1766304 L51.6786325,44.1766304 L51.6786325,49.3717391 L52.8164103,49.3717391 L52.8164103,46.4592391 C52.8164103,45.6005435 53.1883761,45.1222826 53.9323077,45.1222826 C54.1620513,45.1222826 54.402735,45.1548913 54.6434188,45.2527174 L54.9935043,44.1875 C54.7413333,44.0896739 54.4131282,44.0461957 54.1839316,44.0461957 L54.1839316,44.0461957 Z M23.7084444,44.5896739 C23.1614359,44.2309783 22.4065641,44.0461957 21.5751111,44.0461957 C20.2518974,44.0461957 19.3985641,44.6766304 19.3985641,45.7092391 C19.3985641,46.5565217 20.033094,47.0782609 21.2031453,47.2413043 L21.7392137,47.3173913 C22.3628034,47.4043478 22.658188,47.5673913 22.658188,47.8608696 C22.658188,48.2630435 22.2424615,48.4913043 21.4657094,48.4913043 C20.6785641,48.4913043 20.1096752,48.2413043 19.7267692,47.9478261 L19.1907009,48.8282609 C19.8142906,49.2842391 20.6019829,49.5021739 21.4547692,49.5021739 C22.9645128,49.5021739 23.8397265,48.7956522 23.8397265,47.8065217 C23.8397265,46.8934783 23.1504957,46.4157609 22.0127179,46.2527174 L21.4766496,46.1766304 C20.9843419,46.111413 20.5910427,46.013587 20.5910427,45.6657609 C20.5910427,45.2853261 20.9624615,45.0570652 21.5860513,45.0570652 C22.2534017,45.0570652 22.8988718,45.3070652 23.2161368,45.5027174 L23.7084444,44.5896739 L23.7084444,44.5896739 Z M38.3770256,44.0461957 C37.7206154,44.0461957 37.2939487,44.3505435 36.9991111,44.8070652 L36.9991111,44.1766304 L35.8722735,44.1766304 L35.8722735,49.3717391 L37.0095043,49.3717391 L37.0095043,46.4592391 C37.0095043,45.6005435 37.3814701,45.1222826 38.1254017,45.1222826 C38.3551453,45.1222826 38.5958291,45.1548913 38.8365128,45.2527174 L39.1865983,44.1875 C38.9349744,44.0896739 38.6067692,44.0461957 38.3770256,44.0461957 L38.3770256,44.0461957 Z M28.674735,44.1766304 L26.814906,44.1766304 L26.814906,42.601087 L25.666188,42.601087 L25.666188,44.1766304 L24.6055385,44.1766304 L24.6055385,45.2092391 L25.666188,45.2092391 L25.666188,47.5782609 C25.666188,48.7847826 26.1366154,49.5021739 27.4822564,49.5021739 C27.9745641,49.5021739 28.543453,49.3494565 28.9039316,49.1 L28.5762735,48.1326087 C28.2371282,48.3282609 27.8651624,48.426087 27.5697778,48.426087 C27.0008889,48.426087 26.814906,48.0782609 26.814906,47.5565217 L26.814906,45.2092391 L28.674735,45.2092391 L28.674735,44.1766304 L28.674735,44.1766304 Z M11.6758974,49.3717391 L11.6758974,46.111413 C11.6758974,44.8831522 10.8882051,44.0570652 9.6191453,44.0461957 C8.95234188,44.0353261 8.26311111,44.2418478 7.78174359,44.9701087 C7.42071795,44.3940217 6.85182906,44.0461957 6.05319658,44.0461957 C5.49524786,44.0461957 4.94878632,44.2092391 4.52211966,44.8179348 L4.52211966,44.1766304 L3.38434188,44.1766304 L3.38434188,49.3717391 L4.53305983,49.3717391 L4.53305983,46.4918478 C4.53305983,45.5896739 5.03630769,45.111413 5.81251282,45.111413 C6.56738462,45.111413 6.9502906,45.6005435 6.9502906,46.4809783 L6.9502906,49.3717391 L8.09900855,49.3717391 L8.09900855,46.4918478 C8.09900855,45.5896739 8.62413675,45.111413 9.37846154,45.111413 C10.1552137,45.111413 10.5271795,45.6005435 10.5271795,46.4809783 L10.5271795,49.3717391 L11.6758974,49.3717391 L11.6758974,49.3717391 Z" id="Shape" fill="#363639"></path>
                    <rect id="Rectangle-path" fill="#F47D20" x="23.3304615" y="4.58586957" width="17.2307692" height="30.7646739"></rect>
                    <path d="M24.4244786,19.9679348 C24.4244786,13.7271739 27.3657436,8.16847826 31.9458462,4.58586957 C28.5959658,1.96630435 24.3697778,0.402717391 19.776,0.402717391 C8.90092308,0.402717391 0.0853333333,9.1625 0.0853333333,19.9679348 C0.0853333333,30.773913 8.90092308,39.5331522 19.776,39.5331522 C24.3697778,39.5331522 28.5959658,37.9701087 31.9458462,35.3505435 C27.3657436,31.7679348 24.4244786,26.2092391 24.4244786,19.9679348 L24.4244786,19.9679348 Z" id="Shape" fill="#DE1F31"></path>
                    <path d="M63.1915214,32.0918478 L63.1915214,31.3326087 L62.9924103,31.3326087 L62.7626667,31.8548913 L62.5323761,31.3326087 L62.333265,31.3326087 L62.333265,32.0918478 L62.4743932,32.0918478 L62.4743932,31.5190217 L62.6893675,32.0130435 L62.8354188,32.0130435 L63.0509402,31.5179348 L63.0509402,32.0918478 L63.1915214,32.0918478 L63.1915214,32.0918478 Z M61.9279316,32.0918478 L61.9279316,31.4619565 L62.1833846,31.4619565 L62.1833846,31.3336957 L61.5324444,31.3336957 L61.5324444,31.4619565 L61.7878974,31.4619565 L61.7878974,32.0918478 L61.9279316,32.0918478 Z M63.806359,19.9679348 C63.806359,30.773913 54.9907692,39.5331522 44.1156923,39.5331522 C39.5219145,39.5331522 35.2951795,37.9701087 31.9458462,35.3505435 C36.5259487,31.7679348 39.4672137,26.2092391 39.4672137,19.9679348 C39.4672137,13.7271739 36.5259487,8.16847826 31.9458462,4.58586957 C35.2951795,1.96630435 39.5219145,0.402717391 44.1156923,0.402717391 C54.9907692,0.402717391 63.806359,9.1625 63.806359,19.9679348 L63.806359,19.9679348 Z" id="Shape" fill="#F3A837"></path>
                </g>
            </g>
        </g>
    </g>
</svg>