<?xml version="1.0" encoding="UTF-8" standalone="no"?>
<svg width="110px" height="64px" viewBox="0 0 110 64" version="1.1" xmlns="http://www.w3.org/2000/svg" xmlns:xlink="http://www.w3.org/1999/xlink">
    <!-- Generator: Sketch 41.2 (35397) - http://www.bohemiancoding.com/sketch -->
    <title>paybox</title>
    <desc>Created with Sketch.</desc>
    <defs></defs>
    <g id="Others" stroke="none" stroke-width="1" fill="none" fill-rule="evenodd">
        <g id="paybox">
            <g transform="translate(22.711039, 8.000000)">
                <path d="M50.467065,2.4254574 L51.8429566,5.5648722 C52.557713,7.26023878 53.1741915,8.99831795 53.6690675,10.7696915 C55.7408734,18.1863937 56.0383634,26.0214643 54.550581,33.5717569 C54.0630094,36.0463593 53.3664312,38.4859324 52.4663245,40.8419806 L50.467065,45.5511028 C52.9416944,46.3538842 55.471356,47.4218636 58.0205238,47.946972 C66.6664949,33.3551373 66.6657478,14.6201011 58.0205238,0.0295882029 C55.4677038,0.612090096 52.9558883,1.61804948 50.467065,2.4254574 L50.467065,2.4254574 Z" id="Shape-Copy-9" fill="#FF7313"></path>
                <path d="M36.1071929,6.88673107 L37.8151046,11.01754 C38.5431419,12.955633 39.0254012,15.0175676 39.4057303,17.0485211 C40.4666177,22.7132646 40.1963533,28.7609341 38.6451551,34.3153025 L36.1071929,41.0898292 C37.6112443,41.3140495 39.1315646,42.0341321 40.5894652,42.4711716 C40.9800869,42.5882388 41.8448334,43.0807965 42.2318859,42.8964797 C42.7307462,42.6589583 43.1096642,41.4838257 43.3491338,41.007213 C44.3070949,39.1002664 45.0970539,37.1004591 45.7125363,35.0588481 C47.9858784,27.5171476 48.0691324,18.6725073 45.1716754,11.2653885 L43.1831237,6.6388825 C42.9771051,6.22984982 42.6584488,5.28860369 42.2318859,5.07917168 C41.83811,4.88584982 40.9859802,5.38633863 40.5894652,5.50538854 C39.1174538,5.94721987 37.622616,6.62715104 36.1071929,6.88673107 L36.1071929,6.88673107 Z" id="Shape-Copy-4" fill="#FF7313"></path>
                <path d="M22.7433813,10.8523076 L24.3437185,14.9005004 C25.5792485,18.9834746 26.0859943,23.2976088 25.5418962,27.5407758 C25.2781063,29.5976708 24.8502982,31.6974436 24.1533049,33.6543731 L22.7433813,37.1242525 L25.9805779,38.1728171 C26.3300291,38.2966588 26.9846899,38.6901596 27.3592916,38.5537603 C27.8386457,38.3792749 28.1936583,37.2209961 28.4082264,36.7937878 C29.3323215,34.9540908 29.9932906,33.0033576 30.493811,31.0106554 C31.8616511,25.5650925 31.6553835,19.347812 29.6487367,14.0743386 L28.1182068,10.6044591 C27.9554338,10.2803558 27.7333954,9.5564729 27.3602047,9.42279994 C26.9830298,9.28763981 26.3321873,9.67915789 25.9805779,9.8037431 L22.7433813,10.8523076 L22.7433813,10.8523076 Z" id="Shape-Copy-5" fill="#FFD54D"></path>
                <path d="M3.40320669,10.4745865 C0.121444676,10.9475641 -0.995919387,15.1271166 1.10398365,17.45838 C2.0993137,18.5633713 3.64033549,18.8870615 5.06330751,18.6761424 C7.62808026,18.2959428 9.13213165,15.245423 8.12005119,12.9177121 C7.30261752,11.0375331 5.37541477,10.1903868 3.40320669,10.4745865 L3.40320669,10.4745865 Z" id="Shape-Copy-6" fill="#FFD54D"></path>
                <polygon id="Shape-Copy-7" fill="#FFD54D" points="11.7037108 21.5097948 11.7037108 26.4667655 20.08722 26.4667655 20.08722 21.5097948"></polygon>
                <path d="M4.06724702,29.2355641 C-0.0261880905,29.4930787 -1.60999068,35.0386897 2.15813107,37.0983937 C2.96828518,37.5412164 3.90610934,37.5961562 4.81429239,37.529898 C9.97363676,37.1534987 9.22725539,28.9109651 4.06724702,29.2355641 L4.06724702,29.2355641 Z" id="Shape-Copy-8" fill="#FFD54D"></path>
            </g>
        </g>
    </g>
</svg>