<?xml version="1.0" encoding="UTF-8" standalone="no"?>
<svg width="110px" height="64px" viewBox="0 0 110 64" version="1.1" xmlns="http://www.w3.org/2000/svg" xmlns:xlink="http://www.w3.org/1999/xlink">
    <!-- Generator: Sketch 41.2 (35397) - http://www.bohemiancoding.com/sketch -->
    <title>paypal</title>
    <desc>Created with Sketch.</desc>
    <defs></defs>
    <g id="Others" stroke="none" stroke-width="1" fill="none" fill-rule="evenodd">
        <g id="paypal">
            <g transform="translate(10.437500, 21.120000)" id="Shape">
                <path d="M33.8267315,4.87669677 L28.8205421,4.87669677 C28.4779633,4.87669677 28.1866249,5.1223742 28.1331884,5.45620645 L26.1084597,18.1281032 C26.0681994,18.3781162 26.264377,18.6035613 26.5213111,18.6035613 L28.9113109,18.6035613 C29.2538897,18.6035613 29.5452281,18.3578838 29.5986646,18.023329 L30.1447411,14.6055226 C30.1974455,14.2709677 30.4895159,14.0252903 30.8313627,14.0252903 L32.4161558,14.0252903 C35.7138431,14.0252903 37.6170588,12.4500645 38.1140909,9.32851616 C38.3380848,7.96283872 38.123607,6.88980646 37.4757817,6.13832258 C36.7642718,5.31313548 35.5022933,4.87669677 33.8267315,4.87669677 L33.8267315,4.87669677 Z M34.4042843,9.50482579 C34.130514,11.2780387 32.7580026,11.2780387 31.4308757,11.2780387 L30.6754455,11.2780387 L31.2054179,7.96645158 C31.2368941,7.76629677 31.4125756,7.6188903 31.6175373,7.6188903 L31.9637761,7.6188903 C32.8678036,7.6188903 33.7205906,7.6188903 34.1612583,8.12758707 C34.4240484,8.43107098 34.5045691,8.88196128 34.4042843,9.50482579 L34.4042843,9.50482579 Z" fill="#253B80"></path>
                <path d="M48.7911312,9.44774195 L46.3938114,9.44774195 C46.1895817,9.44774195 46.0131682,9.59514842 45.981692,9.79530323 L45.875551,10.4571871 L45.7079217,10.2172903 C45.1889294,9.47375482 44.0316278,9.22518707 42.8765223,9.22518707 C40.2273924,9.22518707 37.9647617,11.2057807 37.524094,13.9841032 C37.2949761,15.3700129 37.6207188,16.6952258 38.4171414,17.6194065 C39.1476835,18.4691613 40.1929881,18.8232258 41.4366664,18.8232258 C43.571196,18.8232258 44.7548498,17.4683871 44.7548498,17.4683871 L44.6479769,18.1259355 C44.6077166,18.3773935 44.8038942,18.6028387 45.0593643,18.6028387 L47.2187821,18.6028387 C47.562093,18.6028387 47.8519674,18.3571613 47.9061358,18.0226065 L49.2017866,9.9232 C49.2427789,9.6739097 49.0473333,9.44774195 48.7911312,9.44774195 L48.7911312,9.44774195 Z M45.4495235,14.053471 C45.2182096,15.4054193 44.1311806,16.3129807 42.7447612,16.3129807 C42.0486234,16.3129807 41.4922989,16.0925935 41.1350799,15.674942 C40.780789,15.2601807 40.6460999,14.6698323 40.7588288,14.0122838 C40.9747705,12.6718968 42.0800997,11.7347097 43.4452909,11.7347097 C44.1260566,11.7347097 44.6794532,11.9579871 45.0439922,12.3792516 C45.4092632,12.8048516 45.5542004,13.3988129 45.4495235,14.053471 L45.4495235,14.053471 Z" fill="#253B80"></path>
                <path d="M61.5587806,9.44774195 L59.1497487,9.44774195 C58.9198989,9.44774195 58.7039571,9.56046451 58.57366,9.74905805 L55.2510845,14.5802323 L53.8427049,9.93765158 C53.7541321,9.64717421 53.4825579,9.44774195 53.1751154,9.44774195 L50.8078078,9.44774195 C50.5201295,9.44774195 50.3202918,9.72521293 50.4117925,9.99256774 L53.0653145,17.6793807 L50.5706378,21.1557162 C50.3744602,21.4295742 50.5721018,21.8060387 50.9110206,21.8060387 L53.3171245,21.8060387 C53.5455104,21.8060387 53.7592562,21.6962065 53.8888213,21.5112258 L61.9013595,10.0944516 C62.0931451,9.82131616 61.8962354,9.44774195 61.5587806,9.44774195 L61.5587806,9.44774195 Z" fill="#253B80"></path>
                <path d="M69.5347187,4.87669677 L64.5277973,4.87669677 C64.1859503,4.87669677 63.8946119,5.1223742 63.8411755,5.45620645 L61.8164468,18.1281032 C61.7761865,18.3781162 61.9723641,18.6035613 62.2278342,18.6035613 L64.7971751,18.6035613 C65.0358094,18.6035613 65.2400391,18.4315871 65.2773714,18.197471 L65.8519962,14.6055226 C65.9047006,14.2709677 66.1967707,14.0252903 66.538618,14.0252903 L68.1226788,14.0252903 C71.421098,14.0252903 73.3235821,12.4500645 73.8213457,9.32851616 C74.0460717,7.96283872 73.8301303,6.88980646 73.1823047,6.13832258 C72.4715268,5.31313548 71.2102802,4.87669677 69.5347187,4.87669677 L69.5347187,4.87669677 Z M70.1122712,9.50482579 C69.839233,11.2780387 68.466722,11.2780387 67.1388627,11.2780387 L66.3841644,11.2780387 L66.9148686,7.96645158 C66.9463454,7.76629677 67.1205629,7.6188903 67.3262564,7.6188903 L67.6724954,7.6188903 C68.5757906,7.6188903 69.4293098,7.6188903 69.8699773,8.12758707 C70.1327676,8.43107098 70.2125559,8.88196128 70.1122712,9.50482579 L70.1122712,9.50482579 Z" fill="#179BD7"></path>
                <path d="M84.4983862,9.44774195 L82.1025302,9.44774195 C81.8968366,9.44774195 81.7218873,9.59514842 81.6911431,9.79530323 L81.5850022,10.4571871 L81.416641,10.2172903 C80.8976484,9.47375482 79.7410788,9.22518707 78.5859731,9.22518707 C75.9368433,9.22518707 73.6749447,11.2057807 73.2342772,13.9841032 C73.0058914,15.3700129 73.3301702,16.6952258 74.1265926,17.6194065 C74.8585988,18.4691613 75.9024394,18.8232258 77.1461174,18.8232258 C79.2806469,18.8232258 80.464301,17.4683871 80.464301,17.4683871 L80.3574282,18.1259355 C80.3171675,18.3773935 80.5133451,18.6028387 80.7702793,18.6028387 L82.9289655,18.6028387 C83.2708122,18.6028387 83.5621503,18.3571613 83.6155867,18.0226065 L84.9119698,9.9232 C84.951498,9.6739097 84.7553203,9.44774195 84.4983862,9.44774195 L84.4983862,9.44774195 Z M81.1567784,14.053471 C80.9269288,15.4054193 79.8384357,16.3129807 78.4520164,16.3129807 C77.7573426,16.3129807 77.1995538,16.0925935 76.842335,15.674942 C76.488044,15.2601807 76.3548186,14.6698323 76.4660837,14.0122838 C76.6834897,12.6718968 77.7873549,11.7347097 79.1525458,11.7347097 C79.8333115,11.7347097 80.3867079,11.9579871 80.7512475,12.3792516 C81.1179822,12.8048516 81.2629193,13.3988129 81.1567784,14.053471 L81.1567784,14.053471 Z" fill="#179BD7"></path>
                <path d="M87.3246618,5.22425807 L85.2699205,18.1281032 C85.2296604,18.3781162 85.4258381,18.6035613 85.6813077,18.6035613 L87.7470293,18.6035613 C88.0903399,18.6035613 88.381678,18.3578838 88.4343825,18.023329 L90.4605753,5.35215484 C90.5008361,5.10214193 90.3046584,4.8759742 90.0491881,4.8759742 L87.7360489,4.8759742 C87.5318192,4.87669677 87.3561379,5.02410323 87.3246618,5.22425807 L87.3246618,5.22425807 Z" fill="#179BD7"></path>
                <path d="M5.31875595,21.0661162 L5.70159511,18.6657032 L4.84880806,18.6461935 L0.776658419,18.6461935 L3.6065938,0.933574195 C3.61537787,0.880103226 3.64392611,0.830245158 3.68565045,0.794838707 C3.7273748,0.759432256 3.78081124,0.739922579 3.8364437,0.739922579 L10.7026604,0.739922579 C12.9821273,0.739922579 14.5552083,1.20815484 15.376519,2.13233548 C15.7615542,2.56588387 16.0067763,3.01894193 16.1253612,3.51752258 C16.2498023,4.04067097 16.2519983,4.66570323 16.1304853,5.4280258 L16.1217012,5.48366452 L16.1217012,5.97212903 L16.5067364,6.18745807 C16.8310151,6.35726452 17.0886812,6.55163872 17.2863228,6.77419354 C17.6157256,7.14487744 17.8287393,7.616 17.918776,8.17455482 C18.0117408,8.74900646 17.9809966,9.43256774 17.8287393,10.2064516 C17.6530579,11.096671 17.3690395,11.872 16.9854683,12.5064258 C16.6326414,13.0909935 16.1831897,13.5758452 15.6495573,13.9515871 C15.1400811,14.308542 14.5347121,14.5795097 13.8502865,14.752929 C13.187089,14.923458 12.4309267,15.0094452 11.6015639,15.0094452 L11.0671994,15.0094452 C10.6850923,15.0094452 10.3139652,15.1452903 10.0226268,15.3888 C9.73055639,15.6373677 9.53730682,15.9769807 9.47801429,16.3483871 L9.43775398,16.5644387 L8.7613804,20.7951484 L8.73063612,20.9505032 C8.7225841,20.9996387 8.70867594,21.0242065 8.68817978,21.0408258 C8.66987964,21.056 8.64352741,21.0661162 8.61790719,21.0661162 L5.31875595,21.0661162 L5.31875595,21.0661162 Z" fill="#253B80"></path>
                <path d="M16.8712754,5.5400258 L16.8712754,5.5400258 C16.8507792,5.66936774 16.827355,5.8016 16.8010028,5.93744516 C15.8955114,10.5265548 12.7976617,12.1118968 8.84116903,12.1118968 L6.8266884,12.1118968 C6.34283241,12.1118968 5.93510504,12.4587355 5.85970842,12.929858 L5.85970842,12.929858 L4.82831189,19.3868387 L4.53624148,21.2171355 C4.48719708,21.5264 4.72875907,21.8053162 5.04498569,21.8053162 L8.61790719,21.8053162 C9.04100673,21.8053162 9.40042169,21.5018323 9.46703424,21.0899613 L9.5021705,20.9107613 L10.1748841,16.696671 L10.2180724,16.4654452 C10.283953,16.052129 10.6441,15.7486452 11.0671994,15.7486452 L11.6015639,15.7486452 C15.0632205,15.7486452 17.7731069,14.3612903 18.5651374,10.3466323 C18.8960041,8.66952256 18.7247147,7.26916128 17.8492355,6.28428387 C17.5842493,5.98730323 17.2555786,5.74090323 16.8712754,5.5400258 L16.8712754,5.5400258 Z" fill="#179BD7"></path>
                <path d="M15.9240596,5.1671742 C15.7857104,5.12743226 15.6429693,5.09130323 15.496568,5.0587871 C15.3494349,5.02699355 15.1986416,4.9988129 15.0434563,4.97424516 C14.5003078,4.88753548 13.9051869,4.84634838 13.2676096,4.84634838 L7.88590113,4.84634838 C7.75340804,4.84634838 7.62750303,4.8759742 7.5147741,4.92944516 C7.26662406,5.0472258 7.08215852,5.2791742 7.03750616,5.56314838 L5.89264869,12.7210323 L5.85970842,12.929858 C5.93510504,12.4587355 6.34283241,12.1118968 6.8266884,12.1118968 L8.84116903,12.1118968 C12.7976617,12.1118968 15.8955114,10.5258323 16.8010028,5.93744516 C16.828087,5.8016 16.8507792,5.66936774 16.8712754,5.5400258 C16.6421575,5.42007742 16.3940075,5.31747097 16.1268252,5.23003871 C16.0609447,5.20836129 15.9928681,5.18740645 15.9240596,5.1671742 L15.9240596,5.1671742 Z" fill="#222D65"></path>
                <path d="M7.03750616,5.56314838 C7.08215852,5.2791742 7.26662406,5.0472258 7.5147741,4.93016774 C7.62823504,4.87669677 7.75340804,4.84707097 7.88590113,4.84707097 L13.2676096,4.84707097 C13.9051869,4.84707097 14.5003078,4.88825807 15.0434563,4.97496774 C15.1986416,4.99953548 15.3494349,5.02771613 15.496568,5.05950968 C15.6429693,5.0920258 15.7857104,5.12815484 15.9240596,5.16789677 C15.9928681,5.18812903 16.0609447,5.20908387 16.1275572,5.23003871 C16.3947395,5.31747097 16.6428895,5.4208 16.8720074,5.5400258 C17.1413857,3.84412903 16.8698114,2.68944516 15.9408957,1.64387097 C14.9168193,0.4928 13.068504,0 10.7033924,0 L3.83717571,0 C3.35405171,0 2.94193231,0.34683871 2.86726769,0.818683872 L0.00732006046,18.7133935 C-0.0490444053,19.067458 0.227653881,19.3868387 0.589264869,19.3868387 L4.82831189,19.3868387 L5.89264869,12.7210323 L7.03750616,5.56314838 L7.03750616,5.56314838 Z" fill="#253B80"></path>
            </g>
        </g>
    </g>
</svg>