<?xml version="1.0" encoding="UTF-8" standalone="no"?>
<svg width="110px" height="64px" viewBox="0 0 110 64" version="1.1" xmlns="http://www.w3.org/2000/svg" xmlns:xlink="http://www.w3.org/1999/xlink">
    <!-- Generator: Sketch 41.2 (35397) - http://www.bohemiancoding.com/sketch -->
    <title>paysafecard</title>
    <desc>Created with Sketch.</desc>
    <defs></defs>
    <g id="Others" stroke="none" stroke-width="1" fill="none" fill-rule="evenodd">
        <g id="paysafecard">
            <g transform="translate(5.000000, 24.000000)" id="svg2727">
                <g>
                    <path d="M18.1855594,7.5837011 C18.1742295,7.23613994 18.0091221,7.0567351 17.6886184,7.04495355 L15.9765734,7.04495355 C15.571359,7.06958819 15.3620061,7.29022845 15.3522939,7.70526755 L15.3522939,10.7615615 C15.3620061,11.189989 15.5934817,11.4084872 16.0434798,11.420804 L17.6125391,11.420804 C17.7754895,11.420804 17.9109201,11.3608247 18.0188343,11.2381867 C18.1316029,11.1460752 18.1855594,11.0277223 18.1855594,10.880986 L18.1855594,7.5837011 Z M13.1540997,7.14991813 C13.1654307,6.38517587 13.3370124,5.80412026 13.6699257,5.40675458 C13.8442048,5.24020284 14.0621902,5.10096406 14.3276567,4.98582471 C14.6033767,4.86318671 14.870461,4.80374265 15.129453,4.80374265 L18.2718901,4.80374265 C19.6580378,4.81552419 20.3627117,5.56794968 20.3848333,7.06262587 L20.3848333,11.6628654 C20.374583,12.1935801 20.1652301,12.6541397 19.760555,13.0391886 C19.3596568,13.444053 18.8810616,13.6502334 18.3236885,13.6625512 L15.3522939,13.6625512 L15.3522939,16.9791141 L13.1540997,16.9791141 L13.1540997,7.14991813 L13.1540997,7.14991813 Z" id="path2491" fill="#008AC9"></path>
                    <path d="M24.3528084,10.9768463 C24.3528084,11.1048387 24.4121597,11.2060545 24.5281682,11.2821005 C24.6317651,11.3731415 24.7623391,11.420804 24.9274464,11.420804 L26.6157521,11.420804 C26.997226,11.420804 27.1952456,11.2740677 27.2065766,10.9768463 L27.2065766,10.3513428 C27.2065766,10.0096713 27.0053181,9.83722987 26.5995644,9.83722987 L24.9274464,9.83722987 C24.7073029,9.83722987 24.5551454,9.87364606 24.4704336,9.94219445 C24.3921962,10.0230596 24.3528084,10.1831843 24.3528084,10.4204264 L24.3528084,10.9768463 Z M27.2065766,7.52961258 C27.2179076,7.19436819 27.0209654,7.03424245 26.6152117,7.04495355 L22.1880657,7.04495355 L22.1880657,4.80374265 L27.1725847,4.80374265 C28.6245592,4.82730574 29.3616072,5.52350071 29.3864263,6.89821723 L29.3864263,11.5868194 C29.3740168,12.1796566 29.191104,12.6685996 28.8360691,13.0573973 C28.4648477,13.4601185 27.9862502,13.6625512 27.3997419,13.6625512 L24.3868014,13.6625512 C22.9202582,13.6502334 22.1767358,12.9856354 22.1540737,11.6644721 L22.1540737,9.85543742 C22.1654047,8.47483013 22.8760138,7.77328071 24.2826642,7.74918129 L27.2065766,7.74918129 L27.2065766,7.52961258 L27.2065766,7.52961258 Z" id="path2493" fill="#008AC9"></path>
                    <path d="M35.5601507,14.737368 C35.7344299,14.726658 35.8855089,14.6645356 36.0079907,14.5531439 C36.125617,14.4492509 36.1849683,14.3298254 36.1849683,14.1943365 L36.1849683,13.6625512 L33.3705879,13.6625512 C33.0036827,13.6625512 32.7101584,13.6159592 32.4910955,13.5233114 C32.2596199,13.4392326 32.0292261,13.2823215 31.7972123,13.0595393 C31.5776069,12.8233687 31.4195143,12.576487 31.3234715,12.3183601 C31.2236516,12.0821885 31.1729328,11.7817546 31.1729328,11.420804 L31.1729328,4.80374265 L33.3705879,4.80374265 L33.3705879,10.7106855 C33.3705879,11.1840982 33.565372,11.420804 33.9597958,11.420804 L35.5115889,11.420804 C35.6961217,11.420804 35.8563736,11.3608247 35.9907246,11.2381867 C36.12022,11.1342937 36.1849683,11.0111205 36.1849683,10.8665261 L36.1849683,4.80374265 L38.364818,4.80374265 L38.364818,14.5654607 C38.3524084,15.2878982 38.1657187,15.8662755 37.8058283,16.3048766 C37.4405409,16.7434788 36.9409014,16.9678678 36.3036743,16.9791141 L31.1729328,16.9791141 L31.1729328,14.737368 L35.5601507,14.737368" id="path2495" fill="#008AC9"></path>
                    <path d="M40.0908936,11.420804 L44.0076095,11.420804 C44.365881,11.4084872 44.5520315,11.2660349 44.5633614,10.9929118 L44.5633614,10.7915517 C44.5633614,10.7331781 44.5455572,10.6683785 44.5110249,10.5987586 C44.4236157,10.4295307 44.3162407,10.3454509 44.188363,10.3454509 L42.2464634,10.3454509 C41.6702054,10.3342046 41.1786603,10.1371285 40.7653515,9.75689884 C40.3471883,9.4055889 40.1329799,8.97341271 40.1205692,8.46626213 L40.1205692,6.79485942 C40.1432302,5.49083329 40.857078,4.82730574 42.2631892,4.80374265 L46.8058023,4.80374265 L46.8058023,7.04495355 L42.9570725,7.04495355 C42.5054555,7.04495355 42.277758,7.18258555 42.277758,7.4567791 L42.277758,7.67367058 C42.277758,7.95804 42.5103099,8.10049123 42.9737982,8.10049123 L44.9097649,8.10049123 C45.4255898,8.11227387 45.8653376,8.30827948 46.2317035,8.69065006 C46.6018464,9.07570006 46.793931,9.53358135 46.8058023,10.0653666 L46.8058023,11.7003531 C46.793931,12.1598412 46.5797237,12.6182588 46.1680338,13.0756048 C45.9673156,13.2999939 45.7617397,13.4542277 45.5561649,13.54152 C45.3435754,13.6218499 45.0549077,13.6625512 44.6863836,13.6625512 L40.0908936,13.6625512 L40.0908936,11.420804" id="path2497" fill="#008AC9"></path>
                    <path d="M50.5671219,10.9768463 C50.5671219,11.1048387 50.6264732,11.2060545 50.7451792,11.2821005 C50.8476975,11.3731415 50.9788118,11.420804 51.14176,11.420804 L52.8333033,11.420804 C53.2147772,11.420804 53.4117184,11.2740677 53.4230494,10.9768463 L53.4230494,10.3513428 C53.4230494,10.0096713 53.2190935,9.83722987 52.8149576,9.83722987 L51.14176,9.83722987 C50.9221568,9.83722987 50.7705386,9.87364606 50.686366,9.94219445 C50.6081286,10.0230596 50.5671219,10.1831843 50.5671219,10.4204264 L50.5671219,10.9768463 Z M53.4230494,7.52961258 C53.4327615,7.19436819 53.2358193,7.03424245 52.8295252,7.04495355 L48.4034588,7.04495355 L48.4034588,4.80374265 L53.3895956,4.80374265 C54.8399512,4.82730574 55.5775396,5.52350071 55.6002016,6.89821723 L55.6002016,11.5868194 C55.5883303,12.1796566 55.4037986,12.6685996 55.050923,13.0573973 C54.6823989,13.4601185 54.2032633,13.6625512 53.6162147,13.6625512 L50.6005746,13.6625512 C49.1351121,13.6502334 48.3910493,12.9856354 48.3705454,11.6644721 L48.3705454,9.85543742 C48.3802586,8.47483013 49.0903273,7.77328071 50.4980574,7.74918129 L53.4230494,7.74918129 L53.4230494,7.52961258 L53.4230494,7.52961258 Z" id="path2499" fill="#008AC9"></path>
                    <path d="M57.3872464,3.53292026 C57.4007355,2.92776632 57.6251953,2.44203684 58.0654812,2.07787381 C58.4928184,1.7078189 59.0539674,1.51770406 59.7478506,1.50699406 L61.1437104,1.50699406 L61.1437104,3.67215903 L60.29821,3.67215903 C59.8336432,3.68286903 59.5967727,3.90350929 59.5865203,4.32979471 L59.5865203,4.80427787 L61.1437104,4.80427787 L61.1437104,7.04763187 L59.5865203,7.04763187 L59.5865203,13.6636217 L57.3872464,13.6636217 L57.3872464,3.53292026" id="path2501" fill="#008AC9"></path>
                    <path d="M67.3951308,7.48784084 L67.3951308,7.43589323 C67.3951308,7.32075387 67.348189,7.22275052 67.253764,7.14991813 C67.1512479,7.07922774 67.0260686,7.04495355 66.8755289,7.04495355 L65.345317,7.04495355 C65.1489151,7.04495355 64.9908214,7.09957839 64.8683396,7.21150529 C64.7161821,7.3148631 64.6390243,7.45088832 64.6390243,7.61851052 L64.6390243,8.51820865 L67.3951308,7.48784084 Z M64.6740958,10.6560617 L64.6740958,10.7958357 C64.6740958,10.9752395 64.7210387,11.1176918 64.8165411,11.2210496 C64.8856057,11.3533272 64.9784119,11.420804 65.1019722,11.420804 L69.6176082,11.420804 L69.6176082,13.6625512 L64.8165411,13.6625512 C64.3784133,13.6625512 64.0368676,13.6218499 63.795682,13.5404485 C63.5318333,13.4542277 63.294964,13.3133822 63.0883085,13.1173766 C62.8465826,12.8801355 62.6820155,12.6386094 62.5994619,12.390121 C62.5088138,12.1309225 62.4640301,11.7871101 62.4640301,11.3586827 L62.4451451,6.87251213 C62.4694271,5.51707471 63.1827335,4.82730574 64.5845285,4.80374265 L67.5478287,4.80374265 C68.9167102,4.82730574 69.6100542,5.54117303 69.6321769,6.94909329 L69.6321769,8.72117548 L64.6740958,10.6560617 L64.6740958,10.6560617 Z" id="path2503" fill="#008AC9"></path>
                    <path d="M74.2854005,13.6625512 C73.9524873,13.6625512 73.6487116,13.6320247 73.3729926,13.5763294 C73.0843238,13.5297385 72.7967346,13.3969257 72.5026699,13.1725366 C72.2010534,12.9117314 71.9922409,12.6193303 71.8778534,12.2964027 C71.7569904,11.9788306 71.6987165,11.6189516 71.6987165,11.2140884 L71.6987165,7.03103 C71.686307,6.68989484 71.7208393,6.39053032 71.8012337,6.13079665 C71.8751549,5.87159819 72.0305501,5.61775529 72.2652624,5.36926684 C72.5328881,5.10846161 72.8059086,4.93494865 73.094037,4.84979839 C73.3713738,4.78071477 73.6837831,4.74590535 74.0339614,4.74590535 L77.4030175,4.74590535 L77.4030175,5.27019303 L74.1121988,5.27019303 C73.5310853,5.27019303 73.0746117,5.38854594 72.7406199,5.62578806 C72.3990731,5.88445129 72.224795,6.33055103 72.224795,6.95926806 L72.224795,11.1450037 C72.224795,11.4395479 72.2701179,11.7260593 72.3602267,12.0023948 C72.4524914,12.2739101 72.6062667,12.5122226 72.8269506,12.7205461 C73.0665184,12.9010214 73.3050077,13.0134835 73.5375596,13.0595393 C73.7798259,13.1125574 74.0398965,13.1377272 74.3156144,13.1377272 L77.4558944,13.1377272 L77.4558944,13.6625512 L74.2854005,13.6625512" id="path2505" fill="#008AC9"></path>
                    <path d="M86.0679202,8.235446 L81.6510256,8.235446 C81.1222508,8.24722865 80.7078635,8.40949529 80.4094825,8.72224703 C80.1008513,9.0398191 79.9481534,9.47520774 79.9481534,10.0284152 L79.9481534,11.3635019 C79.9481534,11.6221652 79.9751317,11.858871 80.0312463,12.0720137 C80.0868229,12.2964027 80.2254912,12.4966923 80.4445551,12.6685996 C80.826029,12.9824218 81.2485096,13.1377272 81.7103791,13.1377272 L84.3866304,13.1377272 C85.5051524,13.1259457 86.0679202,12.5411424 86.0679202,11.3801038 L86.0679202,8.235446 Z M86.5929191,11.249433 C86.5929191,11.5862842 86.5670204,11.8818988 86.5233142,12.1421688 C86.4520926,12.4249304 86.3058691,12.6975183 86.0841067,12.9567167 C85.6227776,13.4392326 85.0508381,13.6743328 84.3682847,13.6625512 L81.7422129,13.6625512 C81.0596606,13.6625512 80.5066049,13.4601185 80.0781904,13.0573973 C79.6406007,12.6594953 79.4188383,12.1062879 79.4188383,11.3967046 L79.4188383,10.0482295 C79.4409599,8.52677665 80.2044481,7.74757452 81.7087591,7.71222987 L86.0841067,7.71222987 L86.0841067,7.12207103 C86.0841067,6.63580523 85.9422017,6.21005613 85.6600073,5.84375 C85.4808715,5.60597265 85.2688212,5.44691955 85.0281749,5.36498284 C84.7848301,5.30179 84.5118097,5.27019303 84.2074947,5.27019303 L79.4344866,5.27019303 L79.4344866,4.74590535 L83.9592933,4.74590535 C84.3731402,4.74590535 84.7470612,4.774824 85.0859085,4.83159084 C85.2601887,4.86586503 85.4182814,4.93334187 85.5645037,5.0308089 C85.7193608,5.12345671 85.8639632,5.25894671 85.997776,5.43674477 C86.4035308,5.95621213 86.6015516,6.55547529 86.5929191,7.23024806 L86.5929191,11.249433 L86.5929191,11.249433 Z" id="path2507" fill="#008AC9"></path>
                    <path d="M91.532113,5.27019303 C90.3072969,5.29268568 89.7035213,5.95621213 89.7261833,7.26184503 L89.7261833,13.6625512 L89.2001059,13.6625512 L89.2001059,7.26398703 C89.1752858,5.58455155 89.9808591,4.74590535 91.6168248,4.74590535 L92.2017165,4.74590535 L92.2017165,5.27019303 L91.532113,5.27019303" id="path2509" fill="#008AC9"></path>
                    <path d="M100.42957,5.27287026 L96.2662725,5.27287026 C95.9662727,5.27287026 95.6975685,5.306074 95.4553033,5.36926684 C95.2017071,5.42603368 94.9567435,5.57866077 94.7274282,5.82714923 C94.507825,6.05368026 94.3696959,6.27806819 94.3119612,6.50245723 C94.2348034,6.72898826 94.1997319,7.00050458 94.2121414,7.3170051 L94.2121414,11.3977761 C94.2121414,12.0762977 94.4101633,12.5379288 94.8116007,12.785881 C95.0096215,12.9010214 95.2270665,12.9872421 95.4709517,13.0450794 C95.7137561,13.1093438 95.9846174,13.1409408 96.2829994,13.1409408 L98.1034979,13.1409408 C98.7833517,13.1409408 99.3396451,12.9856354 99.7669823,12.6723473 C100.196476,12.3783394 100.415001,11.8711888 100.42957,11.1482172 L100.42957,5.27287026 Z M100.955108,11.1840982 C100.908706,12.8731732 100.008168,13.7011094 98.2540365,13.6662989 L96.3024237,13.6662989 C95.8901945,13.6662989 95.5216705,13.630419 95.195772,13.5624059 C94.8601614,13.4761852 94.5391195,13.2732172 94.2299479,12.9567167 C93.9973948,12.6723473 93.8479347,12.3847654 93.788042,12.0902223 C93.7076464,11.7962134 93.6725749,11.4690028 93.6849855,11.111801 L93.6849855,7.30361677 C93.7076464,5.58830032 94.577968,4.73572948 96.2981074,4.74858258 L100.42957,4.74858258 L100.42957,1.85723355 L100.955108,1.85723355 L100.955108,11.1840982 L100.955108,11.1840982 Z" id="path2511" fill="#008AC9"></path>
                    <path d="M0.943702451,4.46689148 C1.11636383,4.39138187 1.28902521,4.33247303 1.46168659,4.29552052 C1.77895146,2.79174 3.12085469,1.66390516 4.7293029,1.66390516 C6.33883072,1.66390516 7.68127322,2.79334677 7.99799883,4.29659206 C8.49170208,4.3897751 8.90015426,4.58792271 9.21849874,4.88300213 C9.23144862,4.59434871 9.21957836,4.31640639 9.18504608,4.05453071 C8.98162943,1.78279439 7.06238964,0 4.72228926,0 C2.31312322,0 0.351797144,1.89525652 0.24981919,4.26445987 C0.235790799,4.46903348 0.23147454,4.68217619 0.239028545,4.90495845 C0.44136558,4.73572948 0.672300864,4.58363761 0.943702451,4.46689148" id="path2513" fill="#E3001B"></path>
                    <path d="M7.34458298,4.80374265 L1.97589372,4.80374265 C1.71744091,4.80374265 1.44981632,4.86318671 1.17409737,4.98582471 C0.908090558,5.10096406 0.690106258,5.24020284 0.515286751,5.40675458 C0.182373512,5.80412026 0.0118702626,6.38517587 0,7.14991813 L0,11.3153042 C0.0118702626,12.0816532 0.182373512,12.6621725 0.515286751,13.0573973 C0.690106258,13.2266263 0.908090558,13.365865 1.17409737,13.4820759 C1.44981632,13.6020356 1.71744091,13.6625512 1.97589372,13.6625512 L7.34458298,13.6625512 C8.73126988,13.6502334 9.43648415,12.8951295 9.4586058,11.4025965 L9.4586058,7.06262587 C9.43648415,5.56794968 8.73126988,4.81552419 7.34458298,4.80374265" id="path2515" fill="#E3001B"></path>
                </g>
            </g>
        </g>
    </g>
</svg>