<?xml version="1.0" encoding="UTF-8"?>
<svg width="110px" height="64px" viewBox="0 0 110 64" version="1.1" xmlns="http://www.w3.org/2000/svg" xmlns:xlink="http://www.w3.org/1999/xlink">
    <g id="paysafecash" stroke="none" stroke-width="1" fill="none" fill-rule="evenodd">
        <g id="ps_cash_logo_full_colour_rgb" transform="translate(5.000000, 25.000000)" fill-rule="nonzero">
            <circle id="Oval" fill="#7887E6" cx="62" cy="6" r="2"></circle>
            <circle id="Oval" fill="#FF5073" cx="62" cy="11" r="2"></circle>
            <path d="M59,8.72465315 L59,8.03628602 C59,5.47491996 57.1459035,3.58591249 54.6130752,3.58591249 C52.0968013,3.58591249 50.1433782,5.52294557 50.1433782,8.22838847 C50.1433782,10.9978655 51.9974747,12.7588047 54.9441639,12.7588047 C55.7718855,12.7588047 57.39422,12.6147279 58.6523569,11.7822839 L57.8577441,10.0853789 C57.013468,10.5496265 56.1526375,10.7577375 55.3745791,10.7577375 C55.3083614,10.7577375 55.2421437,10.7577375 55.1759259,10.7577375 C55.1593715,10.7577375 55.1428171,10.7577375 55.1262626,10.7577375 C55.0600449,10.7577375 55.0103816,10.7417289 54.9441639,10.7417289 C54.9276094,10.7417289 54.911055,10.7417289 54.911055,10.7417289 C54.8613917,10.7417289 54.8117284,10.7257204 54.7620651,10.7097118 C54.7455107,10.7097118 54.7289562,10.7097118 54.7124018,10.6937033 C54.6627385,10.6776948 54.6130752,10.6776948 54.5634119,10.6616862 C54.530303,10.6616862 54.5137486,10.6456777 54.4806397,10.6456777 C54.4475309,10.6296692 54.414422,10.6296692 54.3813131,10.6136606 C54.3482043,10.5976521 54.3150954,10.5816435 54.2654321,10.565635 C54.2488777,10.565635 54.2488777,10.5496265 54.2323232,10.5496265 C54.1826599,10.5176094 54.1164422,10.5016009 54.0667789,10.4695838 C54.0667789,10.4695838 54.0667789,10.4695838 54.0667789,10.4695838 C53.9508979,10.4055496 53.8515713,10.3255069 53.7522447,10.2294557 C53.7522447,10.2294557 53.7522447,10.2294557 53.7522447,10.2294557 C53.7191358,10.1974386 53.6694725,10.149413 53.6363636,10.1173959 C53.6198092,10.1013874 53.6032548,10.0853789 53.6032548,10.0693703 C53.5867003,10.0373533 53.5701459,10.0213447 53.537037,9.98932764 C53.5039282,9.94130203 53.4708193,9.90928495 53.4377104,9.86125934 C53.4377104,9.86125934 53.4377104,9.86125934 53.4377104,9.86125934 C53.2556117,9.57310566 53.1397306,9.20490928 53.0900673,8.75667022 L59,8.75667022 L59,8.72465315 Z M54.6296296,5.50693703 C55.407688,5.50693703 56.0367565,6.11526147 56.1360831,7.2678762 L53.1231762,7.2678762 C53.2225028,6.11526147 53.8350168,5.50693703 54.6296296,5.50693703 Z M29.9138608,6.27534685 C29.9138608,5.85912487 30.3442761,5.60298826 31.0561167,5.60298826 C31.8010662,5.60298826 32.5791246,5.85912487 33.1585297,6.09925293 L33.9531425,4.29028815 C33.208193,3.92209178 32.0659371,3.58591249 30.9236813,3.58591249 C28.8047138,3.58591249 27.0996072,4.51440768 27.0996072,6.37139808 C27.0996072,9.28495197 31.3540965,8.75667022 31.3540965,10.0533618 C31.3540965,10.5336179 30.8574635,10.773746 30.0297419,10.773746 C29.1854658,10.773746 28.3577441,10.5016009 27.7286756,10.1974386 L26.8181818,11.9583778 C27.8776655,12.5026681 29.119248,12.7588047 30.2780584,12.7588047 C32.3308081,12.7588047 34.1186869,11.7342583 34.1186869,9.8452508 C34.1021324,6.96371398 29.9138608,7.44397012 29.9138608,6.27534685 Z M13.4918631,3.58591249 C11.7370932,3.58591249 10.3465208,4.11419424 9.50224467,4.62646745 L10.280303,6.19530416 C10.7934905,5.97118463 11.8860831,5.57097118 12.7965769,5.57097118 C13.4587542,5.57097118 14.0381594,5.79509072 14.0381594,6.46744931 L14.0381594,7.04375667 C10.1147587,6.77161153 8.98905724,8.43649947 8.98905724,9.9733191 C8.98905724,11.4781217 10.3134119,12.7427962 12.035073,12.7427962 C12.7138047,12.7427962 13.4587542,12.4866596 14.0216049,12.1504803 L14.0216049,12.5346852 L16.8689675,12.5346852 L16.8689675,6.45144077 C16.8855219,4.48239061 15.5777217,3.58591249 13.4918631,3.58591249 Z M14.137486,10.6296692 C13.872615,10.8217716 13.4587542,10.9658485 13.0117845,10.9658485 C12.2999439,10.9658485 11.8198653,10.565635 11.8198653,9.94130203 C11.8198653,9.22091782 12.3992705,8.51654216 14.1209315,8.7886873 L14.1209315,10.6296692 L14.137486,10.6296692 Z M39.4326599,3.58591249 C37.67789,3.58591249 36.2873176,4.11419424 35.4430415,4.62646745 L36.2210999,6.19530416 C36.7342873,5.97118463 37.8268799,5.57097118 38.7373737,5.57097118 C39.3995511,5.57097118 39.9789562,5.79509072 39.9789562,6.46744931 L39.9789562,7.04375667 C36.0555556,6.77161153 34.9298541,8.43649947 34.9298541,9.9733191 C34.9298541,11.4781217 36.2542088,12.7427962 37.9758698,12.7427962 C38.6546016,12.7427962 39.3995511,12.4866596 39.9624018,12.1504803 L39.9624018,12.5346852 L42.8097643,12.5346852 L42.8097643,6.45144077 C42.8263187,4.48239061 41.535073,3.58591249 39.4326599,3.58591249 Z M39.9789562,10.6296692 C39.7140853,10.8217716 39.3002245,10.9658485 38.8532548,10.9658485 C38.1414141,10.9658485 37.6613356,10.565635 37.6613356,9.94130203 C37.6613356,9.22091782 38.2572952,8.51654216 39.9624018,8.7886873 L39.9624018,10.6296692 L39.9789562,10.6296692 Z M45.1439394,3.44183565 L45.1439394,3.81003202 L43.637486,3.81003202 L43.637486,5.68303095 L45.1439394,5.68303095 L45.1439394,12.5667022 L47.9747475,12.5667022 L47.9747475,5.68303095 L49.9281706,5.68303095 L49.9281706,3.79402348 L47.9747475,3.79402348 L47.9747475,3.32977588 C47.9747475,2.56136606 48.2892817,2.00106724 49.1666667,2.00106724 C49.4315376,2.00106724 49.7626263,2.04909285 49.9943883,2.12913554 L49.9943883,0.176093917 C49.5970819,0.0800426894 49.1666667,0 48.6369248,0 C46.352413,0 45.1439394,1.36072572 45.1439394,3.44183565 Z M24.1529181,3.79402348 L22.1994949,9.02881537 L19.948092,3.79402348 L17.0345118,3.79402348 L20.8585859,12.1344717 L19.6666667,15 L22.3650393,15 L26.9506173,3.77801494 L24.1529181,3.77801494 L24.1529181,3.79402348 Z M4.70145903,0.704375667 L0,0.704375667 L0,12.5506937 L2.91358025,12.5506937 L2.91358025,8.22838847 L4.70145903,8.22838847 C7.06874299,8.22838847 8.84006734,6.8036286 8.84006734,4.38633938 C8.84006734,2.28922092 7.51571268,0.704375667 4.70145903,0.704375667 Z M4.3869248,6.16328709 L2.91358025,6.16328709 L2.91358025,2.76947705 L4.3869248,2.76947705 C5.4298541,2.76947705 6.02581369,3.47385272 6.02581369,4.48239061 C6.02581369,5.57097118 5.36363636,6.16328709 4.3869248,6.16328709 Z" id="Shape" fill="#372341"></path>
            <path d="M79.5618449,4 C77.7840671,4 76.3752621,4.51923077 75.5199161,5.02272727 L76.3081761,6.56468531 C76.8280922,6.34440559 77.9350105,5.95104895 78.8574423,5.95104895 C79.5283019,5.95104895 80.115304,6.17132867 80.115304,6.83216783 L80.115304,7.3986014 C76.1404612,7.13111888 75,8.76748252 75,10.277972 C75,11.756993 76.3417191,13 78.0859539,13 C78.7735849,13 79.5283019,12.7482517 80.0985325,12.4178322 L80.0985325,12.7954545 L83,12.7954545 L83,6.81643357 C83,4.88111888 81.6918239,4 79.5618449,4 Z M80.1320755,10.9230769 C79.8637317,11.1118881 79.4444444,11.2534965 78.9916143,11.2534965 C78.2704403,11.2534965 77.7840671,10.8601399 77.7840671,10.2465035 C77.7840671,9.53846154 78.3878407,8.84615385 80.115304,9.11363636 L80.115304,10.9230769 L80.1320755,10.9230769 Z" id="Shape" fill="#7887E6"></path>
            <path d="M84.8888889,10.4756098 C85.5079365,10.7735192 86.2857143,11.0400697 87.0952381,11.0400697 C87.8888889,11.0400697 88.3650794,10.804878 88.3650794,10.3344948 C88.3650794,9.08013937 84.2857143,9.59756098 84.2857143,6.728223 C84.2857143,4.90940767 85.9206349,4 87.952381,4 C89.0634921,4 90.1428571,4.32926829 90.8571429,4.68989547 L90.0952381,6.47735192 C89.5555556,6.24216028 88.7936508,5.9912892 88.0793651,5.9912892 C87.3968254,5.9912892 86.984127,6.24216028 86.984127,6.64982578 C86.984127,7.79442509 91,7.32404181 91,10.1463415 C91,11.9965157 89.3015873,13 87.3174603,13 C86.2063492,13 85.015873,12.7491289 84,12.2160279 L84.8888889,10.4756098 Z" id="Shape" fill="#7887E6"></path>
            <path d="M98.3072407,13 L98.3072407,7.05683356 C98.3072407,6.39106901 98.0254403,5.9526387 97.3835616,5.9526387 C96.7260274,5.9526387 96.037182,6.40730717 95.6927593,6.69959405 L95.6927593,12.9837618 L93,12.9837618 L93,1 L95.6927593,1 L95.6927593,5.07577808 C96.3816047,4.50744249 97.3365949,3.90663058 98.4324853,3.90663058 C99.5283757,3.90663058 101,4.49120433 101,6.92692828 L101,13 L98.3072407,13 Z" id="Shape" fill="#7887E6"></path>
            <path d="M72.3163636,9.77447552 C72.0872727,10.5611888 71.58,11.0646853 70.7290909,11.0646853 C69.4854545,11.0646853 68.9945455,9.94755245 68.9945455,8.53146853 C68.9945455,7.05244755 69.5345455,5.98251748 70.7290909,5.98251748 C71.5472727,5.98251748 72.0545455,6.47027972 72.3,7.25699301 L75,7.25699301 C74.4927273,5.18006993 72.7090909,4 70.7290909,4 C67.98,4 66,5.66783217 66,8.5 C66,11.3321678 67.9636364,13 70.7290909,13 C72.7254545,13 74.4927273,11.8199301 75,9.74300699 L72.3163636,9.74300699 L72.3163636,9.77447552 Z" id="Shape" fill="#7887E6"></path>
        </g>
    </g>
</svg>
