<?xml version="1.0" encoding="UTF-8" standalone="no"?>
<svg width="110px" height="64px" viewBox="0 0 110 64" version="1.1" xmlns="http://www.w3.org/2000/svg" xmlns:xlink="http://www.w3.org/1999/xlink">
    <!-- Generator: Sketch 41.2 (35397) - http://www.bohemiancoding.com/sketch -->
    <title>sepa</title>
    <desc>Created with Sketch.</desc>
    <defs></defs>
    <g id="Invoice-&amp;-Direct-Debit" stroke="none" stroke-width="1" fill="none" fill-rule="evenodd">
        <g id="sepa">
            <g transform="translate(12.000000, 17.000000)">
                <path d="M0.533393258,28.0927631 L1.4024764,28.0048268 C1.45465618,28.2975622 1.56133483,28.5121962 1.72077303,28.6493075 C1.88079101,28.7864187 2.09646742,28.8552636 2.36838202,28.8552636 C2.65595056,28.8552636 2.87336629,28.7939396 3.01888989,28.6724486 C3.16499326,28.5503791 3.23804494,28.4080611 3.23804494,28.2449161 C3.23804494,28.1402025 3.20731685,28.0511091 3.14586067,27.977636 C3.08498427,27.9041628 2.97772584,27.8405247 2.82524494,27.7855645 C2.72088539,27.7502743 2.48317753,27.6860576 2.11212135,27.5940716 C1.63438652,27.4766303 1.2992764,27.3314197 1.10621124,27.1590182 C0.83545618,26.9166148 0.700368539,26.6209867 0.700368539,26.2721341 C0.700368539,26.0482436 0.76414382,25.8382377 0.891694382,25.6432736 C1.01924494,25.447731 1.20361348,25.2990492 1.44422022,25.1966497 C1.68424719,25.0948287 1.97471461,25.0433396 2.31446292,25.0433396 C2.86988764,25.0433396 3.28790562,25.1654091 3.56851685,25.4089696 C3.84912809,25.6525301 3.99639101,25.9776631 4.01088539,26.3837901 L3.11455281,26.4190803 C3.07628764,26.1917186 2.99453933,26.0285736 2.86872809,25.9284882 C2.74349663,25.8295598 2.55448989,25.7792278 2.30344719,25.7792278 C2.04370787,25.7792278 1.84020674,25.8324525 1.6935236,25.9389017 C1.59902022,26.007168 1.55205843,26.0985755 1.55205843,26.2131242 C1.55205843,26.3178378 1.59612135,26.4069312 1.68424719,26.4815614 C1.7967236,26.5758615 2.07037753,26.6742114 2.50520899,26.7760324 C2.9388809,26.8778534 3.2600764,26.9837241 3.46879551,27.0936445 C3.67635506,27.2029864 3.83927191,27.3534038 3.95696629,27.5431611 C4.07466067,27.7340755 4.13321798,27.968958 4.13321798,28.2489658 C4.13321798,28.5029398 4.06306517,28.7401365 3.92217978,28.9617129 C3.78129438,29.1832892 3.58185169,29.3481699 3.32385169,29.4557762 C3.06643146,29.5633824 2.74523596,29.6171856 2.36084494,29.6171856 C1.80078202,29.6171856 1.37058876,29.4875952 1.07084494,29.2278359 C0.770521348,28.9680767 0.591370787,28.5897191 0.533393258,28.0927631 L0.533393258,28.0927631 Z" id="Shape" fill="#0054A6"></path>
                <path d="M5.0614382,29.5385057 L5.0614382,26.3398219 L5.91312809,26.3398219 L5.91312809,29.5385057 L5.0614382,29.5385057 L5.0614382,29.5385057 Z M5.0614382,25.9018759 L5.0614382,25.1220195 L5.91312809,25.1220195 L5.91312809,25.9018759 L5.0614382,25.9018759 L5.0614382,25.9018759 Z" id="Shape" fill="#0054A6"></path>
                <path d="M9.88864719,29.5385057 L9.0369573,29.5385057 L9.0369573,27.9024273 C9.0369573,27.5564672 9.01898427,27.3325767 8.98245843,27.2313343 C8.94651236,27.1295132 8.88795506,27.0502548 8.80678652,26.9941376 C8.72561798,26.9380203 8.62821573,26.9096724 8.514,26.9096724 C8.36731685,26.9096724 8.23628764,26.9501694 8.11975281,27.0305849 C8.00379775,27.1110003 7.92436854,27.2174496 7.88088539,27.3505111 C7.83798202,27.4829941 7.81653034,27.7282902 7.81653034,28.0863993 L7.81653034,29.5385057 L6.96426067,29.5385057 L6.96426067,26.3398219 L7.75507416,26.3398219 L7.75507416,26.8101655 C8.03452584,26.443957 8.38644944,26.261142 8.81142472,26.261142 C8.99869213,26.261142 9.16914607,26.2952752 9.32452584,26.3623845 C9.47932584,26.4300723 9.59644045,26.5156946 9.67586966,26.6204082 C9.75529888,26.7251219 9.8109573,26.8437202 9.84226517,26.9767817 C9.87299326,27.1092647 9.88864719,27.2996006 9.88864719,27.5466323 L9.88864719,29.5385057 L9.88864719,29.5385057 Z" id="Shape" fill="#0054A6"></path>
                <path d="M11.6111596,27.8700297 C11.6111596,28.2107829 11.6766742,28.4601287 11.8077034,28.6174884 C11.9381528,28.7760052 12.0993303,28.8552636 12.291236,28.8552636 C12.4970562,28.8552636 12.670409,28.7736911 12.8124539,28.6117031 C12.9539191,28.4497152 13.0252315,28.2096259 13.0252315,27.8914352 C13.0252315,27.5593599 12.9573978,27.3123282 12.8211506,27.1514973 C12.6854831,26.9900879 12.5138697,26.9096724 12.3063101,26.9096724 C12.1045483,26.9096724 11.9381528,26.9889308 11.8077034,27.1468691 C11.6766742,27.3053859 11.6111596,27.5460537 11.6111596,27.8700297 L11.6111596,27.8700297 Z M10.8475955,29.7485115 L11.8135011,29.8538037 C11.8297348,29.9729806 11.8668404,30.0545531 11.9253978,30.0996783 C12.0065663,30.1633164 12.1335371,30.195714 12.3074697,30.195714 C12.5295236,30.195714 12.6959191,30.1627379 12.807236,30.0962071 C12.882027,30.052239 12.9382652,29.9805015 12.9771101,29.8821516 C13.0032,29.8115711 13.0159551,29.6825593 13.0159551,29.4933805 L13.0188539,29.026508 C12.7678112,29.3678398 12.4489348,29.5385057 12.0622247,29.5385057 C11.6314517,29.5385057 11.289964,29.3568478 11.0377618,28.9923749 C10.8406382,28.7048462 10.7420764,28.3461586 10.7420764,27.9180475 C10.7420764,27.3805946 10.8713663,26.9704179 11.1299461,26.686939 C11.3891056,26.4028815 11.7108809,26.261142 12.0952719,26.261142 C12.492418,26.261142 12.819991,26.4352791 13.077991,26.7829747 L13.077991,26.3398219 L13.8682247,26.3398219 L13.8682247,29.2151083 C13.8682247,29.5934659 13.8369169,29.8757878 13.7743011,30.0626525 C13.7116854,30.2500957 13.6241393,30.3964634 13.5110831,30.5029126 C13.3986067,30.6099404 13.2478652,30.6932485 13.0594382,30.7534155 C12.8704315,30.8135824 12.6321438,30.8442444 12.3439955,30.8442444 C11.7995865,30.8442444 11.4134562,30.7505228 11.1861843,30.5636581 C10.9583326,30.3762149 10.8441169,30.1390183 10.8441169,29.8520681 C10.8441169,29.8237202 10.8452764,29.7890085 10.8475955,29.7485115 L10.8475955,29.7485115 Z" id="Shape" fill="#0054A6"></path>
                <rect id="Rectangle-path" fill="#0054A6" x="14.8880494" y="25.1220195" width="0.852269663" height="4.41648621"></rect>
                <path d="M18.7052899,27.6721729 C18.6994921,27.4228272 18.6357169,27.2342269 18.513964,27.104058 C18.392791,26.9744676 18.2449483,26.9096724 18.070436,26.9096724 C17.8843281,26.9096724 17.7301079,26.9785173 17.6089348,27.11505 C17.487182,27.2515827 17.4274652,27.4372904 17.4297843,27.6721729 L18.7052899,27.6721729 L18.7052899,27.6721729 Z M18.6618067,28.5307092 L19.5048,28.6712916 C19.3958022,28.9790687 19.223609,29.2139513 18.9882202,29.3753607 C18.7528315,29.5367701 18.4583056,29.6171856 18.1052225,29.6171856 C17.5457393,29.6171856 17.1317798,29.4349491 16.8633438,29.0698977 C16.6511461,28.7777408 16.5450472,28.4092182 16.5450472,27.9631727 C16.5450472,27.4315051 16.6841933,27.0149646 16.9630652,26.7135513 C17.2419371,26.412138 17.5938607,26.261142 18.0194157,26.261142 C18.4983101,26.261142 18.875164,26.4196588 19.1517169,26.7355354 C19.4282697,27.0519904 19.5604584,27.5362187 19.5482831,28.1887988 L17.4147101,28.1887988 C17.4205079,28.4410372 17.4900809,28.6365799 17.6216899,28.7765837 C17.7538787,28.9165876 17.9185348,28.9865896 18.1156584,28.9865896 C18.2501663,28.9865896 18.3626427,28.9507208 18.4542472,28.8784048 C18.5452719,28.8066672 18.6148449,28.690383 18.6618067,28.5307092 L18.6618067,28.5307092 Z" id="Shape" fill="#0054A6"></path>
                <polygon id="Shape" fill="#0054A6" points="22.3352629 29.5385057 22.3352629 25.1220195 25.6109933 25.1220195 25.6109933 25.8671642 23.2310157 25.8671642 23.2310157 26.8483484 25.444018 26.8483484 25.444018 27.5929145 23.2310157 27.5929145 23.2310157 28.7933611 25.6985393 28.7933611 25.6985393 29.5385057"></polygon>
                <path d="M28.7429393,29.5385057 L28.7429393,29.0594842 C28.6258247,29.2301501 28.4721843,29.3661042 28.2814382,29.4667682 C28.0906921,29.5668536 27.8895101,29.6171856 27.6778921,29.6171856 C27.461636,29.6171856 27.267991,29.5697463 27.0963775,29.4754461 C26.9253438,29.381146 26.8006921,29.2480844 26.7241618,29.0774185 C26.6476315,28.9061741 26.6093663,28.6701345 26.6093663,28.3681427 L26.6093663,26.3398219 L27.4610562,26.3398219 L27.4610562,27.8110198 C27.4610562,28.2611149 27.4761303,28.537073 27.508018,28.6383154 C27.5393258,28.740715 27.595564,28.8205519 27.6784719,28.8801403 C27.7608,28.9391502 27.8657393,28.9686552 27.9927101,28.9686552 C28.1376539,28.9686552 28.2675236,28.9293153 28.3823191,28.8500569 C28.4971146,28.7707985 28.575964,28.6724486 28.6182876,28.5544288 C28.6600315,28.4369875 28.6814831,28.1488804 28.6814831,27.6906858 L28.6814831,26.3398219 L29.533173,26.3398219 L29.533173,29.5385057 L28.7429393,29.5385057 L28.7429393,29.5385057 Z" id="Shape" fill="#0054A6"></path>
                <path d="M31.4052674,29.5385057 L30.5535775,29.5385057 L30.5535775,26.3398219 L31.3438112,26.3398219 L31.3438112,26.7951238 C31.4788989,26.5799112 31.6000719,26.4375932 31.7079101,26.3670127 C31.8157483,26.2964323 31.9380809,26.261142 32.0754876,26.261142 C32.2685528,26.261142 32.4552404,26.3149452 32.634391,26.4213944 L32.3752315,27.1624894 C32.232027,27.0699248 32.0980989,27.0236425 31.9751865,27.0236425 C31.8557528,27.0236425 31.7548719,27.0566187 31.671964,27.1214138 C31.5890562,27.1873661 31.5241213,27.3053859 31.4765798,27.4760518 C31.4290382,27.6467177 31.4052674,28.0048268 31.4052674,28.5492221 L31.4052674,29.5385057 L31.4052674,29.5385057 Z" id="Shape" fill="#0054A6"></path>
                <path d="M33.8472809,27.9394531 C33.8472809,28.2582223 33.9226517,28.5017827 34.0745528,28.6712916 C34.2258742,28.8402219 34.4125618,28.9252656 34.6346157,28.9252656 C34.8566697,28.9252656 35.0427775,28.8402219 35.1935191,28.6712916 C35.3436809,28.5017827 35.4190517,28.2559081 35.4190517,27.9330893 C35.4190517,27.6189483 35.3436809,27.3765449 35.1935191,27.2076146 C35.0427775,27.0381057 34.8566697,26.9536406 34.6346157,26.9536406 C34.4125618,26.9536406 34.2258742,27.0381057 34.0745528,27.2076146 C33.9226517,27.3765449 33.8472809,27.6206839 33.8472809,27.9394531 Z M32.977618,27.8937493 C32.977618,27.6114274 33.047191,27.338362 33.1863371,27.074553 C33.3254831,26.8107441 33.522027,26.6088376 33.7765483,26.4699908 C34.0316494,26.3305655 34.3163191,26.261142 34.6299775,26.261142 C35.1152494,26.261142 35.5129753,26.4190803 35.8231551,26.7343783 C36.1333348,27.0496763 36.2881348,27.4482824 36.2881348,27.9301966 C36.2881348,28.4161605 36.1315955,28.8188163 35.8185169,29.138164 C35.5054382,29.4575117 35.111191,29.6171856 34.6363551,29.6171856 C34.342409,29.6171856 34.0617978,29.5506548 33.7951011,29.4181718 C33.5278247,29.2851103 33.3254831,29.0901462 33.1863371,28.832701 C33.047191,28.5758344 32.977618,28.2628505 32.977618,27.8937493 L32.977618,27.8937493 Z" id="Shape" fill="#0054A6"></path>
                <path d="M39.9575326,25.8671642 L39.9575326,27.1289347 L40.4457034,27.1289347 C40.7970472,27.1289347 41.0318562,27.1057936 41.1501303,27.0595113 C41.2684045,27.0126505 41.3617483,26.9397559 41.4290022,26.8408275 C41.4956764,26.7418992 41.5298831,26.6261935 41.5298831,26.4948675 C41.5298831,26.3328796 41.4823416,26.199818 41.3878382,26.0945258 C41.2939146,25.9898122 41.1744809,25.9238599 41.0295371,25.8972476 C40.9234382,25.8769991 40.7095011,25.8671642 40.3883056,25.8671642 L39.9575326,25.8671642 L39.9575326,25.8671642 Z M39.0623596,29.5385057 L39.0623596,25.1220195 L40.4961438,25.1220195 C41.0388135,25.1220195 41.393636,25.1445821 41.5582921,25.1885503 C41.8116539,25.2545025 42.0238517,25.3991346 42.1948854,25.6212896 C42.3664989,25.842866 42.4517258,26.1298161 42.4517258,26.4815614 C42.4517258,26.7523127 42.4024449,26.9802529 42.3038831,27.165382 C42.2053213,27.3499326 42.0800899,27.4951432 41.9281888,27.6010139 C41.7768674,27.7063061 41.6226472,27.7757295 41.4655281,27.8104412 C41.2521708,27.8526738 40.9437303,27.8735008 40.5402067,27.8735008 L39.9575326,27.8735008 L39.9575326,29.5385057 L39.0623596,29.5385057 L39.0623596,29.5385057 Z" id="Shape" fill="#0054A6"></path>
                <path d="M45.1273888,28.0048268 C45.018391,28.0412741 44.8467775,28.0846637 44.6119685,28.1349957 C44.3771596,28.1853277 44.2235191,28.2350811 44.151627,28.283099 C44.0408899,28.3617788 43.9858112,28.4618643 43.9858112,28.5827767 C43.9858112,28.7019536 44.0298742,28.8043531 44.118,28.8917109 C44.2067056,28.9779116 44.319182,29.0213013 44.456009,29.0213013 C44.6084899,29.0213013 44.7534337,28.9709693 44.8925798,28.8703054 C44.9946202,28.7933611 45.0624539,28.6996395 45.0943416,28.5891405 C45.116373,28.5162459 45.1273888,28.3779776 45.1273888,28.1743356 L45.1273888,28.0048268 Z M43.9858112,27.3129068 L43.2216674,27.1723243 C43.3086337,26.8628116 43.457636,26.6337144 43.6686742,26.4850325 C43.8802921,26.3357722 44.1945303,26.261142 44.6113888,26.261142 C44.9894022,26.261142 45.2717528,26.3062673 45.4567011,26.3953606 C45.6422292,26.4856111 45.7726787,26.5990027 45.8480494,26.7366924 C45.924,26.8743822 45.9616854,27.1271991 45.9616854,27.4957218 L45.9529888,28.4855839 C45.9529888,28.7667488 45.9663236,28.975019 45.993573,29.1086591 C46.0208225,29.2422992 46.0712629,29.3857742 46.1460539,29.5385057 L45.3030607,29.5385057 C45.2804494,29.482967 45.2537798,29.4008159 45.2213124,29.2920526 C45.2073978,29.2422992 45.1969618,29.2099016 45.191164,29.1937028 C45.0462202,29.3348637 44.8914202,29.4407344 44.726764,29.5118934 C44.5615281,29.5818954 44.3858562,29.6171856 44.1991685,29.6171856 C43.8692764,29.6171856 43.6089573,29.5275137 43.418791,29.3487484 C43.2286247,29.1694046 43.1341213,28.9431999 43.1341213,28.669556 C43.1341213,28.4884766 43.1770247,28.3270671 43.2634112,28.1853277 C43.3503775,28.0430097 43.4715506,27.9342463 43.6275101,27.8590376 C43.7840494,27.7838289 44.0090022,27.7172982 44.3029483,27.6611809 C44.6995146,27.5865507 44.9743281,27.5177058 45.1273888,27.4529106 L45.1273888,27.3672884 C45.1273888,27.2024078 45.0868045,27.0849666 45.0062157,27.0149646 C44.9250472,26.9443841 44.7719865,26.9096724 44.5476135,26.9096724 C44.3957124,26.9096724 44.2774382,26.9397559 44.1922112,26.9987658 C44.1069843,27.0589328 44.037991,27.1630679 43.9858112,27.3129068 Z" id="Shape" fill="#0054A6"></path>
                <path d="M46.5733483,26.3398219 L47.477218,26.3398219 L48.246,28.6105461 L48.996809,26.3398219 L49.8751685,26.3398219 L48.7451865,29.4181718 L48.5387865,29.9805015 C48.4645753,30.1679447 48.3932629,30.3102627 48.326009,30.409191 C48.2581753,30.5075409 48.1804854,30.5879563 48.0929393,30.6487018 C48.0048135,30.7106044 47.8975551,30.7586222 47.7694247,30.7927554 C47.6412944,30.8268886 47.4963506,30.8442444 47.335173,30.8442444 C47.1716764,30.8442444 47.0110787,30.8268886 46.8539596,30.7927554 L46.7751101,30.1297618 C46.9084584,30.1563741 47.0290517,30.1691017 47.1363101,30.1691017 C47.335173,30.1691017 47.4812764,30.1106704 47.5763596,29.9938076 C47.6720225,29.8769449 47.7444944,29.7276845 47.7949348,29.5471836 L46.5733483,26.3398219 L46.5733483,26.3398219 Z" id="Shape" fill="#0054A6"></path>
                <path d="M50.5390112,26.3398219 L51.3205483,26.3398219 L51.3205483,26.7771894 C51.6011596,26.432965 51.9356899,26.261142 52.3235596,26.261142 C52.5288,26.261142 52.7079506,26.3033746 52.8592719,26.3878398 C53.0105933,26.4723049 53.1346652,26.6001597 53.2314876,26.7708256 C53.372373,26.6001597 53.5254337,26.4723049 53.6883506,26.3878398 C53.8518472,26.3033746 54.0257798,26.261142 54.2113079,26.261142 C54.4472764,26.261142 54.6467191,26.3091599 54.809636,26.4046171 C54.9731326,26.5000743 55.0954652,26.6406567 55.1760539,26.8257858 C55.2340315,26.9623185 55.2636,27.1833164 55.2636,27.4893579 L55.2636,29.5385057 L54.4119101,29.5385057 L54.4119101,27.7063061 C54.4119101,27.388694 54.3823416,27.1833164 54.324364,27.0907518 C54.2455146,26.9698394 54.1249213,26.9096724 53.9625843,26.9096724 C53.8437303,26.9096724 53.7318337,26.9455412 53.6268944,27.0184358 C53.5225348,27.0907518 53.447164,27.1972011 53.4013618,27.3366264 C53.3549798,27.4766303 53.3317888,27.6976282 53.3317888,27.9990415 L53.3317888,29.5385057 L52.4800989,29.5385057 L52.4800989,27.7820933 C52.4800989,27.469688 52.4650247,27.2689386 52.4348764,27.1781096 C52.4047281,27.0878592 52.3577663,27.0201714 52.2945708,26.9762032 C52.2307955,26.932235 52.1449888,26.9096724 52.0365708,26.9096724 C51.9055416,26.9096724 51.7878472,26.9449627 51.6834876,27.0155431 C51.5791281,27.0855451 51.5043371,27.1873661 51.4585348,27.3198491 C51.4133124,27.4529106 51.3907011,27.67333 51.3907011,27.9811071 L51.3907011,29.5385057 L50.5390112,29.5385057 L50.5390112,26.3398219 L50.5390112,26.3398219 Z" id="Shape" fill="#0054A6"></path>
                <path d="M58.1972629,27.6721729 C58.1914652,27.4228272 58.1276899,27.2342269 58.0059371,27.104058 C57.884764,26.9744676 57.7363416,26.9096724 57.562409,26.9096724 C57.3763011,26.9096724 57.2220809,26.9785173 57.1009079,27.11505 C56.9791551,27.2515827 56.9194382,27.4372904 56.9217573,27.6721729 L58.1972629,27.6721729 Z M58.1537798,28.5307092 L58.996773,28.6712916 C58.8871955,28.9790687 58.715582,29.2139513 58.4801933,29.3753607 C58.2448045,29.5367701 57.9502787,29.6171856 57.5971955,29.6171856 C57.0377124,29.6171856 56.6237528,29.4349491 56.3553169,29.0698977 C56.1431191,28.7777408 56.0370202,28.4092182 56.0370202,27.9631727 C56.0370202,27.4315051 56.1767461,27.0149646 56.4550382,26.7135513 C56.7339101,26.412138 57.0852539,26.261142 57.5113888,26.261142 C57.9902831,26.261142 58.3671371,26.4196588 58.6436899,26.7355354 C58.9202427,27.0519904 59.0524315,27.5362187 59.0402562,28.1887988 L56.9066831,28.1887988 C56.9124809,28.4410372 56.9820539,28.6365799 57.1136629,28.7765837 C57.2458517,28.9165876 57.4105079,28.9865896 57.6076315,28.9865896 C57.7421393,28.9865896 57.8546157,28.9507208 57.9456404,28.8784048 C58.0378247,28.8066672 58.106818,28.690383 58.1537798,28.5307092 L58.1537798,28.5307092 Z" id="Shape" fill="#0054A6"></path>
                <path d="M62.830827,29.5385057 L61.9791371,29.5385057 L61.9791371,27.9024273 C61.9791371,27.5564672 61.961164,27.3325767 61.925218,27.2313343 C61.8886921,27.1295132 61.8301348,27.0502548 61.7489663,26.9941376 C61.6677978,26.9380203 61.5698157,26.9096724 61.4561798,26.9096724 C61.3094966,26.9096724 61.1784674,26.9501694 61.0625124,27.0305849 C60.9459775,27.1110003 60.8665483,27.2174496 60.8230652,27.3505111 C60.7801618,27.4829941 60.7587101,27.7282902 60.7587101,28.0863993 L60.7587101,29.5385057 L59.9070202,29.5385057 L59.9070202,26.3398219 L60.6966742,26.3398219 L60.6966742,26.8101655 C60.9767056,26.443957 61.329209,26.261142 61.7530247,26.261142 C61.9402921,26.261142 62.1113258,26.2952752 62.2661258,26.3623845 C62.4209258,26.4300723 62.5386202,26.5156946 62.6180494,26.6204082 C62.6974787,26.7251219 62.7525573,26.8437202 62.7838652,26.9767817 C62.815173,27.1092647 62.830827,27.2996006 62.830827,27.5466323 L62.830827,29.5385057 L62.830827,29.5385057 Z" id="Shape" fill="#0054A6"></path>
                <path d="M65.3441528,26.3398219 L65.3441528,27.0149646 L64.7643775,27.0149646 L64.7643775,28.3085542 C64.7643775,28.5706276 64.7695955,28.7233591 64.7806112,28.7667488 C64.7910472,28.8101384 64.8159775,28.8460072 64.8542427,28.8737765 C64.8930876,28.9021244 64.9400494,28.9165876 64.9951281,28.9165876 C65.072818,28.9165876 65.1841348,28.8893968 65.330818,28.8350151 L65.4050292,29.4904879 C65.2084854,29.574953 64.9864315,29.6171856 64.7382876,29.6171856 C64.5858067,29.6171856 64.4489798,29.5917303 64.3266472,29.5402413 C64.2048944,29.4893308 64.1150292,29.4222215 64.0576315,29.340649 C64.0008135,29.259655 63.9613888,29.1491561 63.9393573,29.0108878 C63.9213843,28.9119594 63.9126876,28.7123671 63.9126876,28.4126894 L63.9126876,27.0149646 L63.5259775,27.0149646 L63.5259775,26.3398219 L63.9126876,26.3398219 L63.9126876,25.700548 L64.7643775,25.2012779 L64.7643775,26.3398219 L65.3441528,26.3398219 L65.3441528,26.3398219 Z" id="Shape" fill="#0054A6"></path>
                <path d="M65.8230472,28.6360013 L66.6747371,28.5046754 C66.7112629,28.6678204 66.7843146,28.7916255 66.8944719,28.8766692 C67.005209,28.9617129 67.160009,29.0039454 67.3588719,29.0039454 C67.5786067,29.0039454 67.7432629,28.9634484 67.854,28.8824545 C67.9282112,28.8257587 67.9658966,28.75055 67.9658966,28.6550928 C67.9658966,28.5902976 67.9450247,28.5364944 67.9044404,28.4948404 C67.8621169,28.4537649 67.7670337,28.4167391 67.619191,28.3820273 C66.9309978,28.2304529 66.494427,28.0921846 66.3106382,27.967801 C66.0555371,27.7942424 65.9285663,27.5535746 65.9285663,27.2457975 C65.9285663,26.9681038 66.0381438,26.7343783 66.2590382,26.5451995 C66.4799326,26.3560207 66.8214202,26.261142 67.2852404,26.261142 C67.7264494,26.261142 68.0540225,26.332301 68.2685393,26.4740405 C68.4830562,26.61578 68.6308989,26.8252073 68.7120674,27.1023224 L67.9125573,27.2515827 C67.8783506,27.1271991 67.8122562,27.0317419 67.7160135,26.9652112 C67.619191,26.8986804 67.4812045,26.8657043 67.3020539,26.8657043 C67.0759416,26.8657043 66.9136045,26.8969448 66.8162022,26.9600044 C66.7506876,27.0045511 66.7188,27.0618254 66.7188,27.1324059 C66.7188,27.1931514 66.7466292,27.2446404 66.8034472,27.2874515 C66.8799775,27.3441473 67.1455146,27.4239842 67.5994787,27.5269623 C68.0534427,27.6299404 68.3705798,27.7566381 68.5503101,27.9058984 C68.7283011,28.0574729 68.8175865,28.2686358 68.8175865,28.5388086 C68.8175865,28.8338581 68.6940944,29.0872535 68.4488494,29.2989949 C68.2030247,29.5113149 67.8400854,29.6171856 67.3588719,29.6171856 C66.9223011,29.6171856 66.5767551,29.5292493 66.3222337,29.3533766 C66.0677124,29.1769254 65.9013169,28.9379932 65.8230472,28.6360013 L65.8230472,28.6360013 Z" id="Shape" fill="#0054A6"></path>
                <path d="M74.0007775,27.794821 L73.3821573,26.1558499 L72.784409,27.794821 L74.0007775,27.794821 Z M75.6432809,29.5385057 L74.6791146,29.5385057 L74.2964629,28.5393871 L72.5124944,28.5393871 L72.1478157,29.5385057 L71.1998831,29.5385057 L72.9142787,25.1220195 L73.8564135,25.1220195 L75.6432809,29.5385057 Z" id="Shape" fill="#0054A6"></path>
                <path d="M77.1060539,29.5385057 L76.254364,29.5385057 L76.254364,26.3398219 L77.0445978,26.3398219 L77.0445978,26.7951238 C77.1796854,26.5799112 77.3008584,26.4375932 77.4086966,26.3670127 C77.5165348,26.2964323 77.6388674,26.261142 77.7762742,26.261142 C77.9693393,26.261142 78.1554472,26.3149452 78.3351775,26.4213944 L78.076018,27.1624894 C77.9328135,27.0699248 77.7988854,27.0236425 77.675973,27.0236425 C77.5565393,27.0236425 77.4556584,27.0566187 77.3727506,27.1214138 C77.2898427,27.1873661 77.2243281,27.3053859 77.1773663,27.4760518 C77.1292449,27.6467177 77.1060539,28.0048268 77.1060539,28.5492221 L77.1060539,29.5385057 L77.1060539,29.5385057 Z" id="Shape" fill="#0054A6"></path>
                <path d="M80.795164,27.6721729 C80.7887865,27.4228272 80.7250112,27.2342269 80.6032584,27.104058 C80.4820854,26.9744676 80.3342427,26.9096724 80.1603101,26.9096724 C79.9736225,26.9096724 79.819982,26.9785173 79.6982292,27.11505 C79.5764764,27.2515827 79.5167596,27.4372904 79.5190787,27.6721729 L80.795164,27.6721729 Z M80.7511011,28.5307092 L81.5940944,28.6712916 C81.4850966,28.9790687 81.3129034,29.2139513 81.0775146,29.3753607 C80.8421258,29.5367701 80.5476,29.6171856 80.1945169,29.6171856 C79.6350337,29.6171856 79.2210742,29.4349491 78.9526382,29.0698977 C78.7404404,28.7777408 78.6343416,28.4092182 78.6343416,27.9631727 C78.6343416,27.4315051 78.7740674,27.0149646 79.0529393,26.7135513 C79.3306517,26.412138 79.6831551,26.261142 80.1087101,26.261142 C80.5870247,26.261142 80.9644584,26.4196588 81.241591,26.7355354 C81.517564,27.0519904 81.6497528,27.5362187 81.6381573,28.1887988 L79.5040045,28.1887988 C79.510382,28.4410372 79.5793753,28.6365799 79.7109843,28.7765837 C79.843173,28.9165876 80.0078292,28.9865896 80.2049528,28.9865896 C80.3394607,28.9865896 80.4519371,28.9507208 80.5435416,28.8784048 C80.6351461,28.8066672 80.7041393,28.690383 80.7511011,28.5307092 L80.7511011,28.5307092 Z" id="Shape" fill="#0054A6"></path>
                <path d="M84.2778742,28.0048268 C84.1694562,28.0412741 83.9972629,28.0846637 83.7624539,28.1349957 C83.5276449,28.1853277 83.3740045,28.2350811 83.3021124,28.283099 C83.1913753,28.3617788 83.1362966,28.4618643 83.1362966,28.5827767 C83.1362966,28.7019536 83.1803596,28.8043531 83.2690652,28.8917109 C83.357191,28.9779116 83.4696674,29.0213013 83.6064944,29.0213013 C83.7589753,29.0213013 83.9039191,28.9709693 84.0430652,28.8703054 C84.1451056,28.7933611 84.2129393,28.6996395 84.244827,28.5891405 C84.2668584,28.5162459 84.2778742,28.3779776 84.2778742,28.1743356 L84.2778742,28.0048268 L84.2778742,28.0048268 Z M83.1362966,27.3129068 L82.3727326,27.1723243 C82.4591191,26.8628116 82.6081213,26.6337144 82.8191596,26.4850325 C83.0307775,26.3357722 83.3450157,26.261142 83.7618742,26.261142 C84.1404674,26.261142 84.4222382,26.3062673 84.6077663,26.3953606 C84.7927146,26.4856111 84.923164,26.5990027 84.9985348,26.7366924 C85.0744854,26.8743822 85.1121708,27.1271991 85.1121708,27.4957218 L85.1034742,28.4855839 C85.1034742,28.7667488 85.116809,28.975019 85.1440584,29.1086591 C85.1713079,29.2422992 85.2223281,29.3857742 85.2965393,29.5385057 L84.4535461,29.5385057 C84.4309348,29.482967 84.4042652,29.4008159 84.3717978,29.2920526 C84.3578831,29.2422992 84.3474472,29.2099016 84.3422292,29.1937028 C84.1972854,29.3348637 84.0424854,29.4407344 83.8772494,29.5118934 C83.7125933,29.5818954 83.5369213,29.6171856 83.3496539,29.6171856 C83.0197618,29.6171856 82.7594427,29.5275137 82.5692764,29.3487484 C82.3796899,29.1694046 82.2846067,28.9431999 82.2846067,28.669556 C82.2846067,28.4884766 82.3275101,28.3270671 82.4144764,28.1853277 C82.5008629,28.0430097 82.622036,27.9342463 82.7779955,27.8590376 C82.9345348,27.7838289 83.1594876,27.7172982 83.4534337,27.6611809 C83.85,27.5865507 84.1248135,27.5177058 84.2778742,27.4529106 L84.2778742,27.3672884 C84.2778742,27.2024078 84.2372899,27.0849666 84.1567011,27.0149646 C84.0755326,26.9443841 83.9224719,26.9096724 83.6980989,26.9096724 C83.5461978,26.9096724 83.4279236,26.9397559 83.3426966,26.9987658 C83.2580494,27.0589328 83.1884764,27.1630679 83.1362966,27.3129068 L83.1362966,27.3129068 Z" id="Shape" fill="#0054A6"></path>
                <path d="M19.3418831,7.76905859 L13.542391,7.76905859 C13.542391,6.81911487 13.4304944,6.18215504 13.2084404,5.85760058 C12.8628944,5.37742196 11.9103236,5.13733266 10.3513079,5.13733266 C8.83693483,5.13733266 7.8339236,5.27560096 7.34401348,5.55213756 C6.85410337,5.82983121 6.60885843,6.43323639 6.60885843,7.36293161 C6.60885843,8.20469051 6.82627416,8.75834224 7.26110562,9.0238868 C7.57244494,9.21248708 7.98466517,9.32356454 8.49776629,9.35654066 L9.66717303,9.4386917 C12.1735416,9.60472937 13.7395146,9.72217064 14.3639326,9.78812289 C16.3461843,9.9877152 17.7834472,10.5135976 18.6745618,11.3663485 C19.3766697,12.0310777 19.7946876,12.9000274 19.9286157,13.9737762 C20.0063056,14.6159428 20.0451506,15.3425746 20.0451506,16.1496217 C20.0451506,18.0101692 19.8671596,19.3731823 19.5111775,20.2363467 C18.8653079,21.8209362 17.4147101,22.8217904 15.1576449,23.2423806 C14.2120315,23.4199888 12.7654921,23.5090822 10.8197663,23.5090822 C7.57186517,23.5090822 5.30842247,23.3158537 4.03059775,22.9282396 C2.46230562,22.4532678 1.42798652,21.4905964 0.927640449,20.0419612 C0.648768539,19.234914 0.510202247,17.8915709 0.510202247,16.0113534 L6.30969438,16.0113534 C6.30969438,16.2207807 6.31085393,16.3810331 6.31085393,16.4921106 C6.31085393,17.4952789 6.59958202,18.1409167 7.17645843,18.4278668 C7.57650337,18.6263021 8.05945618,18.7304372 8.6264764,18.7425863 L10.7588899,18.7425863 C11.8465483,18.7425863 12.5411191,18.6870475 12.8408629,18.5753915 C13.3736764,18.3665428 13.7238607,18.0298392 13.890836,17.5635453 C13.9795416,17.2765952 14.0236045,16.9057584 14.0236045,16.4510351 C14.0236045,15.4334035 13.6513888,14.8143781 12.9081169,14.5922232 C12.6304045,14.5048654 11.3375056,14.3822173 9.02884045,14.2271717 C7.17529888,14.0958457 5.88761798,13.9685695 5.1669573,13.8453429 C3.26819326,13.4912835 2.0031236,12.7617591 1.37116854,11.6556127 C0.816323596,10.715504 0.538611236,9.29290253 0.538611236,7.39012245 C0.538611236,5.94090868 0.688773034,4.77922354 0.988516854,3.90506705 C1.28884045,3.03091056 1.77237303,2.36733843 2.43969438,1.91319359 C3.41719551,1.21664534 4.66835056,0.807047191 6.19084045,0.684977688 C7.45822921,0.574478753 8.86360449,0.518361493 10.4098652,0.518361493 C12.8437618,0.518361493 14.5784494,0.658365379 15.6127685,0.934901979 C18.1365303,1.61178027 19.3981213,3.50703948 19.3981213,6.62125814 C19.3981213,6.87696771 19.3795685,7.25879649 19.3418831,7.76905859 L19.3418831,7.76905859 Z" id="Shape" fill="#0054A6"></path>
                <path d="M51.0782022,12.180338 L54.9650157,12.180338 C56.1970382,12.1357913 56.9461079,12.0409127 57.2162831,11.8928094 C57.5844404,11.690903 57.8320045,11.2865116 57.9549169,10.6796352 C58.0337663,10.2752438 58.073191,9.67473131 58.073191,8.87694057 C58.073191,7.89922749 57.9949213,7.17433134 57.8378022,6.70167359 C57.6134292,6.03810146 57.0765573,5.6342886 56.226027,5.4879209 C56.0578921,5.46593682 55.6549483,5.45378772 55.0171955,5.45378772 L51.0782022,5.45378772 L51.0782022,12.180338 L51.0782022,12.180338 Z M44.8444584,23.5090822 L44.8444584,0.39629199 L56.4590966,0.39629199 C58.0517393,0.39629199 59.2675281,0.526460892 60.1024045,0.78506311 C62.012764,1.382683 63.2946472,2.60569215 63.9509528,4.45351203 C64.2901213,5.42370424 64.4594157,6.88391005 64.4594157,8.83412947 C64.4594157,11.1783268 64.2715685,12.8630016 63.8993528,13.8887326 C63.1543416,15.9176318 61.620836,17.0856808 59.3057933,17.3882512 C59.0332989,17.4339549 57.8749079,17.4744519 55.8300404,17.5068495 L54.7951416,17.5415612 L51.0782022,17.5415612 L51.0782022,23.5090822 L44.8444584,23.5090822 L44.8444584,23.5090822 Z" id="Shape" fill="#0054A6"></path>
                <path d="M76.528018,15.0116563 L73.6071101,4.99327907 L70.7731685,15.0116563 L76.528018,15.0116563 L76.528018,15.0116563 Z M77.766418,19.5143432 L69.4315685,19.5143432 L68.3114427,23.5090822 L61.8620225,23.5090822 L68.8210652,0.39629199 L78.2250202,0.39629199 L85.2698697,23.5090822 L78.9555371,23.5090822 L77.766418,19.5143432 L77.766418,19.5143432 Z" id="Shape" fill="#0054A6"></path>
                <path d="M36.2405933,3.64820042 C38.8118966,3.64820042 41.1066472,4.83013405 42.6146427,6.68084657 L43.9585618,3.80613869 C41.8568764,1.82410021 38.9968449,0.602248119 35.8417079,0.602248119 C30.9298517,0.602248119 26.7282202,3.56257821 25.0033888,7.75285979 L22.3833843,7.75285979 L20.835964,11.0626211 L24.2067775,11.0626211 C24.1818472,11.3698197 24.1656135,11.6770183 24.1656135,11.9900022 C24.1656135,12.3695168 24.1847461,12.7444033 24.2224315,13.11524 L22.5283281,13.11524 L20.9814876,16.4255798 L25.0839775,16.4255798 C26.8575101,20.5099907 31.0069618,23.3771777 35.8417079,23.3771777 C38.2785034,23.3771777 40.539627,22.6488104 42.4117213,21.4043957 L42.4117213,17.3465971 C40.9037258,19.0596199 38.6988404,20.1420466 36.2405933,20.1420466 C33.367227,20.1420466 30.8394067,18.6633279 29.3673573,16.4255798 L37.9578876,16.4255798 L39.5053079,13.11524 L28.1034472,13.11524 C28.0448899,12.7166339 28.013582,12.3093499 28.013582,11.894545 C28.013582,11.6139587 28.0280764,11.3368436 28.0547461,11.0626211 L40.4636764,11.0626211 L42.0105169,7.75285979 L29.1279101,7.75285979 C30.5529978,5.29932062 33.2043101,3.64820042 36.2405933,3.64820042 L36.2405933,3.64820042 Z" id="Shape" fill="#FFC20D"></path>
                <path d="M29.1279101,7.85178816 L42.0105169,7.85178816 L41.9206517,7.71062721 L40.374391,11.020967 L40.4636764,10.9631142 L28.0547461,10.9631142 L27.9654607,10.9631142 L27.9556045,11.0533646 C27.9277753,11.3327939 27.9138607,11.6162728 27.9138607,11.894545 C27.9138607,12.3041431 27.9445888,12.7201051 28.0054652,13.1297032 L28.0182202,13.2147469 L39.5053079,13.2147469 L39.4154427,13.073586 L37.8680225,16.3839258 L37.9578876,16.3266515 L29.3673573,16.3266515 L29.1829888,16.3266515 L29.2844494,16.479383 C30.8324494,18.8351508 33.4333213,20.2398179 36.2405933,20.2398179 C38.6269483,20.2398179 40.9037258,19.2100373 42.4865124,17.4119708 L42.312,17.3465971 L42.312,21.4043957 L42.3560629,21.3228232 C40.431209,22.601371 38.178782,23.2776708 35.8417079,23.2776708 C31.1797348,23.2776708 26.9931775,20.5724718 25.175582,16.3856614 L25.1494921,16.3266515 L25.0839775,16.3266515 L20.9814876,16.3266515 L21.0725124,16.4683909 L22.618773,13.1568941 L22.5283281,13.2147469 L24.332009,13.2147469 L24.321573,13.1048265 C24.2838876,12.7310971 24.2647551,12.3550536 24.2647551,11.9900022 C24.2647551,11.7094159 24.2780899,11.4085811 24.3059191,11.0707205 L24.3146157,10.9631142 L24.2067775,10.9631142 L20.835964,10.9631142 L20.9258292,11.1048536 L22.4732494,7.79451384 L22.3833843,7.85178816 L25.0706427,7.85178816 L25.095573,7.79046414 C25.9466831,5.72164639 27.3949618,3.95771314 29.2827101,2.68842172 C31.2168404,1.38904681 33.4849213,0.701755013 35.8417079,0.701755013 C38.860018,0.701755013 41.7177303,1.82930697 43.8901483,3.87787622 L43.8681169,3.76390611 L42.5247775,6.63919252 L42.6923326,6.61836549 C41.1014292,4.66756755 38.7510202,3.54869353 36.2405933,3.54869353 C33.2877978,3.54869353 30.5298067,5.1402253 29.0415236,7.70252781 L28.9545573,7.85178816 L29.1279101,7.85178816 L29.1279101,7.85178816 Z M36.2405933,3.74712879 C38.6907236,3.74712879 40.9854742,4.8393905 42.5375326,6.74390617 L42.6378337,6.86713273 L42.7056674,6.72365767 L44.0490067,3.84837126 L44.0791551,3.78299755 L44.0269753,3.73382263 C41.8180315,1.64996315 38.9110382,0.502741225 35.8417079,0.502741225 C33.4454966,0.502741225 31.1385708,1.2016036 29.171973,2.52411964 C27.2511775,3.81481661 25.7779685,5.61056893 24.912364,7.71467691 L25.0033888,7.6533529 L22.3833843,7.6533529 L22.319609,7.6533529 L22.2929393,7.71062721 L20.7460989,11.020967 L20.6800045,11.162128 L24.2067775,11.162128 L24.107636,11.0545217 C24.079227,11.3981676 24.0658921,11.7036306 24.0658921,11.9900022 C24.0658921,12.3614174 24.0844449,12.7438247 24.1232899,13.125075 L24.2224315,13.0163116 L22.5283281,13.0163116 L22.4657124,13.0163116 L22.4390427,13.073586 L20.8916225,16.3839258 L20.8261079,16.5250867 L25.0839775,16.5250867 L24.9929528,16.4649198 C26.842436,20.7240462 31.1008854,23.4766846 35.8417079,23.4766846 C38.2187865,23.4766846 40.5088989,22.7888143 42.4668,21.4877038 L42.5108629,21.4581988 L42.5108629,21.4043957 L42.5108629,17.3465971 L42.5108629,17.0833667 L42.3369303,17.2812234 C40.7918292,19.0359002 38.5701303,20.0419612 36.2405933,20.0419612 C33.4999955,20.0419612 30.9617393,18.6691132 29.4502652,16.3706196 L29.3673573,16.5250867 L38.0216629,16.5250867 L38.0483326,16.4683909 L39.5957528,13.1568941 L39.6618472,13.0163116 L39.5053079,13.0163116 L28.1034472,13.0163116 L28.2025888,13.1001983 C28.1434517,12.6998566 28.1133034,12.2943081 28.1133034,11.894545 C28.1133034,11.6226366 28.127218,11.3461 28.1544674,11.072456 L28.0547461,11.162128 L40.5280315,11.162128 L40.5541213,11.1048536 L42.1009618,7.79451384 L42.167636,7.6533529 L42.0105169,7.6533529 L29.1279101,7.6533529 L29.2137169,7.80203471 C30.6666337,5.30105621 33.3591101,3.74712879 36.2405933,3.74712879 L36.2405933,3.74712879 Z" id="Shape" fill="#0054A6"></path>
            </g>
        </g>
    </g>
</svg>