<?xml version="1.0" encoding="UTF-8" standalone="no"?>
<svg width="110px" height="64px" viewBox="0 0 110 64" version="1.1" xmlns="http://www.w3.org/2000/svg" xmlns:xlink="http://www.w3.org/1999/xlink">
    <!-- Generator: Sketch 41.2 (35397) - http://www.bohemiancoding.com/sketch -->
    <title>sofort</title>
    <desc>Created with Sketch.</desc>
    <defs>
        <polygon id="path-1" points="0.0208085388 0.0430690909 98.3082071 0.0430690909 98.3082071 30.08 0.0208085388 30.08"></polygon>
        <polygon id="path-3" points="0.0208085388 0.0430690909 98.3082071 0.0430690909 98.3082071 30.08 0.0208085388 30.08"></polygon>
        <polygon id="path-5" points="0.0208085388 0.0430690909 98.3082071 0.0430690909 98.3082071 30.08 0.0208085388 30.08"></polygon>
        <polygon id="path-7" points="0.0208085388 0.0430690909 98.3082071 0.0430690909 98.3082071 30.08 0.0208085388 30.08"></polygon>
    </defs>
    <g id="Others" stroke="none" stroke-width="1" fill="none" fill-rule="evenodd">
        <g id="sofort">
            <g transform="translate(6.575000, 17.280000)">
                <path d="M81.0978116,0.295672727 C81.4356033,0.559556364 81.7269233,0.860014547 81.9696892,1.20388364 C82.5911712,2.0868 82.8290819,3.13549818 82.6875837,4.33733091 L85.868169,4.33733091 L81.0735351,17.3243709 L85.8643541,17.3243709 L90.6603753,4.33733091 L96.8148474,4.33733091 L98.3082071,0.295672727 L81.0978116,0.295672727" id="Fill-1" fill="#E7792B"></path>
                <g id="Group-5">
                    <g id="Fill-2-Clipped">
                        <mask id="mask-2" fill="white">
                            <use xlink:href="#path-1"></use>
                        </mask>
                        <g id="path-1"></g>
                        <path d="M76.209886,5.72648 C75.697302,7.0876 74.7758306,7.92881453 73.0244456,7.92881453 L73.0171622,7.92881453 L72.1109508,7.9274473 L73.6604931,3.81058909 L74.5424281,3.81058909 C76.1540497,3.81093091 76.7561098,4.27580364 76.209886,5.72648 L76.209886,5.72648 Z M80.8581666,1.96545455 C80.0702166,0.84736727 78.4672656,0.298407273 75.955328,0.295672727 L70.1407288,0.295672727 L63.8513479,17.3202691 L69.1932467,17.3202691 L71.4797585,11.3278545 C71.5917774,11.5743055 72.940171,17.3202691 72.940171,17.3202691 L78.5567423,17.3202691 C78.5567423,17.3202691 77.5346959,13.0981309 76.7831609,11.3924582 C76.5906822,10.9545891 76.3888395,10.4627127 76.1200623,10.0518473 C77.7063666,9.47109818 80.00467,8.22346182 80.9570073,5.69605818 C81.5417274,4.14249455 81.50774,2.88665455 80.8581666,1.96545455 L80.8581666,1.96545455 Z" id="Fill-2" fill="#E7792B" mask="url(#mask-2)"></path>
                    </g>
                    <g id="Fill-4-Clipped">
                        <mask id="mask-4" fill="white">
                            <use xlink:href="#path-3"></use>
                        </mask>
                        <g id="path-1"></g>
                        <path d="M27.176992,0.28576 L17.2728212,0.28576 C15.7114872,0.28576 14.1945447,0.28576 12.8354003,0.965636365 C11.4762559,1.64585455 10.2766437,3.00594909 9.35274453,5.72682182 C9.15332939,6.31201455 9.046859,6.81517088 9.03298664,7.25304 C9.01911427,7.69193453 9.09645272,8.0652 9.26500186,8.38890182 C9.47274044,8.78438547 9.80949198,9.1569673 10.2312117,9.47041453 C10.6525846,9.78420365 11.1575385,10.0395418 11.701335,10.2029309 C11.7217967,10.2080582 12.0079141,10.2890691 12.3543763,10.3861455 C12.6991044,10.4842473 13.1031368,10.6011491 13.3580414,10.6770327 C13.5075161,10.7221527 13.6722504,10.7809455 13.8213782,10.8691345 C13.9708529,10.95664 14.1043743,11.0735418 14.1889958,11.2359055 C14.2437916,11.3435782 14.273964,11.4611636 14.2770852,11.5872945 C14.2805533,11.7144509 14.2587044,11.8511782 14.2080702,11.9954255 C14.0818318,12.3652727 13.889006,12.6028364 13.5231225,12.7487927 C13.1582795,12.8940655 12.6200319,12.9408945 11.8032968,12.9470473 L1.61162133,12.9470473 L0,17.3096727 L10.9092232,17.3096727 C11.9364714,17.3096727 13.8130548,17.3096727 15.6164615,16.5539127 C17.420215,15.7988364 19.1497514,14.2893673 19.8825588,11.2690618 C20.1575783,10.1338836 20.0726101,9.20892365 19.6214116,8.48324365 C19.1684791,7.75653818 18.3500099,7.22979635 17.158721,6.89242182 C17.158721,6.89242182 16.8916781,6.81619635 16.5774692,6.72766547 C16.2653411,6.63913453 15.9039661,6.53761453 15.719117,6.48497453 C15.4139251,6.39883636 15.179829,6.22485091 15.0411054,6.00335273 C14.9030755,5.78253818 14.8614584,5.51352727 14.940184,5.23904727 C15.0223777,4.95431273 15.219712,4.72632 15.5058295,4.56942545 C15.7926404,4.41321455 16.1696219,4.32741818 16.6097224,4.32741818 L22.9507778,4.32741818 C22.9955161,4.26349818 23.0360928,4.19445091 23.0811779,4.13087273 C24.2395199,2.51578182 25.6413219,1.20901091 27.176992,0.28576" id="Fill-4" fill="#E7792B" mask="url(#mask-4)"></path>
                    </g>
                </g>
                <path d="M31.8290877,8.71909818 C30.3489069,12.71256 29.2741459,13.7178473 27.6573225,13.7178473 L27.6542012,13.7178473 C26.078648,13.7161382 25.5265281,12.7337527 27.0004662,8.7594327 C28.1015848,5.79176727 29.5273165,3.89467636 31.2523443,3.89467636 L31.253038,3.89467636 C32.8944849,3.89638545 33.270079,4.83399273 31.8290877,8.71909818 L31.8290877,8.71909818 Z M36.9087987,1.88102545 C36.0455912,0.663469088 34.5685318,0.0444363636 32.5126481,0.0430690909 C31.1684165,0.0430690909 29.8637212,0.347629091 28.6398323,0.91607273 C26.890181,1.73199273 25.3042235,3.09413818 24.0092388,4.90064727 C23.168227,6.07410909 22.4479048,7.43283635 21.8836466,8.9539273 C20.820677,11.8234909 20.8321218,14.1522982 21.9197147,15.68672 C22.5359942,16.5539127 23.8171066,17.5899636 26.4216421,17.5926982 L26.4313527,17.5926982 C31.1767399,17.5926982 34.7197405,14.5272727 36.9625542,8.4811927 C37.5552507,6.8808 38.337305,3.89570182 36.9087987,1.88102545 L36.9087987,1.88102545 Z" id="Fill-6" fill="#E7792B"></path>
                <path d="M55.8709265,0.28576 L45.7767044,0.28576 C42.9550665,0.28576 40.8540977,1.69302545 39.862224,4.32741818 L35.0682835,17.3096727 L40.3196651,17.3096727 L42.7837429,10.6356727 L47.4250874,10.6387491 L48.7450424,7.06504 L44.1186106,7.06162182 L44.8639031,4.99191273 C45.0192735,4.62138182 45.3903592,4.32639273 45.9331152,4.32639273 C46.2355326,4.32639273 49.6429309,4.32741818 51.4064545,4.32776 C51.4515397,4.26418182 51.4924632,4.19445091 51.5372015,4.13087273 C52.6951967,2.51578182 54.3352563,1.20901091 55.8709265,0.28576" id="Fill-7" fill="#E7792B"></path>
                <g id="Group-11">
                    <g id="Fill-8-Clipped">
                        <mask id="mask-6" fill="white">
                            <use xlink:href="#path-5"></use>
                        </mask>
                        <g id="path-3"></g>
                        <path d="M60.4619838,8.71909818 C58.9821498,12.71256 57.9077356,13.7178473 56.2909122,13.7178473 L56.2877909,13.7178473 C54.7111973,13.7161382 54.1611582,12.7337527 55.634056,8.7594327 C56.7341341,5.79176727 58.161253,3.89467636 59.8852404,3.89467636 L59.8876681,3.89467636 C61.5270342,3.89638545 61.9033219,4.83399273 60.4619838,8.71909818 L60.4619838,8.71909818 Z M65.5420415,1.88102545 C64.6781406,0.663469088 63.2017747,0.0444363636 61.1451975,0.0430690909 C59.8020063,0.0430690909 58.4969641,0.347629091 57.2737688,0.91607273 C55.5237707,1.73199273 53.9381601,3.09413818 52.6428285,4.90064727 C51.8007764,6.07410909 51.0814945,7.43283635 50.5172363,8.9539273 C49.4532264,11.8234909 49.4664051,14.1522982 50.5543448,15.68672 C51.169584,16.5539127 52.4500027,17.5899636 55.056619,17.5926982 L55.0642488,17.5926982 C59.8110233,17.5926982 63.3543706,14.5272727 65.5954502,8.4811927 C66.1898806,6.8808 66.9702009,3.89570182 65.5420415,1.88102545 L65.5420415,1.88102545 Z" id="Fill-8" fill="#E7792B" mask="url(#mask-6)"></path>
                    </g>
                    <g id="Fill-10-Clipped">
                        <mask id="mask-8" fill="white">
                            <use xlink:href="#path-7"></use>
                        </mask>
                        <g id="path-3"></g>
                        <path d="M8.66363507,19.9102255 C8.55126896,20.2151273 8.41046455,20.4284218 8.24191541,20.5497673 C8.07267257,20.6728218 7.81880841,20.7333236 7.478242,20.7333236 C7.13802238,20.7333236 6.93132423,20.6745309 6.85745392,20.5566036 C6.78427725,20.43936 6.80161768,20.2329018 6.91086251,19.9362036 C7.02496269,19.6275418 7.16507352,19.4132218 7.33119501,19.2922182 C7.49662286,19.1736073 7.74944666,19.1134473 8.08966622,19.1134473 C8.42988584,19.1134473 8.63831806,19.1712145 8.71496281,19.2864073 C8.7919544,19.4022836 8.77461397,19.6097673 8.66363507,19.9102255 L8.66363507,19.9102255 Z M5.76778013,19.9102255 C5.65506721,20.2151273 5.51530319,20.4284218 5.34918169,20.5497673 C5.18236657,20.6728218 4.92884921,20.7333236 4.58897641,20.7333236 C4.2487568,20.7333236 4.04101822,20.6745309 3.96541387,20.5566036 C3.88911589,20.43936 3.90610953,20.2329018 4.01500755,19.9362036 C4.12945451,19.6275418 4.27060576,19.4132218 4.43776769,19.2922182 C4.60562324,19.1736073 4.85810018,19.1134473 5.19415808,19.1134473 C5.53819259,19.1134473 5.74835883,19.1712145 5.82188233,19.2864073 C5.89679307,19.4022836 5.878759,19.6097673 5.76778013,19.9102255 L5.76778013,19.9102255 Z M7.31940351,26.7821382 C7.12831173,27.2999927 6.87895607,27.76384 6.5730706,28.1729964 C6.26753187,28.5828364 5.91239947,28.9290982 5.50697978,29.21144 C5.10294731,29.4948073 4.65174884,29.7098109 4.15546519,29.85816 C3.65848792,30.0054836 3.12336166,30.08 2.5493928,30.08 C2.01045165,30.08 1.55023613,30.0136873 1.17152073,29.88072 C0.791764901,29.7477527 0.503566638,29.5464218 0.307272755,29.2763855 C0.110978873,29.0063491 0.00901703348,28.6703418 0.000346808979,28.2673382 C-0.00728298857,27.8650182 0.0884362899,27.3939927 0.287851452,26.85392 L2.18593699,21.7129745 C2.20258383,21.6695636 2.22963492,21.6302545 2.26917115,21.5957309 C2.30836057,21.5605236 2.36627766,21.5324945 2.44292245,21.5106182 C2.51991404,21.4890836 2.61563332,21.4713091 2.7307739,21.45832 C2.84626129,21.4453309 2.98984021,21.4384945 3.16220427,21.4384945 C3.33040662,21.4384945 3.46704936,21.4453309 3.57247929,21.45832 C3.67790922,21.4713091 3.75975614,21.4890836 3.81836686,21.5106182 C3.87663076,21.5324945 3.91408613,21.5605236 3.92934573,21.5957309 C3.94495214,21.6302545 3.94564575,21.6695636 3.92934573,21.7129745 L2.08640281,26.7028364 C1.96259201,27.0388436 1.89704512,27.3297309 1.89010894,27.5748145 C1.88282595,27.8216073 1.92860473,28.0249891 2.02571125,28.1859855 C2.12351138,28.3473236 2.26639668,28.4676436 2.45471395,28.5486545 C2.64407165,28.6293236 2.87331239,28.6696582 3.14312978,28.6696582 C3.41676206,28.6696582 3.6772156,28.6279564 3.92379679,28.5452364 C4.1714184,28.4621745 4.3996187,28.3418545 4.60839771,28.1825673 C4.81682991,28.0236218 5.0058408,27.8284436 5.17334954,27.5949818 C5.34085827,27.3618618 5.47958187,27.0972945 5.5888267,26.8009382 L7.46783771,21.7129745 C7.48413778,21.6695636 7.51118887,21.6302545 7.55107188,21.5957309 C7.59026132,21.5605236 7.64713799,21.5324945 7.72135509,21.5106182 C7.79626583,21.4890836 7.89163829,21.4713091 8.00920655,21.45832 C8.1267748,21.4453309 8.26931329,21.4384945 8.43682206,21.4384945 C8.6050244,21.4384945 8.74062667,21.4453309 8.84432257,21.45832 C8.94801846,21.4713091 9.02882499,21.4890836 9.08674208,21.5106182 C9.1456996,21.5324945 9.18072726,21.5605236 9.19425283,21.5957309 C9.20777841,21.6302545 9.20743156,21.6695636 9.19078476,21.7129745 L7.31940351,26.7821382 L7.31940351,26.7821382 Z" id="Fill-10" fill="#343433" mask="url(#mask-8)"></path>
                    </g>
                </g>
                <path d="M14.8309392,23.8356655 C14.893018,23.6657818 14.9224968,23.5140145 14.9197223,23.3786545 C14.916601,23.2436364 14.8781052,23.13152 14.8052753,23.0423055 C14.731405,22.9530909 14.6238942,22.8843855 14.4803153,22.8365309 C14.3367364,22.7890182 14.1303851,22.7647491 13.8605677,22.7647491 L12.9796728,22.7647491 L12.1691803,24.9595636 L13.1430198,24.9595636 C13.3948032,24.9595636 13.6063566,24.9301673 13.7783739,24.8710327 C13.950738,24.8129236 14.105068,24.7322545 14.2417107,24.6297091 C14.3790471,24.5271636 14.4969621,24.4071855 14.5968431,24.2708 C14.6963773,24.1330473 14.7740625,23.9888 14.8309392,23.8356655 L14.8309392,23.8356655 Z M13.9382528,27.4541527 C14.0100423,27.2582909 14.0419487,27.08328 14.0325849,26.9284364 C14.0239147,26.7742764 13.974321,26.6443855 13.8851911,26.5404727 C13.7950208,26.4355345 13.6611525,26.3552073 13.4835863,26.2984655 C13.3049797,26.2417236 13.057358,26.2133527 12.7393342,26.2133527 L11.7058435,26.2133527 L10.8187061,28.6166764 L12.0779695,28.6166764 C12.320389,28.6166764 12.5333297,28.5924073 12.7174853,28.5425018 C12.9019876,28.4919127 13.0726177,28.4177382 13.2307625,28.3199782 C13.3882139,28.2215345 13.5279778,28.0998473 13.6514418,27.9538909 C13.7731718,27.8082764 13.8685442,27.6421527 13.9382528,27.4541527 L13.9382528,27.4541527 Z M15.7690574,27.3957018 C15.6584254,27.6958182 15.5155401,27.9682473 15.3410952,28.2123055 C15.1669971,28.45568 14.9713968,28.6717091 14.7546412,28.8593673 C14.537192,29.046 14.3013618,29.2066545 14.0461105,29.3420145 C13.7908591,29.4770327 13.5234693,29.5881236 13.2435944,29.6749455 C12.9644133,29.7617673 12.6769086,29.8267127 12.3807337,29.8677309 C12.0849057,29.9094327 11.7644542,29.9302836 11.4200729,29.9302836 L9.14015067,29.9302836 C8.99483769,29.9302836 8.88732687,29.8872145 8.81900555,29.8021018 C8.75137775,29.7173309 8.75311182,29.5795782 8.82351405,29.3878182 L11.5442305,22.0199273 C11.6153264,21.8281673 11.7159009,21.6904145 11.8466479,21.60496 C11.9777417,21.5201891 12.1161185,21.4778036 12.2614314,21.4778036 L14.4158088,21.4778036 C14.9408776,21.4778036 15.3695335,21.5215564 15.7024701,21.6083782 C16.0343663,21.6955418 16.2934326,21.8271418 16.477935,22.0038618 C16.6620906,22.1798982 16.7706418,22.4031055 16.8035887,22.6734836 C16.8368823,22.9431782 16.7855546,23.2614109 16.6502991,23.6268145 C16.5743479,23.8319055 16.4765478,24.0243491 16.3568986,24.2055127 C16.2372496,24.3856509 16.0995664,24.5500655 15.9438492,24.6977309 C15.7870915,24.8457382 15.6143807,24.9766545 15.4243293,25.0897964 C15.234278,25.20328 15.0317416,25.2945455 14.8160264,25.3639345 C15.0428395,25.4073455 15.2384397,25.4842545 15.4042144,25.5929527 C15.5689486,25.7016509 15.6962276,25.84248 15.7850107,26.0140727 C15.8741406,26.1860073 15.9202662,26.38768 15.9237343,26.6180655 C15.9265087,26.8491345 15.875181,27.1085745 15.7690574,27.3957018 L15.7690574,27.3957018 Z" id="Fill-12" fill="#343433"></path>
                <path d="M22.178781,29.2575855 C22.1319618,29.3837164 22.0875702,29.4886545 22.0456064,29.5741091 C22.002602,29.6592218 21.9613318,29.7275855 21.9193679,29.7795418 C21.8784444,29.8321818 21.8361337,29.8697818 21.7948635,29.8937091 C21.7525527,29.9176364 21.7119761,29.9302836 21.6713995,29.9302836 L17.3643788,29.9302836 C17.218719,29.9302836 17.1122486,29.8872145 17.0439273,29.8021018 C16.9752591,29.7173309 16.9766463,29.5795782 17.0473953,29.3878182 L19.7681118,22.0199273 C19.8388608,21.8281673 19.9397822,21.6904145 20.0705292,21.60496 C20.2012762,21.5201891 20.3399998,21.4778036 20.4856596,21.4778036 L24.7666696,21.4778036 C24.8068994,21.4778036 24.8381123,21.4890836 24.860308,21.5106182 C24.8842379,21.5324945 24.8956825,21.5707782 24.8981102,21.6244436 C24.9005379,21.6791345 24.8908272,21.7495491 24.8703655,21.8336364 C24.8495569,21.9190909 24.8162633,22.0264218 24.7677101,22.1566545 C24.722278,22.2793673 24.6785802,22.3825964 24.6366162,22.4673673 C24.5939587,22.55248 24.5523417,22.6211855 24.5107246,22.6734836 C24.4694543,22.72544 24.4288776,22.7633818 24.3889946,22.7876509 C24.3494584,22.8112364 24.3099222,22.8232 24.2696924,22.8232 L21.2077158,22.8232 L20.4461233,24.88744 L23.0371332,24.88744 C23.0770163,24.88744 23.1085759,24.8997455 23.1331993,24.9229891 C23.1571291,24.9469164 23.1713483,24.9848582 23.1748164,25.0344218 C23.1786313,25.0850109 23.1703079,25.1523491 23.1494993,25.2367782 C23.1293844,25.3218909 23.097478,25.42512 23.052046,25.5471491 C23.0052268,25.6736218 22.9608353,25.7778764 22.9188714,25.8605964 C22.8779479,25.9433164 22.8370244,26.0099709 22.796101,26.0602182 C22.7558712,26.1097818 22.7146009,26.1456727 22.6736774,26.1675491 C22.6320603,26.1894255 22.5918305,26.2003636 22.5519475,26.2003636 L19.9612844,26.2003636 L19.0810832,28.5848873 L22.1687235,28.5848873 C22.2089534,28.5848873 22.2408598,28.5968509 22.2651364,28.6200945 C22.2890663,28.6443636 22.3032854,28.6823055 22.3057131,28.7342618 C22.3084876,28.7869018 22.2998174,28.8559491 22.2793556,28.94072 C22.2582003,29.0251491 22.2252534,29.1314545 22.178781,29.2575855" id="Fill-13" fill="#343433"></path>
                <path d="M30.3548027,23.9730764 C30.4571113,23.6941527 30.4810411,23.4593236 30.423124,23.2675636 C30.3652069,23.0758036 30.2056748,22.9411273 29.9424468,22.8621673 C29.8623339,22.8406327 29.7686955,22.8232 29.6608379,22.8105527 C29.5526335,22.7975636 29.3996907,22.7907273 29.2006224,22.7907273 L28.4189149,22.7907273 L27.5338585,25.1875564 L28.4220362,25.1875564 C28.669311,25.1875564 28.8961241,25.1588436 29.1035159,25.1000509 C29.3112545,25.0409164 29.4954101,24.9585382 29.6591039,24.8515491 C29.8221041,24.7452436 29.9622149,24.6177455 30.0787428,24.4693964 C30.1952705,24.3210473 30.2868281,24.1559491 30.3548027,23.9730764 L30.3548027,23.9730764 Z M30.483122,29.7074182 C30.4654348,29.7559564 30.4418518,29.7962909 30.4116794,29.8291055 C30.3822006,29.8608945 30.3305261,29.88824 30.2559621,29.9108 C30.1813982,29.9319927 30.0794363,29.9473745 29.9476489,29.9562618 C29.8165552,29.9644655 29.6400294,29.9692509 29.419112,29.9692509 C29.2335692,29.9692509 29.0872158,29.9644655 28.9800519,29.9562618 C28.8725411,29.9473745 28.7913878,29.9309673 28.7362452,29.90704 C28.6811025,29.8834545 28.6474621,29.8523491 28.6339365,29.8157745 C28.6214514,29.7788582 28.6162493,29.7337382 28.6179833,29.6817818 L28.5461939,27.7942618 C28.5319747,27.5806255 28.5111661,27.3912582 28.484115,27.2258182 C28.4563703,27.0600364 28.4092043,26.9222836 28.342617,26.8108509 C28.2749893,26.69976 28.1803104,26.6166982 28.0606613,26.5599564 C27.9403186,26.5028727 27.7866822,26.4745018 27.6014862,26.4745018 L27.0580365,26.4745018 L25.8688285,29.6947709 C25.8528753,29.7385236 25.8237434,29.7774909 25.7824731,29.8126982 C25.7412028,29.8472218 25.682939,29.8752509 25.6087218,29.8971273 C25.5348515,29.9190036 25.4398259,29.9367782 25.3236448,29.9497673 C25.2088511,29.9624145 25.0649253,29.9692509 24.8929081,29.9692509 C24.7247057,29.9692509 24.5870226,29.9624145 24.4795118,29.9497673 C24.3716542,29.9367782 24.28842,29.9190036 24.2308497,29.8971273 C24.1715454,29.8752509 24.1365177,29.8472218 24.1222985,29.8126982 C24.108773,29.7774909 24.1101602,29.7385236 24.1257666,29.6947709 L26.9598896,22.0199273 C27.0306386,21.8281673 27.1315601,21.6904145 27.2626538,21.60496 C27.3934008,21.5201891 27.5317776,21.4778036 27.6774374,21.4778036 L29.8980553,21.4778036 C30.1227875,21.4778036 30.3065962,21.4825891 30.4487879,21.4911345 C30.5923668,21.49968 30.7206861,21.5106182 30.8347863,21.5236073 C31.162174,21.5714618 31.441702,21.6545236 31.6737172,21.7721091 C31.9074665,21.8896945 32.0846859,22.0431709 32.2067626,22.2325382 C32.3288394,22.4219055 32.392999,22.6461382 32.3995884,22.9045527 C32.4047905,23.1643345 32.3461799,23.4613745 32.2220223,23.7966982 C32.1176327,24.0804073 31.9858453,24.3377964 31.8270068,24.5709164 C31.6678215,24.8036945 31.4840127,25.01152 31.2755806,25.1940509 C31.0664547,25.3769236 30.8333991,25.5365527 30.57572,25.6715709 C30.3180409,25.8059055 30.0416342,25.9152873 29.7458061,25.9983491 C29.8519297,26.0588509 29.9448745,26.1323418 30.0249873,26.2201891 C30.1057938,26.3070109 30.1727279,26.4122909 30.2261365,26.5370545 C30.2795451,26.6604509 30.321509,26.8029891 30.3509878,26.9612509 C30.3804665,27.1205382 30.4005815,27.2999927 30.410639,27.50064 L30.5178029,29.1656364 C30.5230051,29.3307345 30.5223114,29.45208 30.5160689,29.5283055 C30.5105199,29.6041891 30.4990752,29.6646909 30.483122,29.7074182 L30.483122,29.7074182 Z" id="Fill-14" fill="#343433"></path>
                <path d="M41.3205558,29.4920727 C41.2557025,29.5973527 41.1877279,29.6810982 41.1173257,29.7439927 C41.0486575,29.8068873 40.9612617,29.8547418 40.8558317,29.8872145 C40.7514423,29.9200291 40.6234697,29.9422473 40.4739951,29.9528436 C40.3245204,29.9637818 40.1365499,29.9692509 39.9111241,29.9692509 C39.6596876,29.9692509 39.4595788,29.9637818 39.3111445,29.9528436 C39.1627103,29.9422473 39.0499974,29.9200291 38.9740462,29.8872145 C38.8974015,29.8547418 38.8516227,29.8068873 38.8349759,29.7439927 C38.818329,29.6810982 38.818329,29.5973527 38.8349759,29.4920727 L39.4408511,24.1361236 L39.4280192,24.1361236 L36.1510212,29.4920727 C36.09137,29.5925673 36.0306784,29.6746036 35.967906,29.7371564 C35.9047868,29.8007345 35.8232866,29.8496145 35.7247929,29.8841382 C35.6259523,29.9190036 35.4993671,29.9422473 35.3474647,29.9528436 C35.1959092,29.9637818 34.9985749,29.9692509 34.755115,29.9692509 C34.4995168,29.9692509 34.2969804,29.9637818 34.1485461,29.9528436 C33.999765,29.9422473 33.8877458,29.9200291 33.811101,29.8872145 C33.7351498,29.8547418 33.6886774,29.8068873 33.6723774,29.7439927 C33.6557306,29.6810982 33.6529561,29.5973527 33.665788,29.4920727 L34.4409061,22.1183709 C34.4592869,21.9614764 34.4821764,21.83808 34.5113083,21.7495491 C34.5393998,21.6596509 34.5896871,21.5909455 34.6632106,21.5430909 C34.7363873,21.4955782 34.8373087,21.46584 34.9673621,21.4552436 C35.0970687,21.4439636 35.2746349,21.4384945 35.5000607,21.4384945 C35.7077993,21.4384945 35.8711463,21.4419127 35.9901018,21.4484073 C36.1094041,21.4552436 36.1950659,21.4699418 36.2484745,21.4942109 C36.3015362,21.51848 36.3306682,21.5533455 36.3355235,21.5988073 C36.3414193,21.6446109 36.3351767,21.7085309 36.3178362,21.7912509 L35.4313925,28.26392 L35.4383287,28.26392 L39.3753042,21.8367127 C39.4235107,21.7550182 39.472064,21.6869964 39.5199235,21.6343564 C39.5677832,21.5827418 39.6312492,21.5420655 39.7099749,21.5143782 C39.7890474,21.4856655 39.8899687,21.46584 40.0137796,21.4552436 C40.1368968,21.4439636 40.2978161,21.4384945 40.4968845,21.4384945 C40.7087848,21.4384945 40.8755999,21.4425964 40.9990639,21.4514836 C41.1221811,21.4603709 41.2120046,21.4788291 41.2702685,21.5072 C41.3285324,21.5355709 41.3628665,21.5762473 41.3750048,21.62752 C41.3864495,21.6805018 41.3843686,21.7502327 41.3704963,21.8367127 L40.6137591,28.26392 L40.6272847,28.26392 L44.5146665,21.8107345 C44.5531623,21.7413455 44.5930453,21.6818691 44.6343156,21.63128 C44.6741986,21.5817164 44.7307285,21.5420655 44.8028647,21.5143782 C44.8753478,21.4856655 44.9707203,21.46584 45.0900226,21.4552436 C45.208978,21.4439636 45.3719783,21.4384945 45.5800637,21.4384945 C45.7739299,21.4384945 45.9234046,21.4439636 46.027794,21.4552436 C46.1318367,21.46584 46.1991177,21.4955782 46.2306773,21.5430909 C46.2611965,21.5909455 46.2563412,21.6620436 46.2150709,21.7557018 C46.1734538,21.8486764 46.1033984,21.9768582 46.004211,22.1378545 L41.3205558,29.4920727" id="Fill-15" fill="#343433"></path>
                <path d="M50.3091509,29.2575855 C50.2623317,29.3837164 50.2175933,29.4886545 50.1756295,29.5741091 C50.1333187,29.6592218 50.0917017,29.7275855 50.0490441,29.7795418 C50.0077739,29.8321818 49.9668505,29.8697818 49.924193,29.8937091 C49.8829227,29.9176364 49.842346,29.9302836 49.8021162,29.9302836 L45.4944019,29.9302836 C45.3490889,29.9302836 45.2415781,29.8872145 45.1729099,29.8021018 C45.1052821,29.7173309 45.1070162,29.5795782 45.1777652,29.3878182 L47.8984817,22.0199273 C47.9688839,21.8281673 48.0698054,21.6904145 48.2008991,21.60496 C48.3316461,21.5201891 48.4700229,21.4778036 48.6160295,21.4778036 L52.8966927,21.4778036 C52.9372693,21.4778036 52.9681353,21.4890836 52.9903311,21.5106182 C53.0135673,21.5324945 53.0263992,21.5707782 53.0284801,21.6244436 C53.0302142,21.6791345 53.0211971,21.7495491 53.0007354,21.8336364 C52.9799269,21.9190909 52.9466332,22.0264218 52.8980799,22.1566545 C52.8529947,22.2793673 52.80895,22.3825964 52.7655989,22.4673673 C52.7246755,22.55248 52.6827115,22.6211855 52.6410944,22.6734836 C52.5998242,22.72544 52.5589008,22.7633818 52.5193645,22.7876509 C52.4794815,22.8112364 52.4389049,22.8232 52.3990218,22.8232 L49.3384326,22.8232 L48.5761464,24.88744 L51.1668095,24.88744 C51.2070394,24.88744 51.2382522,24.8997455 51.2632224,24.9229891 C51.287499,24.9469164 51.3017182,24.9848582 51.3051863,25.0344218 C51.3086544,25.0850109 51.300331,25.1523491 51.2795224,25.2367782 C51.2590607,25.3218909 51.2271543,25.42512 51.1820691,25.5471491 C51.1352499,25.6736218 51.0912052,25.7778764 51.0488944,25.8605964 C51.0076242,25.9433164 50.9667007,26.0099709 50.9261241,26.0602182 C50.8858942,26.1097818 50.8453176,26.1456727 50.8037005,26.1675491 C50.7620834,26.1894255 50.7218536,26.2003636 50.6819705,26.2003636 L48.0909607,26.2003636 L47.2104127,28.5848873 L50.298053,28.5848873 C50.337936,28.5848873 50.3701893,28.5968509 50.3948127,28.6200945 C50.4190894,28.6443636 50.4326149,28.6823055 50.4350426,28.7342618 C50.4385106,28.7869018 50.4294936,28.8559491 50.4097255,28.94072 C50.388917,29.0251491 50.3552765,29.1314545 50.3091509,29.2575855" id="Fill-16" fill="#343433"></path>
                <path d="M54.0057878,29.6947709 C53.9898346,29.7385236 53.9613963,29.7774909 53.920126,29.8126982 C53.8778153,29.8472218 53.8205918,29.8752509 53.7453343,29.8971273 C53.6718107,29.9190036 53.5767851,29.9367782 53.4612977,29.9497673 C53.3461571,29.9624145 53.2025782,29.9692509 53.0302142,29.9692509 C52.8623586,29.9692509 52.7239818,29.9624145 52.616471,29.9497673 C52.5086135,29.9367782 52.4260729,29.9190036 52.3671154,29.8971273 C52.3088515,29.8752509 52.2717429,29.8472218 52.2564833,29.8126982 C52.2398365,29.7774909 52.2405301,29.7385236 52.2564833,29.6947709 L55.2040128,21.7129745 C55.2206597,21.6695636 55.249098,21.6302545 55.2907151,21.5957309 C55.3323321,21.5605236 55.3916365,21.5324945 55.4679345,21.5106182 C55.5442324,21.4890836 55.6402985,21.4713091 55.7561327,21.45832 C55.8709265,21.4453309 56.0124245,21.4384945 56.1802801,21.4384945 C56.3522974,21.4384945 56.4920614,21.4453309 56.5974913,21.45832 C56.7032681,21.4713091 56.7854618,21.4890836 56.8426853,21.5106182 C56.9016428,21.5324945 56.9387514,21.5605236 56.9547046,21.5957309 C56.9706578,21.6302545 56.9706578,21.6695636 56.9540109,21.7129745 L54.0057878,29.6947709" id="Fill-17" fill="#343433"></path>
                <path d="M62.4928972,27.3957018 C62.3281629,27.8400655 62.1003094,28.2297382 61.8089898,28.5650618 C61.5169767,28.9007273 61.1868145,29.1799927 60.8160757,29.4038836 C60.4463773,29.6288 60.0482406,29.7973164 59.6220124,29.9108 C59.196131,30.0232582 58.764007,30.08 58.3270277,30.08 C58.0308528,30.08 57.7645035,30.0560727 57.5279798,30.00856 C57.2918029,29.9600218 57.0885728,29.9025964 56.9189832,29.8356 C56.7500873,29.76792 56.6134445,29.6971636 56.5104423,29.6233309 C56.4077868,29.5488145 56.3366909,29.4838691 56.3016633,29.4274691 C56.2652483,29.3707273 56.2534568,29.2890327 56.2690632,29.1820436 C56.2843228,29.0753964 56.3283676,28.9222618 56.4025847,28.7212727 C56.4518315,28.5869382 56.4986508,28.4734545 56.5413083,28.3821891 C56.5839657,28.29024 56.6255828,28.2164073 56.6668531,28.1600073 C56.7074298,28.1032655 56.7487,28.0629309 56.7906639,28.0393455 C56.8326278,28.0154182 56.8752853,28.0031127 56.9196769,28.0031127 C56.9817557,28.0031127 57.055626,28.0393455 57.142675,28.1107855 C57.22799,28.1825673 57.3438242,28.2622109 57.4880968,28.3490327 C57.6330629,28.4358545 57.814444,28.5161818 58.0325868,28.5876218 C58.2514233,28.6597455 58.5219344,28.6952945 58.8444667,28.6952945 C59.0567138,28.6952945 59.2557821,28.6703418 59.4423653,28.6200945 C59.6292954,28.5705309 59.797151,28.4994327 59.9480129,28.4074836 C60.0981811,28.3169018 60.2296218,28.2034182 60.341641,28.0680582 C60.4536603,27.93304 60.5400158,27.7829818 60.6010542,27.6178836 C60.67215,27.4257818 60.6797798,27.2620509 60.6242903,27.12464 C60.5688009,26.9872291 60.4762029,26.8655418 60.3447623,26.7592364 C60.2143621,26.6515636 60.0582981,26.5520945 59.8765702,26.4580945 C59.6938019,26.36512 59.5075654,26.2653091 59.3164737,26.1607127 C59.1250352,26.0568 58.9460817,25.9375055 58.7789198,25.80488 C58.6110643,25.6725964 58.4758087,25.5136509 58.3745405,25.3287273 C58.2725787,25.1434618 58.2153552,24.9243564 58.2028701,24.6717527 C58.190385,24.4191491 58.2493425,24.1169818 58.3797427,23.7638836 C58.5292173,23.3595127 58.7362623,23.0033382 59.0022648,22.69536 C59.2682673,22.3890909 59.5672166,22.1344364 59.9008469,21.93208 C60.2337835,21.7293818 60.5948116,21.5779564 60.9828908,21.4778036 C61.3709701,21.3779927 61.761477,21.3277455 62.1557988,21.3277455 C62.3583353,21.3277455 62.5556695,21.3427855 62.7481485,21.3735491 C62.9402807,21.4043127 63.1147257,21.4453309 63.2721769,21.4976291 C63.4289346,21.5499273 63.5641901,21.6083782 63.6775966,21.6740073 C63.7906563,21.7396364 63.8610586,21.7936436 63.8891501,21.8367127 C63.9168948,21.8804655 63.932848,21.9177236 63.9373565,21.9484873 C63.941865,21.9785673 63.9397842,22.0192436 63.9321544,22.0688073 C63.9252182,22.1193964 63.9099586,22.1822909 63.8849884,22.2585164 C63.862099,22.3344 63.8294989,22.4294255 63.7878818,22.5425673 C63.7410627,22.6686982 63.6980583,22.7760291 63.6595625,22.8621673 C63.6196795,22.9496727 63.5832646,23.0217964 63.5468496,23.0778545 C63.5100879,23.1345964 63.4733261,23.1762982 63.4341367,23.2026182 C63.3956409,23.2282545 63.3526366,23.2415855 63.3037365,23.2415855 C63.2558769,23.2415855 63.1892896,23.2115055 63.1057086,23.15032 C63.0224744,23.0891345 62.9163509,23.0228218 62.7883784,22.95104 C62.6600591,22.8785745 62.5057291,22.8132873 62.3240012,22.7548364 C62.1429669,22.69536 61.9300262,22.6666473 61.6876067,22.6666473 C61.4968617,22.6666473 61.3227637,22.6895491 61.1646187,22.7353527 C61.0057803,22.7811564 60.864629,22.8443927 60.7401245,22.92472 C60.6156201,23.0053891 60.5088029,23.1021236 60.4217539,23.2152655 C60.3329708,23.3287491 60.2649963,23.4480436 60.2185238,23.5748582 C60.1495089,23.7614909 60.1415322,23.9245382 60.1942473,24.0619491 C60.2476558,24.1983345 60.341641,24.3203636 60.4772434,24.4273527 C60.612152,24.5336582 60.7723778,24.6334691 60.9593078,24.7278109 C61.1455442,24.8214691 61.3345552,24.9199127 61.5249533,25.0245091 C61.7163918,25.1294473 61.8981197,25.2477164 62.070137,25.3803418 C62.2418074,25.5136509 62.3794906,25.6725964 62.4838801,25.8578618 C62.587576,26.0424436 62.6461867,26.2605236 62.6600591,26.5107345 C62.6739314,26.7609455 62.6177484,27.0559345 62.4928972,27.3957018" id="Fill-18" fill="#343433"></path>
                <path d="M71.6150136,26.7821382 C71.4232282,27.2999927 71.1749132,27.76384 70.8693747,28.1729964 C70.5631421,28.5828364 70.2080097,28.9290982 69.8025901,29.21144 C69.3978639,29.4948073 68.9480526,29.7098109 68.4510756,29.85816 C67.9540981,30.0054836 67.4189719,30.08 66.8446561,30.08 C66.305715,30.08 65.8465398,30.0136873 65.4671309,29.88072 C65.087375,29.7477527 64.7995235,29.5464218 64.602883,29.2763855 C64.4065888,29.0063491 64.3046272,28.6703418 64.2969975,28.2673382 C64.288674,27.8650182 64.3840466,27.3939927 64.5838087,26.85392 L66.4812006,21.7129745 C66.4978474,21.6695636 66.5248984,21.6302545 66.5647813,21.5957309 C66.6043178,21.5605236 66.6625817,21.5324945 66.7385326,21.5106182 C66.8151775,21.4890836 66.9115907,21.4713091 67.0263842,21.45832 C67.1422186,21.4453309 67.2857974,21.4384945 67.4578145,21.4384945 C67.6256703,21.4384945 67.7626597,21.4453309 67.8680892,21.45832 C67.9731724,21.4713091 68.0553664,21.4890836 68.1139772,21.5106182 C68.1715472,21.5324945 68.2096964,21.5605236 68.2246089,21.5957309 C68.2405623,21.6302545 68.2412563,21.6695636 68.2246089,21.7129745 L66.3820129,26.7028364 C66.2582024,27.0388436 66.1923088,27.3297309 66.1857194,27.5748145 C66.178089,27.8216073 66.223868,28.0249891 66.3209745,28.1859855 C66.4184279,28.3473236 66.5620067,28.4676436 66.7503242,28.5486545 C66.939682,28.6293236 67.1685757,28.6696582 67.4383932,28.6696582 C67.7113316,28.6696582 67.9721321,28.6279564 68.2190604,28.5452364 C68.4670284,28.4621745 68.6952288,28.3418545 68.9043548,28.1825673 C69.1127869,28.0236218 69.3014507,27.8284436 69.4696536,27.5949818 C69.6364685,27.3618618 69.7751921,27.0972945 69.8847835,26.8009382 L71.7637945,21.7129745 C71.7804419,21.6695636 71.8074929,21.6302545 71.8466818,21.5957309 C71.8858714,21.5605236 71.943095,21.5324945 72.0169653,21.5106182 C72.0922229,21.4890836 72.1872487,21.4713091 72.3051638,21.45832 C72.4223849,21.4453309 72.5652703,21.4384945 72.7331255,21.4384945 C72.9006344,21.4384945 73.0365835,21.4453309 73.1402794,21.45832 C73.243629,21.4713091 73.324782,21.4890836 73.3826989,21.5106182 C73.4409628,21.5324945 73.4763375,21.5605236 73.4898633,21.5957309 C73.5037355,21.6302545 73.5033885,21.6695636 73.4870888,21.7129745 L71.6150136,26.7821382" id="Fill-19" fill="#343433"></path>
                <path d="M80.2113678,29.3290255 C80.1746058,29.4298618 80.1239723,29.5180509 80.0594653,29.5973527 C79.995306,29.6749455 79.9235163,29.7405745 79.8454841,29.7925309 C79.7660653,29.8448291 79.6814437,29.8834545 79.5905797,29.90704 C79.4997157,29.9309673 79.4130135,29.9436145 79.3287389,29.9436145 L78.5869149,29.9436145 C78.4318909,29.9436145 78.3039185,29.9282327 78.2023032,29.8971273 C78.1006886,29.8667055 78.0181476,29.8116727 77.952601,29.7306618 C77.8874007,29.6506764 77.8360732,29.5412945 77.7975776,29.4038836 C77.7604686,29.2671564 77.7268282,29.0897527 77.6966563,28.8723564 L77.0214192,24.9199127 C76.9850042,24.6847418 76.952751,24.4317964 76.9256993,24.1593673 C76.897608,23.8876218 76.8802673,23.6223709 76.8740249,23.3653236 L76.861193,23.3653236 C76.7626993,23.6787709 76.6607376,23.9915345 76.5542672,24.3029309 C76.4484907,24.6143273 76.3340435,24.9352945 76.2116197,25.2665164 L74.5784967,29.6882764 C74.5625433,29.7313455 74.5358386,29.7713382 74.4994243,29.8062036 C74.461622,29.8410691 74.4089066,29.8697818 74.3402384,29.8937091 C74.2719172,29.9176364 74.1845217,29.9367782 74.0787446,29.9497673 C73.9712338,29.9624145 73.8384063,29.9692509 73.6792205,29.9692509 C73.5252374,29.9692509 73.3996926,29.9624145 73.3025862,29.9497673 C73.206173,29.9367782 73.1333436,29.9176364 73.0844431,29.8937091 C73.0365835,29.8697818 73.0077989,29.8410691 72.9970476,29.8062036 C72.9890709,29.7713382 72.9921924,29.7313455 73.0081452,29.6882764 L75.8134835,22.0920509 C75.8887411,21.8873018 76.0059621,21.7338255 76.1654943,21.63128 C76.3246795,21.5294182 76.4932287,21.4778036 76.6701016,21.4778036 L77.604405,21.4778036 C77.7722602,21.4778036 77.9085562,21.4918182 78.0125991,21.5201891 C78.1166414,21.54856 78.2023032,21.5957309 78.2688908,21.6610182 C78.3347844,21.7263055 78.3864589,21.8165455 78.4235678,21.93208 C78.4603292,22.0472727 78.4898078,22.1898109 78.5109633,22.3596945 L79.0398471,25.4490473 C79.0675921,25.6363636 79.0960304,25.8202618 79.1241217,26.0010836 C79.15256,26.1819055 79.1782237,26.3623855 79.1997263,26.5432073 C79.2212282,26.7240291 79.2413434,26.9010909 79.261111,27.07576 C79.2815733,27.2497455 79.29822,27.4237309 79.3138264,27.5980582 L79.3200689,27.5980582 C79.4189096,27.2934982 79.5267667,26.9756073 79.6426012,26.6443855 C79.7587819,26.3135055 79.8711485,25.9983491 79.9817802,25.6975491 L81.4467015,21.7328 C81.4626549,21.6890473 81.4903993,21.6497382 81.5299358,21.6145309 C81.5687784,21.5803491 81.6239207,21.5499273 81.6957105,21.5236073 C81.7678465,21.4976291 81.856283,21.4788291 81.9617125,21.4682327 C82.0678366,21.4572945 82.1999708,21.4514836 82.359156,21.4514836 C82.5089772,21.4514836 82.6334817,21.4572945 82.7305882,21.4682327 C82.8283886,21.4788291 82.8998313,21.4976291 82.9452633,21.5236073 C82.9906953,21.5499273 83.0187867,21.5803491 83.0274567,21.6145309 C83.037514,21.6497382 83.0330058,21.6890473 83.0170524,21.7328 L80.2113678,29.3290255" id="Fill-20" fill="#343433"></path>
                <path d="M92.0011392,22.7907273 C91.9546669,22.9172 91.9092349,23.0258982 91.8634559,23.1171636 C91.8187178,23.2087709 91.7767537,23.28192 91.7375641,23.3359273 C91.6966409,23.3906182 91.6588387,23.42856 91.6220767,23.4504364 C91.5846214,23.4723127 91.5464727,23.4832509 91.5072832,23.4832509 C91.4497126,23.4832509 91.3713341,23.4439418 91.2718001,23.3653236 C91.1729593,23.2873891 91.0342357,23.2026182 90.8563225,23.1106691 C90.677716,23.0197455 90.4557581,22.9346327 90.1921837,22.8556727 C89.926181,22.7777382 89.5994869,22.7384291 89.2103671,22.7384291 C88.7955835,22.7384291 88.3943258,22.8095273 88.0062462,22.95104 C87.6181673,23.0922109 87.2571388,23.2928582 86.9217747,23.5516145 C86.5877978,23.8107127 86.289542,24.1224509 86.0277012,24.4858036 C85.7655134,24.8494982 85.5529195,25.2507927 85.3899194,25.6910545 C85.2116599,26.1740436 85.1194086,26.6002909 85.1138594,26.9684291 C85.1086573,27.3362255 85.1773255,27.6442036 85.3195176,27.89168 C85.4617091,28.1405236 85.674303,28.3274982 85.9569524,28.4536291 C86.2392548,28.5801018 86.5794741,28.6433382 86.977611,28.6433382 C87.1711306,28.6433382 87.3726263,28.62112 87.5782844,28.5780509 C87.783942,28.5342982 87.9847443,28.4686691 88.1806915,28.3821891 L88.9044815,26.4225455 L87.280375,26.4225455 C87.2009562,26.4225455 87.1572578,26.3736655 87.1489347,26.2752218 C87.140611,26.17712 87.1808409,26.0113382 87.2675431,25.7754836 C87.3126288,25.6541382 87.3556326,25.5519345 87.3979437,25.4692145 C87.4388669,25.3858109 87.480484,25.31984 87.5200206,25.2699345 C87.561984,25.2193455 87.6015206,25.1827709 87.6410565,25.1588436 C87.6805931,25.1345745 87.7204759,25.1222691 87.7603588,25.1222691 L90.6565605,25.1222691 C90.7266159,25.1222691 90.7852268,25.1345745 90.8316991,25.1588436 C90.8785184,25.1827709 90.9135461,25.2179782 90.9381695,25.2665164 C90.962446,25.3147127 90.9728503,25.3721382 90.9700757,25.4391345 C90.9676481,25.5068145 90.9499611,25.5840655 90.9180549,25.6715709 L89.6754378,29.03472 C89.6279252,29.1656364 89.5616846,29.2804873 89.4798376,29.3779055 C89.3969503,29.4756655 89.2731398,29.5529164 89.1084054,29.6103418 C88.9443651,29.6670836 88.7449493,29.7248509 88.5105065,29.78672 C88.2750234,29.8472218 88.0371127,29.8998618 87.793306,29.9436145 C87.5491522,29.9870255 87.3074266,30.0188145 87.0674347,30.0410327 C86.8277897,30.0625673 86.5905724,30.0731636 86.3557826,30.0731636 C85.6715285,30.0731636 85.0937448,29.9767709 84.6248592,29.7833018 C84.1545857,29.5891491 83.7998003,29.3085164 83.5601553,28.94072 C83.3205104,28.5729236 83.1991274,28.1237745 83.1966998,27.5949818 C83.192538,27.0661891 83.3146149,26.4659564 83.5622359,25.7956509 C83.8185282,25.1034691 84.1535454,24.4817018 84.5686759,23.9306909 C84.9841528,23.3800218 85.4578943,22.9113891 85.9888586,22.52616 C86.5205169,22.1402473 87.0983006,21.8459418 87.7242908,21.6408509 C88.350281,21.4364436 89.0005477,21.3338982 89.6764788,21.3338982 C90.047564,21.3338982 90.3763393,21.3591927 90.6621096,21.4097818 C90.9485738,21.4596873 91.1923806,21.5201891 91.393183,21.5923127 C91.5939854,21.6637527 91.7552518,21.7413455 91.8749005,21.8237236 C91.9938558,21.9071273 92.072235,21.9785673 92.1100372,22.0397527 C92.1464522,22.1005964 92.1582438,22.1867345 92.1433307,22.2978255 C92.1287646,22.4089164 92.0815989,22.5729891 92.0011392,22.7907273" id="Fill-21" fill="#343433"></path>
            </g>
        </g>
    </g>
</svg>