<?xml version="1.0" encoding="UTF-8"?>
<svg width="110px" height="64px" viewBox="0 0 110 64" version="1.1" xmlns="http://www.w3.org/2000/svg" xmlns:xlink="http://www.w3.org/1999/xlink">
    <!-- Generator: Sketch 45.2 (43514) - http://www.bohemiancoding.com/sketch -->
    <title>sofort</title>
    <desc>Created with Sketch.</desc>
    <defs>
        <rect id="path-1" x="0" y="0" width="67.8527514" height="45.2351676" rx="5"></rect>
    </defs>
    <g id="Others" stroke="none" stroke-width="1" fill="none" fill-rule="evenodd">
        <g id="sofort">
            <g transform="translate(21.000000, 9.000000)">
                <g id="Clipped">
                    <mask id="mask-2" fill="white">
                        <use xlink:href="#path-1"></use>
                    </mask>
                    <g id="-now-a"></g>
                    <g id="Group" mask="url(#mask-2)" fill-rule="nonzero" fill="#FA82A0">
                        <rect id="Rectangle-path" x="0" y="0" width="67.8527514" height="45.2351676"></rect>
                    </g>
                </g>
                <path d="M20.3633647,40.4345854 C21.9013604,40.4345854 23.0774748,39.4054854 23.0774748,37.8901072 C23.0774748,36.487817 22.0823011,35.8771423 20.8609515,35.5152609 C20.0806449,35.2890851 19.5943668,35.1194532 19.5943668,34.5653224 C19.5943668,34.101662 19.9336306,33.7397806 20.4651438,33.7397806 C20.9174955,33.7397806 21.2567593,33.9998828 21.4942439,34.3956905 L22.7721374,33.5927663 C22.3763297,32.7106806 21.4829351,32.2583289 20.510379,32.2583289 C18.9723833,32.2583289 17.9998272,33.3665905 17.9998272,34.644484 C17.9998272,35.6622752 18.610502,36.4538907 20.1258801,36.8949336 C20.9514219,37.1324182 21.4716263,37.2907413 21.4716263,37.9466512 C21.4716263,38.557326 21.0305834,38.9418249 20.3859823,38.9418249 C19.696146,38.9418249 19.1759415,38.500782 18.8592954,38.0936655 L17.7962689,39.1680007 C18.3617085,39.9369986 19.2890295,40.4345854 20.3633647,40.4345854 Z M26.5794306,40.4345854 C24.9509646,40.4345854 23.6278359,39.1340743 23.6278359,37.5508435 C23.6278359,35.9676126 24.9509646,34.6671015 26.5794306,34.6671015 C28.2078966,34.6671015 29.5310253,35.9676126 29.5310253,37.5508435 C29.5310253,39.1340743 28.2078966,40.4345854 26.5794306,40.4345854 Z M26.5794306,38.9870601 C27.371046,38.9870601 27.9930296,38.3650765 27.9930296,37.5508435 C27.9930296,36.7366105 27.371046,36.1146269 26.5794306,36.1146269 C25.7878152,36.1146269 25.1658316,36.7366105 25.1658316,37.5508435 C25.1658316,38.3650765 25.7878152,38.9870601 26.5794306,38.9870601 Z M33.3383185,33.8189422 L33.3383185,32.3714168 L33.1121427,32.3714168 C31.2348832,32.3714168 30.3188711,33.6153839 30.3188711,35.0855268 L30.3188711,40.2875711 L31.8568668,40.2875711 L31.8568668,38.0031952 C31.8568668,37.2455061 32.4449239,36.7026841 33.2930833,36.6800665 L33.2930833,35.2099236 C32.6824086,35.2099236 32.1961305,35.3908642 31.8568668,35.7527456 L31.8568668,35.1646884 C31.8568668,34.2147499 32.4788503,33.7850158 33.3383185,33.8189422 Z M36.6932601,40.4345854 C35.0647941,40.4345854 33.7416654,39.1340743 33.7416654,37.5508435 C33.7416654,35.9676126 35.0647941,34.6671015 36.6932601,34.6671015 C38.3217262,34.6671015 39.6448548,35.9676126 39.6448548,37.5508435 C39.6448548,39.1340743 38.3217262,40.4345854 36.6932601,40.4345854 Z M36.6932601,38.9870601 C37.4848756,38.9870601 38.1068591,38.3650765 38.1068591,37.5508435 C38.1068591,36.7366105 37.4848756,36.1146269 36.6932601,36.1146269 C35.9016447,36.1146269 35.2796611,36.7366105 35.2796611,37.5508435 C35.2796611,38.3650765 35.9016447,38.9870601 36.6932601,38.9870601 Z M41.9706963,35.4360994 L41.9706963,34.8141158 L40.4779358,34.8141158 L40.4779358,40.2875711 L42.0159315,40.2875711 L42.0159315,37.7883281 C42.0159315,36.8836248 42.5474447,36.3747291 43.4747656,36.3747291 L43.4747656,34.7236455 C42.7736205,34.7010279 42.2760337,34.9385126 41.9706963,35.4360994 Z M45.8910775,37.4942995 L45.8910775,36.1598621 C46.2303413,36.5217434 46.7166193,36.7026841 47.3272941,36.7026841 L47.3272941,35.2325411 C46.4904435,35.2099236 45.8910775,34.6557928 45.8910775,33.9094125 L45.8910775,33.0499443 L44.3530818,33.0499443 L44.3530818,37.5734611 C44.3530818,39.043604 45.2690939,40.2875711 47.1463534,40.2875711 L47.3725292,40.2875711 L47.3725292,38.8400458 C46.5130611,38.8739721 45.8910775,38.444238 45.8910775,37.4942995 Z M49.2120927,40.3780415 C49.7775323,40.3780415 50.2411927,39.914381 50.2411927,39.3489414 C50.2411927,38.7835018 49.7775323,38.3198413 49.2120927,38.3198413 C48.6466531,38.3198413 48.1829926,38.7835018 48.1829926,39.3489414 C48.1829926,39.914381 48.6466531,40.3780415 49.2120927,40.3780415 Z" id="Shape" fill="#FFFFFF" fill-rule="nonzero"></path>
                <g id="Group" transform="translate(24.737982, 2.827198)" fill-rule="nonzero" fill="#FFFFFF">
                    <path d="M6.75069238,18.1970074 C7.22970649,18.6681513 7.23994331,19.4367817 6.77364626,19.9204961 L6.68003908,20.0186965 C6.2133779,20.4959611 5.44163301,20.5076674 4.95624791,20.040447 L2.2425978,17.351682 C1.49552356,16.6015801 1.38822724,15.6772537 1.86368123,15.1888774 L1.95896099,15.0889506 C2.35080787,14.6856557 2.989552,14.6431056 3.43516191,14.9937608 C3.64701562,15.1604708 3.95400646,15.1240071 4.12084516,14.9123168 C4.28768385,14.7006266 4.25119196,14.3938726 4.03933825,14.2271627 C3.20070595,13.5672339 1.99859743,13.6473127 1.25505546,14.4126383 L1.16012606,14.5122049 C0.279403262,15.4168255 0.456392474,16.9415357 1.55272503,18.042289 L4.27371147,20.7382662 C5.15063475,21.5824429 6.53689051,21.5614154 7.38287357,20.6961077 L7.47887401,20.5954422 C8.31455126,19.7285616 8.29616331,18.3479003 7.43572859,17.5016025 C7.24354952,17.312581 6.93440704,17.3150204 6.74523951,17.5070512 C6.55607198,17.699082 6.55851332,18.0079859 6.75069238,18.1970074 Z M5.12653078,3.62052563 L6.237154,12.7544043 C6.26967865,13.0218903 6.51305275,13.2123844 6.78074529,13.1798849 C7.04843781,13.1473853 7.23907906,12.904199 7.20655441,12.6367131 L6.09248559,3.47449739 L6.08147175,3.4150128 C5.89142439,2.6554099 6.36386137,1.80365149 6.99329507,1.66956105 C7.34612721,1.59428992 7.71428723,1.66366697 8.0153301,1.86210083 C8.31637289,2.06053469 8.52509898,2.37141493 8.59468869,2.72500754 L10.5284792,10.9879718 C10.5898925,11.250344 10.8525368,11.4132918 11.1151117,11.3519258 C11.3776865,11.2905599 11.5407601,11.0281182 11.4793468,10.765746 L9.54921109,2.5197519 C9.43277337,1.92651874 9.07256976,1.39002526 8.55305283,1.04758318 C8.03353598,0.705141107 7.39819338,0.585415467 6.78953967,0.715262095 C5.60577147,0.967444315 4.82798412,2.35440015 5.12653078,3.62052563 Z" id="Shape"></path>
                    <path d="M15.3337595,14.3535916 L17.5298046,3.4047439 C17.7850209,2.22617429 17.0841198,1.04289426 15.9202156,0.697240405 C14.6170828,0.367796443 13.3112575,1.13533626 12.971072,2.41388443 L10.5397548,10.744861 C10.4642661,11.0035407 10.6129337,11.2743905 10.8718132,11.3498211 C11.1306926,11.4252516 11.4017516,11.2766987 11.4772404,11.018019 L13.9116871,2.67582163 C14.1176381,1.9023195 14.8961823,1.44470571 15.6615012,1.63793211 C16.3164552,1.83287512 16.7226042,2.51854677 16.5738347,3.20570967 L14.3762707,14.1618413 C14.3232794,14.4260405 14.4946627,14.683141 14.7590659,14.7360915 C15.0234692,14.7890419 15.2807682,14.6177908 15.3337595,14.3535916 Z M9.8027359,24.9019205 C6.32157661,24.9019205 3.41403258,22.3483885 3.41403258,18.7197155 C3.41403258,18.4502624 3.19542902,18.2318275 2.92576785,18.2318275 C2.65610668,18.2318275 2.43750312,18.4502624 2.43750312,18.7197155 C2.43750312,22.9173276 5.80828632,25.8776964 9.8027359,25.8776964 C10.0723971,25.8776964 10.2910006,25.6592616 10.2910006,25.3898084 C10.2910006,25.1203553 10.0723971,24.9019205 9.8027359,24.9019205 Z M8.08065131,16.3673865 C8.0046951,16.6408175 7.83476325,16.8787695 7.60069468,17.0394598 L7.49631281,17.1089368 C6.93465835,17.4864438 6.17557451,17.3400156 5.796047,16.782401 L3.66122229,13.6055076 C3.07879357,12.7217255 3.15494958,11.7918796 3.71556081,11.4073783 L3.82012016,11.3377795 C4.53922855,10.9212743 5.15021153,11.2372757 5.77830706,12.1516398 L7.56347776,14.8090814 C7.71376955,15.0328049 8.0171089,15.0924271 8.2410051,14.9422512 C8.46490137,14.7920754 8.52456952,14.4889701 8.37427773,14.2652467 L6.58626604,11.603623 C5.70321455,10.3180547 4.60905042,9.75215125 3.30395085,10.5100012 L3.16840758,10.5991825 C2.11898463,11.3188865 1.99363806,12.8493368 2.84807783,14.1458183 L4.98694708,17.3287503 C5.67029783,18.3327674 7.03381106,18.5957908 8.03967312,17.9197078 L8.14802541,17.8475337 C8.57695276,17.5531289 8.88424883,17.1228285 9.02160414,16.6283699 C9.09372836,16.3687333 8.94155712,16.0998333 8.68172017,16.0277648 C8.42188322,15.9556962 8.15277553,16.10775 8.08065131,16.3673865 Z" id="Shape"></path>
                    <path d="M11.3138195,17.9834776 C10.2992657,18.5498402 9.66845594,19.6162593 9.59012361,21.2294232 C9.57705482,21.4985597 9.78480722,21.7273241 10.0541515,21.7403828 C10.3234958,21.7534415 10.5524368,21.5458494 10.5655056,21.276713 C10.6364446,19.8158055 11.2045443,19.0271387 12.1233889,18.6815302 C12.6151177,18.4965744 13.149791,18.4596688 13.6208064,18.5097581 C13.6841158,18.5164907 13.7261749,18.5227548 13.7431791,18.5259216 C14.3718956,18.6430084 14.5632645,17.709501 13.9391131,17.5701461 L10.1842885,16.7318034 C8.4268195,16.250883 8.16158062,15.6008518 8.48698164,14.5170188 C8.62749055,14.0447678 8.91611432,13.8023704 9.35143622,13.7056539 C9.63885009,13.6417984 9.96171871,13.6497385 10.2685838,13.703472 C10.3572986,13.7190063 10.4196898,13.7337706 10.4472989,13.7416967 L16.1469198,15.0718325 C16.1846649,15.079094 16.211261,15.086464 16.2578128,15.1075425 C16.3520891,15.1502306 16.4502407,15.218815 16.5459816,15.3210382 C16.9280532,15.7289787 17.1388635,16.4985058 17.0321573,17.7624834 C16.6604048,22.1935368 14.5942083,24.9449585 9.69699665,24.9019393 C9.42734592,24.8995706 9.20682908,25.1160768 9.20445854,25.3855195 C9.20208801,25.6549622 9.41876142,25.8753089 9.68841214,25.8776776 C15.1922331,25.9260255 17.595735,22.7254358 18.005252,17.8442517 C18.1335216,16.3248492 17.8482272,15.2834311 17.2589779,14.6542855 C16.9340761,14.3073856 16.5912137,14.1521385 16.3281973,14.1139111 L10.6931224,12.7976642 C10.6577029,12.7868504 10.5620336,12.7642111 10.4371422,12.7423421 C10.0147353,12.6683766 9.5702053,12.6574447 9.13948649,12.7531386 C8.37512341,12.922959 7.79837177,13.4073375 7.55128935,14.2377917 C7.08151905,15.8024792 7.58317956,17.0319183 9.94898982,17.67855 L11.3138195,17.9834776 Z" id="Shape"></path>
                </g>
            </g>
        </g>
    </g>
</svg>