<?xml version="1.0" encoding="utf-8"?>
<!-- Generator: Adobe Illustrator 25.2.1, SVG Export Plug-In . SVG Version: 6.00 Build 0)  -->
<svg version="1.1" id="Ebene_1" xmlns="http://www.w3.org/2000/svg" xmlns:xlink="http://www.w3.org/1999/xlink" x="0px" y="0px"
	 viewBox="0 0 220 128" style="enable-background:new 0 0 220 128;" xml:space="preserve">
<style type="text/css">
	.st0{fill:#FC1154;}
	.st1{fill:#FFFFFF;}
</style>
<g>
	<path class="st0" d="M202.24,128H17.76c-6.25,0-11.29-5.04-11.29-11.29V11.29C6.47,5.04,11.52,0,17.76,0h184.47
		c6.25,0,11.29,5.04,11.29,11.29v105.41C213.53,122.96,208.45,128,202.24,128z"/>
	<path class="st1" d="M104.32,40.8v23.04h-9.49V44.57c0-4.74-3.54-7.3-6.85-7.3c-2.9,0-5.12,1.39-7.3,4.48v22.1h-9.49V46.86
		c-0.98,0.34-1.96,0.6-2.9,0.83c-0.53,9.79-7.45,16.79-16.83,16.79c-9.79,0-16.87-7.57-16.87-17.92V28.49h9.49v18.03
		c0,3.88,1.92,8.43,7.38,8.43c5.01,0,7.04-3.84,7.34-7.49c-3.95-1.66-6.4-5.65-6.4-10.99c0-5.5,4.1-8.73,8.06-8.73
		c5.04,0,7.87,5.04,7.83,10.05c0,0,1.39-0.49,2.9-1.36v-7.94h9.49v3.05c3.24-2.64,6.25-3.84,9.71-3.84c3.84,0,7.34,1.36,9.94,3.77
		C102.93,33.88,104.32,37.19,104.32,40.8z M108.12,36.85h16.08l-16.94,20.14v6.81h30.12v-8.36h-17.05l17.05-20.4v-6.59h-29.25V36.85
		z M168.17,32.63c3.2,3.24,4.86,7.83,4.86,13.25v3.28H147.5c0.68,4.37,3.8,6.96,8.4,6.96c3.84,0,7.15-1.54,8.62-4.03l0.04-0.04h0.04
		l7.45,3.35l-0.04,0.04c-2.97,5.72-8.92,9-16.26,9c-10.58,0-17.66-7.38-17.66-18.33c0-5.16,1.88-9.9,5.31-13.29
		c3.28-3.27,7.68-5.04,12.35-5.04C160.79,27.82,165.04,29.47,168.17,32.63z M163.76,41.74c-0.79-3.65-3.76-5.84-8.02-5.84
		c-3.88,0-6.85,2.18-7.98,5.84H163.76z M196.86,28.23c-1.28-0.38-2.71-0.38-2.71-0.38c-3.12,0-6.14,1.2-8.7,3.46v-2.86h-9.49v35.35
		h9.49V41.9c1.88-3.54,4.74-5.5,8.09-5.5c0,0,1.51,0,2.45,0.3L196.86,28.23z M66.3,82.7c0-1.17,0.98-2.15,2.15-2.15
		c1.17,0,2.15,0.98,2.15,2.15c0,1.17-0.94,2.15-2.15,2.15C67.27,84.85,66.3,83.87,66.3,82.7z M66.56,99.49V86.32h3.69v13.18H66.56z
		 M73.41,99.49V86.32h3.69v1.73c1.02-1.09,2.48-2,4.37-2c2.94,0,4.56,1.88,4.56,4.44v9.04h-3.69v-7.94c0-1.54-0.75-2.33-2.15-2.33
		c-1.28,0-2.48,0.9-3.12,2v8.32h-3.65V99.49z M92.65,99.49L87.6,86.32h3.99l2.67,7.27l0.34,2.33h0.15l0.34-2.33l2.67-7.27h3.99
		l-5.04,13.18H92.65z M102.59,92.87c0-3.92,2.97-6.85,7.19-6.85c4.22,0,7.19,2.94,7.19,6.85c0,3.92-2.97,6.85-7.19,6.85
		C105.56,99.76,102.59,96.82,102.59,92.87z M113.24,92.87c0-2.3-1.51-3.65-3.5-3.65c-2,0-3.46,1.36-3.46,3.65
		c0,2.3,1.47,3.65,3.46,3.65C111.74,96.52,113.24,95.17,113.24,92.87z M119.11,82.7c0-1.17,0.98-2.15,2.15-2.15
		c1.2,0,2.15,0.98,2.15,2.15c0,1.17-0.94,2.15-2.15,2.15C120.06,84.85,119.11,83.87,119.11,82.7z M119.38,99.49V86.32h3.69v13.18
		H119.38z M125.51,92.87c0-4.07,3.05-6.85,6.89-6.85c3.5,0,5.87,1.92,6.48,4.89l-0.23,0.26l-3.05,0.3c-0.34-1.36-1.39-2.3-3.2-2.3
		c-1.88,0-3.31,1.28-3.31,3.65c0,2.37,1.43,3.65,3.31,3.65c1.81,0,2.71-0.87,3.2-2.3l3.05,0.3l0.23,0.23
		c-0.79,3.16-3.09,4.93-6.48,4.93C128.6,99.76,125.51,96.93,125.51,92.87z M140.8,92.87c0-4.1,3.2-6.85,6.78-6.85
		c3.92,0,6.63,2.52,6.63,6.78v0.98h-9.9c0.19,1.81,1.47,2.97,3.39,2.97c1.69,0,2.56-0.83,3.01-2.03l3.09,0.3l0.19,0.3
		c-1.02,2.94-3.2,4.37-6.36,4.37C143.66,99.76,140.8,97.01,140.8,92.87z M150.7,91.4c-0.19-1.58-1.47-2.6-3.16-2.6
		c-1.54,0-2.86,1.02-3.16,2.6H150.7z"/>
</g>
</svg>
