<?xml version="1.0" encoding="utf-8"?>
<!-- Generator: Adobe Illustrator 25.2.1, SVG Export Plug-In . SVG Version: 6.00 Build 0)  -->
<svg version="1.1" id="Ebene_1" xmlns="http://www.w3.org/2000/svg" xmlns:xlink="http://www.w3.org/1999/xlink" x="0px" y="0px"
	 viewBox="0 0 220 128" style="enable-background:new 0 0 220 128;" xml:space="preserve">
<style type="text/css">
	.st0{fill:#FC1154;}
	.st1{fill:#FFFFFF;}
</style>
<g>
	<path class="st0" d="M202.24,128H17.76c-6.25,0-11.29-5.04-11.29-11.29V11.29C6.47,5.04,11.52,0,17.76,0h184.47
		c6.25,0,11.29,5.04,11.29,11.29v105.41C213.53,122.96,208.45,128,202.24,128z"/>
	<path class="st1" d="M104.31,40.8v23.04h-9.49V44.57c0-4.74-3.54-7.3-6.85-7.3c-2.9,0-5.12,1.39-7.3,4.48v22.1h-9.49V46.86
		c-0.98,0.34-1.96,0.6-2.9,0.83c-0.53,9.79-7.45,16.79-16.83,16.79c-9.79,0-16.87-7.57-16.87-17.92V28.49h9.49v18.03
		c0,3.88,1.92,8.43,7.38,8.43c5.01,0,7.04-3.84,7.34-7.49c-3.95-1.66-6.4-5.65-6.4-10.99c0-5.5,4.1-8.73,8.06-8.73
		c5.04,0,7.87,5.04,7.83,10.05c0,0,1.39-0.49,2.9-1.36v-7.94h9.49v3.05c3.24-2.64,6.25-3.84,9.71-3.84c3.84,0,7.34,1.36,9.94,3.77
		C102.92,33.88,104.31,37.19,104.31,40.8z M108.11,36.85h16.08l-16.94,20.14v6.81h30.12v-8.36h-17.05l17.05-20.4v-6.59h-29.25V36.85
		z M168.16,32.63c3.2,3.24,4.86,7.83,4.86,13.25v3.28h-25.52c0.68,4.37,3.8,6.96,8.4,6.96c3.84,0,7.15-1.54,8.62-4.03l0.04-0.04
		h0.04l7.45,3.35L172,55.45c-2.97,5.72-8.92,9-16.26,9c-10.58,0-17.66-7.38-17.66-18.33c0-5.16,1.88-9.9,5.31-13.29
		c3.28-3.27,7.68-5.04,12.35-5.04C160.78,27.82,165.04,29.47,168.16,32.63z M163.76,41.74c-0.79-3.65-3.76-5.84-8.02-5.84
		c-3.88,0-6.85,2.18-7.98,5.84H163.76z M196.85,28.23c-1.28-0.38-2.71-0.38-2.71-0.38c-3.12,0-6.14,1.2-8.7,3.46v-2.86h-9.49v35.35
		h9.49V41.9c1.88-3.54,4.74-5.5,8.09-5.5c0,0,1.51,0,2.45,0.3L196.85,28.23z M45.39,82.7c0-1.17,0.98-2.15,2.15-2.15
		s2.15,0.98,2.15,2.15c0,1.17-0.94,2.15-2.15,2.15C46.37,84.85,45.39,83.87,45.39,82.7z M45.69,99.49V86.32h3.69v13.18H45.69z
		 M52.51,99.49V86.32h3.69v1.73c1.02-1.09,2.48-2,4.37-2c2.94,0,4.56,1.88,4.56,4.44v9.04h-3.69v-7.94c0-1.54-0.75-2.33-2.15-2.33
		c-1.28,0-2.48,0.9-3.12,2v8.32h-3.65V99.49z M67.42,95.88l0.11-0.34l2.82-0.83c0.3,1.32,1.09,2.22,2.86,2.22
		c1.09,0,1.88-0.49,1.88-1.28c0-0.83-0.6-1.2-2.9-1.81c-2.67-0.64-4.18-1.84-4.18-3.99c0-2.11,1.88-3.77,4.74-3.77
		c2.79,0,4.63,1.28,5.16,3.46l-0.15,0.3l-2.79,0.68c-0.26-1.24-1.13-1.88-2.26-1.88c-0.87,0-1.54,0.41-1.54,1.02
		c0,0.83,1.02,1.17,3.43,1.84c2.6,0.72,3.95,1.77,3.95,3.92c0,2.45-2.07,4.37-5.27,4.37C70.01,99.76,68.06,98.25,67.42,95.88z
		 M81.8,95.73v-6.4h-2.33v-3.05h2.33v-3.76h0.49l3.2,1.09v2.67h2.79v3.05h-2.79v6.06c0,0.87,0.53,1.32,1.43,1.32
		c0.41,0,0.68-0.08,1.05-0.19l0.19,0.11v2.82c-0.79,0.19-1.39,0.26-2.33,0.26C83.49,99.76,81.8,98.52,81.8,95.73z M89.89,92.87
		c0-4.63,3.31-6.85,6.55-6.85c1.66,0,2.9,0.56,3.88,1.36v-1.09h3.69v13.18h-3.73V98.1c-0.87,0.94-2.15,1.62-4.1,1.62
		C93.28,99.76,89.89,97.54,89.89,92.87z M100.28,93.51v-1.28c0-1.96-1.47-3.16-3.24-3.16c-1.96,0-3.43,1.32-3.43,3.8
		c0,2.48,1.47,3.8,3.46,3.8C98.85,96.67,100.28,95.5,100.28,93.51z M107.25,99.49V80.26h3.69v19.24H107.25z M114.21,99.49V86.32
		h3.69v1.54c0.98-1.13,2.26-1.81,3.92-1.81c1.66,0,2.71,0.72,3.31,1.84c1.17-1.24,2.6-1.84,4.22-1.84c2.75,0,4.25,1.66,4.25,4.25
		v9.19h-3.69v-8.4c0-1.17-0.49-1.88-1.69-1.88c-1.09,0-1.88,0.64-2.48,1.66v8.62h-3.69v-8.36c0-1.17-0.45-1.92-1.62-1.92
		c-1.09,0-2,0.79-2.48,1.81v8.47H114.21z M136.01,92.87c0-4.1,3.2-6.85,6.78-6.85c3.92,0,6.63,2.52,6.63,6.78v0.98h-9.9
		c0.19,1.81,1.47,2.97,3.39,2.97c1.69,0,2.56-0.83,3.01-2.03l3.09,0.3l0.19,0.3c-1.02,2.94-3.2,4.37-6.36,4.37
		C138.91,99.76,136.01,97.01,136.01,92.87z M145.95,91.4c-0.19-1.58-1.47-2.6-3.16-2.6c-1.54,0-2.86,1.02-3.16,2.6H145.95z
		 M151.9,99.49V86.32h3.69v1.73c1.02-1.09,2.48-2,4.37-2c2.94,0,4.56,1.88,4.56,4.44v9.04h-3.69v-7.94c0-1.54-0.75-2.33-2.15-2.33
		c-1.28,0-2.48,0.9-3.12,2v8.32h-3.65V99.49z M168.46,95.73v-6.4h-2.33v-3.05h2.33v-3.76h0.49l3.2,1.09v2.67h2.79v3.05h-2.79v6.06
		c0,0.87,0.53,1.32,1.43,1.32c0.41,0,0.68-0.08,1.05-0.19l0.19,0.11v2.82c-0.79,0.19-1.39,0.26-2.33,0.26
		C170.12,99.76,168.46,98.52,168.46,95.73z"/>
</g>
</svg>
